<svg xmlns="http://www.w3.org/2000/svg" xmlns:xlink="http://www.w3.org/1999/xlink" xmlns:lucid="lucid" width="1273" height="1190"><g transform="translate(-2007 -2291)" lucid:page-tab-id="0_0"><path d="M2259.4 2908.92l160-19.92v120h-160z" stroke="#000" stroke-width="2" fill="#de5f85"/><use xlink:href="#a" transform="matrix(1,0,0,1,2264.4,2913.9999999999527) translate(0.2499999999999858 48.15)"/><use xlink:href="#b" transform="matrix(1,0,0,1,2264.4,2913.9999999999527) translate(75.05 48.15)"/><use xlink:href="#c" transform="matrix(1,0,0,1,2264.4,2913.9999999999527) translate(133.95 48.15)"/><path d="M2259.4 2749.6h160v120h-160z" stroke="#000" stroke-width="2" fill="#a3d977"/><use xlink:href="#d" transform="matrix(1,0,0,1,2264.4,2754.599999999953) translate(9.074999999999989 17.8375)"/><use xlink:href="#e" transform="matrix(1,0,0,1,2264.4,2754.599999999953) translate(80.975 17.8375)"/><use xlink:href="#f" transform="matrix(1,0,0,1,2264.4,2754.599999999953) translate(14.599999999999994 39.4375)"/><use xlink:href="#g" transform="matrix(1,0,0,1,2264.4,2754.599999999953) translate(39.599999999999994 39.4375)"/><use xlink:href="#h" transform="matrix(1,0,0,1,2264.4,2754.599999999953) translate(7.625 61.0375)"/><use xlink:href="#i" transform="matrix(1,0,0,1,2264.4,2754.599999999953) translate(82.525 61.0375)"/><use xlink:href="#j" transform="matrix(1,0,0,1,2264.4,2754.599999999953) translate(138.425 61.0375)"/><use xlink:href="#k" transform="matrix(1,0,0,1,2264.4,2754.599999999953) translate(7.099999999999994 82.63750000000002)"/><use xlink:href="#l" transform="matrix(1,0,0,1,2264.4,2754.599999999953) translate(67 82.63750000000002)"/><use xlink:href="#m" transform="matrix(1,0,0,1,2264.4,2754.599999999953) translate(87 82.63750000000002)"/><use xlink:href="#n" transform="matrix(1,0,0,1,2264.4,2754.599999999953) translate(9.025000000000006 104.23750000000001)"/><use xlink:href="#o" transform="matrix(1,0,0,1,2264.4,2754.599999999953) translate(44.025000000000006 104.23750000000001)"/><use xlink:href="#p" transform="matrix(1,0,0,1,2264.4,2754.599999999953) translate(81.97500000000001 104.23750000000001)"/><path d="M2339.4 2896.95v-7.85" stroke="#000" stroke-width="2" fill="none"/><path d="M2340.4 2897.83l-2 .25v-1.15h2z"/><path d="M2339.4 2873.84l4.64 14.26h-9.28z" stroke="#000" stroke-width="2"/><path d="M2547.1 2740l87.5 69.7-87.5 69.7-87.5-69.7z" stroke="#000" stroke-width="2" fill="#ffc374"/><use xlink:href="#q" transform="matrix(1,0,0,1,2464.6,2745) translate(56.055 46.9)"/><use xlink:href="#r" transform="matrix(1,0,0,1,2464.6,2745) translate(9.704999999999993 68.5)"/><use xlink:href="#s" transform="matrix(1,0,0,1,2464.6,2745) translate(76.50500000000001 68.5)"/><use xlink:href="#t" transform="matrix(1,0,0,1,2464.6,2745) translate(96.50500000000001 68.5)"/><use xlink:href="#u" transform="matrix(1,0,0,1,2464.6,2745) translate(53.529999999999994 90.10000000000001)"/><path d="M2707.9 2380h160v120h-160z" stroke="#000" stroke-width="2" fill="#a3d977"/><use xlink:href="#v" transform="matrix(1,0,0,1,2712.899999999966,2385) translate(9.625 24.7125)"/><use xlink:href="#w" transform="matrix(1,0,0,1,2712.899999999966,2385) translate(73.42500000000001 24.7125)"/><use xlink:href="#x" transform="matrix(1,0,0,1,2712.899999999966,2385) translate(3.375 46.3125)"/><use xlink:href="#y" transform="matrix(1,0,0,1,2712.899999999966,2385) translate(98.22500000000001 46.3125)"/><use xlink:href="#z" transform="matrix(1,0,0,1,2712.899999999966,2385) translate(113.72500000000001 46.3125)"/><use xlink:href="#A" transform="matrix(1,0,0,1,2712.899999999966,2385) translate(39.55 67.91250000000001)"/><use xlink:href="#B" transform="matrix(1,0,0,1,2712.899999999966,2385) translate(30.074999999999996 89.51250000000002)"/><path/><path/><path d="M2454.76 2809.7l-9.3 3.02v-6.04z"/><path d="M2458 2809.7l-12.53 4.07v-2.1l6.05-1.97-6.05-1.97v-2.1z"/><path d="M2579.6 3108.92l160-19.92v120h-160z" stroke="#000" stroke-width="2" fill="#de5f85"/><use xlink:href="#a" transform="matrix(1,0,0,1,2584.6,3113.9999999999527) translate(10.649999999999991 36.9)"/><use xlink:href="#C" transform="matrix(1,0,0,1,2584.6,3113.9999999999527) translate(85.45 36.9)"/><use xlink:href="#D" transform="matrix(1,0,0,1,2584.6,3113.9999999999527) translate(65.125 58.5)"/><path d="M2779.6 3229h160v120h-160z" stroke="#000" stroke-width="2" fill="#a3d977"/><use xlink:href="#E" transform="matrix(1,0,0,1,2784.6,3233.9999999999527) translate(12.124999999999993 38.4625)"/><use xlink:href="#F" transform="matrix(1,0,0,1,2784.6,3233.9999999999527) translate(69.025 38.4625)"/><use xlink:href="#G" transform="matrix(1,0,0,1,2784.6,3233.9999999999527) translate(15.024999999999999 60.0625)"/><use xlink:href="#H" transform="matrix(1,0,0,1,2784.6,3233.9999999999527) translate(40.025 60.0625)"/><use xlink:href="#I" transform="matrix(1,0,0,1,2784.6,3233.9999999999527) translate(41.55 81.66250000000001)"/><path d="M2547.1 3091v58h13M2547.1 3091.03V3090" stroke="#000" stroke-width="2" fill="none"/><path d="M2575.36 3149l-14.26 4.64v-9.28z" stroke="#000" stroke-width="2"/><path d="M2579.6 3248.92l160-19.92v120h-160z" stroke="#000" stroke-width="2" fill="#de5f85"/><use xlink:href="#a" transform="matrix(1,0,0,1,2584.6,3253.9999999999527) translate(1.7749999999999915 48.15)"/><use xlink:href="#b" transform="matrix(1,0,0,1,2584.6,3253.9999999999527) translate(76.575 48.15)"/><use xlink:href="#J" transform="matrix(1,0,0,1,2584.6,3253.9999999999527) translate(135.47500000000002 48.15)"/><path d="M2547.1 3026.2V3289h13" stroke="#000" stroke-width="2" fill="none"/><path d="M2548.1 3026.23h-2v-1.03h2z"/><path d="M2575.36 3289l-14.26 4.64v-9.28z" stroke="#000" stroke-width="2"/><path d="M2779.6 3089h160v120h-160z" stroke="#000" stroke-width="2" fill="#a3d977"/><use xlink:href="#K" transform="matrix(1,0,0,1,2784.6,3093.9999999999527) translate(14.075000000000003 17.8375)"/><use xlink:href="#L" transform="matrix(1,0,0,1,2784.6,3093.9999999999527) translate(71.975 17.8375)"/><use xlink:href="#M" transform="matrix(1,0,0,1,2784.6,3093.9999999999527) translate(7.099999999999994 39.4375)"/><use xlink:href="#N" transform="matrix(1,0,0,1,2784.6,3093.9999999999527) translate(85 39.4375)"/><use xlink:href="#O" transform="matrix(1,0,0,1,2784.6,3093.9999999999527) translate(3.1499999999999915 61.0375)"/><use xlink:href="#P" transform="matrix(1,0,0,1,2784.6,3093.9999999999527) translate(44.99999999999999 61.0375)"/><use xlink:href="#Q" transform="matrix(1,0,0,1,2784.6,3093.9999999999527) translate(84.95 61.0375)"/><use xlink:href="#G" transform="matrix(1,0,0,1,2784.6,3093.9999999999527) translate(15.024999999999999 82.63750000000002)"/><use xlink:href="#H" transform="matrix(1,0,0,1,2784.6,3093.9999999999527) translate(40.025 82.63750000000002)"/><use xlink:href="#I" transform="matrix(1,0,0,1,2784.6,3093.9999999999527) translate(41.55 104.23750000000001)"/><path d="M2741.6 3289h18.5" stroke="#000" stroke-width="2" fill="none"/><path d="M2741.63 3290h-1.03v-2h1.03z"/><path d="M2775.36 3289l-14.26 4.64v-9.28z" stroke="#000" stroke-width="2"/><path d="M2741.6 3149h18.5" stroke="#000" stroke-width="2" fill="none"/><path d="M2741.63 3150h-1.03v-2h1.03z"/><path d="M2775.36 3149l-14.26 4.64v-9.28z" stroke="#000" stroke-width="2"/><path d="M2710.6 2609h160v120h-160z" stroke="#000" stroke-width="2" fill="#a3d977"/><use xlink:href="#R" transform="matrix(1,0,0,1,2715.6000000000004,2613.9999999999527) translate(14.075000000000003 48.775)"/><use xlink:href="#S" transform="matrix(1,0,0,1,2715.6000000000004,2613.9999999999527) translate(71.975 48.775)"/><use xlink:href="#T" transform="matrix(1,0,0,1,2715.6000000000004,2613.9999999999527) translate(48.55 70.375)"/><path d="M2869.9 2440h39v114.5h-239.3V2669h21.5" stroke="#000" stroke-width="2" fill="none"/><path d="M2869.93 2441h-1.03v-2h1.03z"/><path d="M2706.36 2669l-14.26 4.64v-9.28z" stroke="#000" stroke-width="2"/><path d="M2912.4 2609H3193v120h-280.6z" stroke="#000" stroke-width="2" fill="#d1bcd2"/><use xlink:href="#U" transform="matrix(1,0,0,1,2917.3999999999996,2613.9999999999527) translate(28.099999999999994 48.775)"/><use xlink:href="#V" transform="matrix(1,0,0,1,2917.3999999999996,2613.9999999999527) translate(80.05 48.775)"/><use xlink:href="#W" transform="matrix(1,0,0,1,2917.3999999999996,2613.9999999999527) translate(132.95 48.775)"/><use xlink:href="#X" transform="matrix(1,0,0,1,2917.3999999999996,2613.9999999999527) translate(157.95 48.775)"/><use xlink:href="#Y" transform="matrix(1,0,0,1,2917.3999999999996,2613.9999999999527) translate(222.9 48.775)"/><use xlink:href="#Z" transform="matrix(1,0,0,1,2917.3999999999996,2613.9999999999527) translate(71.14999999999999 70.375)"/><use xlink:href="#aa" transform="matrix(1,0,0,1,2917.3999999999996,2613.9999999999527) translate(141.05 70.375)"/><path d="M2872.6 2669h20.3" stroke="#000" stroke-width="2" fill="none"/><path d="M2872.63 2670h-1.03v-2h1.03z"/><path d="M2908.16 2669l-14.26 4.64v-9.28z" stroke="#000" stroke-width="2"/><path d="M2060 2899h160v120h-160z" stroke="#000" stroke-width="2" fill="#a3d977"/><use xlink:href="#ab" transform="matrix(1,0,0,1,2065,2903.9999999999527) translate(27.124999999999993 48.775)"/><use xlink:href="#ac" transform="matrix(1,0,0,1,2065,2903.9999999999527) translate(83.025 48.775)"/><use xlink:href="#j" transform="matrix(1,0,0,1,2065,2903.9999999999527) translate(118.92500000000001 48.775)"/><use xlink:href="#ad" transform="matrix(1,0,0,1,2065,2903.9999999999527) translate(9.074999999999989 70.375)"/><path d="M2222 2959h17.9" stroke="#000" stroke-width="2" fill="none"/><path d="M2222.03 2960H2221v-2h1.03z"/><path d="M2255.16 2959l-14.26 4.64v-9.28z" stroke="#000" stroke-width="2"/><path d="M2141 3378h838.6v-88h-38v-2h40v92H2139v-341.5h2z"/><path d="M2941.63 3290h-1.03v-2h1.03zM2144.64 3037.5h-9.28l4.64-14.26z"/><path d="M2146 3038.5h-12l6-18.5zm-9.26-2h6.52l-3.26-10.03zM2141 3378h838.6v-228h-38v-2h40v232H2139v-341.5h2z"/><path d="M2941.63 3150h-1.03v-2h1.03zM2144.64 3037.5h-9.28l4.64-14.26z"/><path d="M2146 3038.5h-12l6-18.5zm-9.26-2h6.52l-3.26-10.03z"/><path d="M2982.9 2800l87.5 69.7-87.5 69.7-87.5-69.7z" stroke="#000" stroke-width="2" fill="#ffc374"/><g><use xlink:href="#ae" transform="matrix(1,0,0,1,2900.4000000000233,2805) translate(38.105 46.9)"/><use xlink:href="#af" transform="matrix(1,0,0,1,2900.4000000000233,2805) translate(61.05499999999999 46.9)"/><use xlink:href="#ag" transform="matrix(1,0,0,1,2900.4000000000233,2805) translate(92.005 46.9)"/><use xlink:href="#ah" transform="matrix(1,0,0,1,2900.4000000000233,2805) translate(13.654999999999982 68.5)"/><use xlink:href="#ai" transform="matrix(1,0,0,1,2900.4000000000233,2805) translate(77.455 68.5)"/></g><path d="M3052.7 2731v33.36h-69.8v15.86" stroke="#000" stroke-width="2" fill="none"/><path d="M3053.7 2731.03h-2V2730h2z"/><path d="M2982.9 2795.5l-4.64-14.28h9.28z" stroke="#000" stroke-width="2"/><path d="M2141 3378h840.9v-335.6h2V3380H2139v-341.5h2zm842.9-357.2h-2v-79.12h2z"/><path d="M2983.9 2941.7h-2v-1.82l1 .8 1-.8zM2144.64 3037.5h-9.28l4.64-14.26z"/><path d="M2146 3038.5h-12l6-18.5zm-9.26-2h6.52l-3.26-10.03z"/><g><use xlink:href="#aj" transform="matrix(1,0,0,1,2968.225000000023,3020.8061449029206) translate(0 14.4)"/></g><path d="M3188.2 2928.4c17.67 0 32 17.9 32 40s-14.33 40-32 40h-96c-17.67 0-32-17.9-32-40s14.33-40 32-40z" stroke="#000" stroke-width="2" fill="#c92d39"/><g><use xlink:href="#ak" transform="matrix(1,0,0,1,3065.2,2933.399999999976) translate(31.049999999999997 27.525)"/><use xlink:href="#al" transform="matrix(1,0,0,1,3065.2,2933.399999999976) translate(85 27.525)"/><use xlink:href="#am" transform="matrix(1,0,0,1,3065.2,2933.399999999976) translate(43.5 49.125)"/></g><path d="M3141.2 2908.9h-2v-28.4h2zm-68.2-38.2v-2h50.48v2z"/><path d="M3073.03 2870.7h-2.28l1.25-1-1.25-1h2.28zM3140.2 2924.16l-4.64-14.26h9.28z"/><path d="M3140.2 2927.4l-6-18.5h12zm-3.26-16.5l3.26 10.03 3.26-10.03z"/><g><use xlink:href="#an" transform="matrix(1,0,0,1,3123.477492904739,2858.9000000000115) translate(0 14.4)"/></g><path d="M2467.1 2540h160v120h-160z" stroke="#000" stroke-width="2" fill="#3aa6dd"/><g><use xlink:href="#ao" transform="matrix(1,0,0,1,2472.1,2545) translate(5.7749999999999915 48.775)"/><use xlink:href="#ap" transform="matrix(1,0,0,1,2472.1,2545) translate(49.025 70.375)"/></g><path d="M2548.1 2737.72h-2v-17.4h2zm0-39h-2v-19.22h2z"/><path d="M2548.1 2739.52l-1-.8-1 .8v-1.82h2zM2551.74 2678.5h-9.28l4.64-14.26z"/><path d="M2553.1 2679.5h-12l6-18.5zm-9.26-2h6.52l-3.26-10.03z"/><g><use xlink:href="#aq" transform="matrix(1,0,0,1,2532.4249999999997,2698.7173623867866) translate(0 14.4)"/></g><path d="M2467.1 2380h160v120h-160z" stroke="#000" stroke-width="2" fill="#3aa6dd"/><g><use xlink:href="#ar" transform="matrix(1,0,0,1,2472.1,2385) translate(24.624999999999993 48.775)"/><use xlink:href="#ap" transform="matrix(1,0,0,1,2472.1,2385) translate(49.025 70.375)"/></g><path d="M2547.1 2538v-18.5" stroke="#000" stroke-width="2" fill="none"/><path d="M2548.1 2539h-2v-1.03h2z"/><path d="M2547.1 2504.24l4.64 14.26h-9.28z" stroke="#000" stroke-width="2"/><path d="M2595.1 2944.2c17.67 0 32 17.9 32 40s-14.33 40-32 40h-96c-17.67 0-32-17.9-32-40s14.33-40 32-40z" stroke="#000" stroke-width="2" fill="#a3d977"/><g><use xlink:href="#as" transform="matrix(1,0,0,1,2472.1000000000004,2949.1999999999534) translate(38.025 38.4625)"/></g><path d="M2548.1 2924.7h-2v-1.96h2zm0-23.56h-2v-19.46h2z"/><path d="M2548.1 2881.7h-2v-1.82l1 .8 1-.8zM2547.1 2939.96l-4.64-14.26h9.28z"/><path d="M2547.1 2943.2l-6-18.5h12zm-3.26-16.5l3.26 10.03 3.26-10.03z"/><g><use xlink:href="#at" transform="matrix(1,0,0,1,2535.625,2901.139242919534) translate(0 14.4)"/></g><path d="M2629.1 2440h59.3" stroke="#000" stroke-width="2" fill="none"/><path d="M2629.13 2441h-1.03v-2h1.03z"/><path d="M2703.66 2440l-14.26 4.64v-9.28z" stroke="#000" stroke-width="2"/><path d="M2457 2810.7h-11.53v-2H2457z"/><path d="M2458 2809.7l1.25 1h-2.28v-2h2.28zM2392.52 2812.72l-9.28-3.02 9.28-3.02z"/><path d="M2392.52 2807.73l-6.05 1.97 6.05 1.97v2.1l-12.52-4.07 12.52-4.07z"/><g><use xlink:href="#au" transform="matrix(1,0,0,1,2392.522507095252,2798.900000000007) translate(0 14.4)"/></g><defs><path d="M185-189c-5-48-123-54-124 2 14 75 158 14 163 119 3 78-121 87-175 55-17-10-28-26-33-46l33-7c5 56 141 63 141-1 0-78-155-14-162-118-5-82 145-84 179-34 5 7 8 16 11 25" id="av"/><path d="M115-194c55 1 70 41 70 98S169 2 115 4C84 4 66-9 55-30l1 105H24l-1-265h31l2 30c10-21 28-34 59-34zm-8 174c40 0 45-34 45-75s-6-73-45-74c-42 0-51 32-51 76 0 43 10 73 51 73" id="aw"/><path d="M24-231v-30h32v30H24zM24 0v-190h32V0H24" id="ax"/><path d="M24 0v-261h32V0H24" id="ay"/><path d="M100-194c63 0 86 42 84 106H49c0 40 14 67 53 68 26 1 43-12 49-29l28 8c-11 28-37 45-77 45C44 4 14-33 15-96c1-61 26-98 85-98zm52 81c6-60-76-77-97-28-3 7-6 17-6 28h103" id="az"/><path d="M114-163C36-179 61-72 57 0H25l-1-190h30c1 12-1 29 2 39 6-27 23-49 58-41v29" id="aA"/><path d="M117-194c89-4 53 116 60 194h-32v-121c0-31-8-49-39-48C34-167 62-67 57 0H25l-1-190h30c1 10-1 24 2 32 11-22 29-35 61-36" id="aB"/><g id="a"><use transform="matrix(0.05,0,0,0.05,0,0)" xlink:href="#av"/><use transform="matrix(0.05,0,0,0.05,12,0)" xlink:href="#aw"/><use transform="matrix(0.05,0,0,0.05,22,0)" xlink:href="#ax"/><use transform="matrix(0.05,0,0,0.05,25.950000000000003,0)" xlink:href="#ay"/><use transform="matrix(0.05,0,0,0.05,29.899999999999995,0)" xlink:href="#ay"/><use transform="matrix(0.05,0,0,0.05,33.85,0)" xlink:href="#az"/><use transform="matrix(0.05,0,0,0.05,43.85,0)" xlink:href="#aA"/><use transform="matrix(0.05,0,0,0.05,49.800000000000004,0)" xlink:href="#az"/><use transform="matrix(0.05,0,0,0.05,59.800000000000004,0)" xlink:href="#aB"/></g><path d="M59-47c-2 24 18 29 38 22v24C64 9 27 4 27-40v-127H5v-23h24l9-43h21v43h35v23H59v120" id="aC"/><path d="M179-190L93 31C79 59 56 82 12 73V49c39 6 53-20 64-50L1-190h34L92-34l54-156h33" id="aD"/><path d="M143 0L79-87 56-68V0H24v-261h32v163l83-92h37l-77 82L181 0h-38" id="aE"/><g id="b"><use transform="matrix(0.05,0,0,0.05,0,0)" xlink:href="#aC"/><use transform="matrix(0.05,0,0,0.05,5,0)" xlink:href="#aA"/><use transform="matrix(0.05,0,0,0.05,10.95,0)" xlink:href="#aD"/><use transform="matrix(0.05,0,0,0.05,19.95,0)" xlink:href="#aE"/><use transform="matrix(0.05,0,0,0.05,28.950000000000003,0)" xlink:href="#aE"/><use transform="matrix(0.05,0,0,0.05,37.95,0)" xlink:href="#az"/><use transform="matrix(0.05,0,0,0.05,47.95,0)" xlink:href="#aA"/></g><path d="M47-170H22l-4-78h33" id="aF"/><path d="M135-143c-3-34-86-38-87 0 15 53 115 12 119 90S17 21 10-45l28-5c4 36 97 45 98 0-10-56-113-15-118-90-4-57 82-63 122-42 12 7 21 19 24 35" id="aG"/><g id="c"><use transform="matrix(0.05,0,0,0.05,0,0)" xlink:href="#aF"/><use transform="matrix(0.05,0,0,0.05,3.4000000000000004,0)" xlink:href="#aG"/><use transform="matrix(0.05,0,0,0.05,12.4,0)" xlink:href="#aF"/></g><path d="M84 4C-5 8 30-112 23-190h32v120c0 31 7 50 39 49 72-2 45-101 50-169h31l1 190h-30c-1-10 1-25-2-33-11 22-28 36-60 37" id="aH"/><path d="M85-194c31 0 48 13 60 33l-1-100h32l1 261h-30c-2-10 0-23-3-31C134-8 116 4 85 4 32 4 16-35 15-94c0-66 23-100 70-100zm9 24c-40 0-46 34-46 75 0 40 6 74 45 74 42 0 51-32 51-76 0-42-9-74-50-73" id="aI"/><path d="M141-36C126-15 110 5 73 4 37 3 15-17 15-53c-1-64 63-63 125-63 3-35-9-54-41-54-24 1-41 7-42 31l-33-3c5-37 33-52 76-52 45 0 72 20 72 64v82c-1 20 7 32 28 27v20c-31 9-61-2-59-35zM48-53c0 20 12 33 32 33 41-3 63-29 60-74-43 2-92-5-92 41" id="aJ"/><path d="M87 75C49 33 22-17 22-94c0-76 28-126 65-167h31c-38 41-64 92-64 168S80 34 118 75H87" id="aK"/><path d="M33-261c38 41 65 92 65 168S71 34 33 75H2C39 34 66-17 66-93S39-220 2-261h31" id="aL"/><g id="d"><use transform="matrix(0.05,0,0,0.05,0,0)" xlink:href="#aH"/><use transform="matrix(0.05,0,0,0.05,10,0)" xlink:href="#aw"/><use transform="matrix(0.05,0,0,0.05,20,0)" xlink:href="#aI"/><use transform="matrix(0.05,0,0,0.05,30,0)" xlink:href="#aJ"/><use transform="matrix(0.05,0,0,0.05,40,0)" xlink:href="#aC"/><use transform="matrix(0.05,0,0,0.05,45,0)" xlink:href="#az"/><use transform="matrix(0.05,0,0,0.05,55,0)" xlink:href="#aK"/><use transform="matrix(0.05,0,0,0.05,60.95,0)" xlink:href="#aL"/></g><path d="M100-194c62-1 85 37 85 99 1 63-27 99-86 99S16-35 15-95c0-66 28-99 85-99zM99-20c44 1 53-31 53-75 0-43-8-75-51-75s-53 32-53 75 10 74 51 75" id="aM"/><g id="e"><use transform="matrix(0.05,0,0,0.05,0,0)" xlink:href="#aG"/><use transform="matrix(0.05,0,0,0.05,9,0)" xlink:href="#aC"/><use transform="matrix(0.05,0,0,0.05,14,0)" xlink:href="#aM"/><use transform="matrix(0.05,0,0,0.05,24,0)" xlink:href="#aw"/><use transform="matrix(0.05,0,0,0.05,34,0)" xlink:href="#aw"/><use transform="matrix(0.05,0,0,0.05,44,0)" xlink:href="#az"/><use transform="matrix(0.05,0,0,0.05,54,0)" xlink:href="#aA"/></g><path d="M177-190C167-65 218 103 67 71c-23-6-38-20-44-43l32-5c15 47 100 32 89-28v-30C133-14 115 1 83 1 29 1 15-40 15-95c0-56 16-97 71-98 29-1 48 16 59 35 1-10 0-23 2-32h30zM94-22c36 0 50-32 50-73 0-42-14-75-50-75-39 0-46 34-46 75s6 73 46 73" id="aN"/><g id="f"><use transform="matrix(0.05,0,0,0.05,0,0)" xlink:href="#aM"/><use transform="matrix(0.05,0,0,0.05,10,0)" xlink:href="#aN"/></g><path d="M210-169c-67 3-38 105-44 169h-31v-121c0-29-5-50-35-48C34-165 62-65 56 0H25l-1-190h30c1 10-1 24 2 32 10-44 99-50 107 0 11-21 27-35 58-36 85-2 47 119 55 194h-31v-121c0-29-5-49-35-48" id="aO"/><path d="M108 0H70L1-190h34L89-25l56-165h34" id="aP"/><g id="g"><use transform="matrix(0.05,0,0,0.05,0,0)" xlink:href="#aO"/><use transform="matrix(0.05,0,0,0.05,14.950000000000001,0)" xlink:href="#aM"/><use transform="matrix(0.05,0,0,0.05,24.950000000000003,0)" xlink:href="#aP"/><use transform="matrix(0.05,0,0,0.05,33.95,0)" xlink:href="#az"/><use transform="matrix(0.05,0,0,0.05,43.95,0)" xlink:href="#aO"/><use transform="matrix(0.05,0,0,0.05,58.900000000000006,0)" xlink:href="#az"/><use transform="matrix(0.05,0,0,0.05,68.9,0)" xlink:href="#aB"/><use transform="matrix(0.05,0,0,0.05,78.9,0)" xlink:href="#aC"/><use transform="matrix(0.05,0,0,0.05,83.9,0)" xlink:href="#aK"/><use transform="matrix(0.05,0,0,0.05,89.85000000000001,0)" xlink:href="#aL"/></g><path d="M220-194c63 1 86 42 84 106H170c0 40 13 67 51 68 27 1 43-12 50-29l28 8c-11 29-37 44-78 45-38 0-62-16-74-46-14 27-36 45-76 46-37 0-59-20-59-57-1-64 63-63 126-63 3-35-8-55-41-54-25 0-41 8-44 31l-33-3c1-59 111-68 139-27 13-16 34-24 61-25zM78-20c42-2 63-28 60-74-43 2-94-4-94 41 0 20 13 33 34 33zm193-93c7-60-75-77-95-28-3 7-5 17-5 28h100" id="aQ"/><g id="h"><use transform="matrix(0.05,0,0,0.05,0,0)" xlink:href="#aG"/><use transform="matrix(0.05,0,0,0.05,9,0)" xlink:href="#aC"/><use transform="matrix(0.05,0,0,0.05,14,0)" xlink:href="#aA"/><use transform="matrix(0.05,0,0,0.05,19.95,0)" xlink:href="#aQ"/><use transform="matrix(0.05,0,0,0.05,35.95,0)" xlink:href="#aE"/><use transform="matrix(0.05,0,0,0.05,44.95,0)" xlink:href="#aE"/><use transform="matrix(0.05,0,0,0.05,53.95,0)" xlink:href="#az"/><use transform="matrix(0.05,0,0,0.05,63.95,0)" xlink:href="#aA"/></g><g id="i"><use transform="matrix(0.05,0,0,0.05,0,0)" xlink:href="#aJ"/><use transform="matrix(0.05,0,0,0.05,10,0)" xlink:href="#aA"/><use transform="matrix(0.05,0,0,0.05,15.949999999999998,0)" xlink:href="#aO"/><use transform="matrix(0.05,0,0,0.05,30.899999999999995,0)" xlink:href="#az"/><use transform="matrix(0.05,0,0,0.05,40.9,0)" xlink:href="#aB"/></g><use transform="matrix(0.05,0,0,0.05,0,0)" xlink:href="#ax" id="j"/><g id="k"><use transform="matrix(0.05,0,0,0.05,0,0)" xlink:href="#aA"/><use transform="matrix(0.05,0,0,0.05,5.95,0)" xlink:href="#az"/><use transform="matrix(0.05,0,0,0.05,15.949999999999998,0)" xlink:href="#aC"/><use transform="matrix(0.05,0,0,0.05,20.95,0)" xlink:href="#aB"/><use transform="matrix(0.05,0,0,0.05,30.950000000000003,0)" xlink:href="#ax"/><use transform="matrix(0.05,0,0,0.05,34.9,0)" xlink:href="#aB"/><use transform="matrix(0.05,0,0,0.05,44.9,0)" xlink:href="#aN"/></g><path d="M101-234c-31-9-42 10-38 44h38v23H63V0H32v-167H5v-23h27c-7-52 17-82 69-68v24" id="aR"/><g id="l"><use transform="matrix(0.05,0,0,0.05,0,0)" xlink:href="#aJ"/><use transform="matrix(0.05,0,0,0.05,10,0)" xlink:href="#aR"/></g><g id="m"><use transform="matrix(0.05,0,0,0.05,0,0)" xlink:href="#aP"/><use transform="matrix(0.05,0,0,0.05,9,0)" xlink:href="#ax"/><use transform="matrix(0.05,0,0,0.05,12.949999999999998,0)" xlink:href="#aB"/><use transform="matrix(0.05,0,0,0.05,22.95,0)" xlink:href="#aE"/><use transform="matrix(0.05,0,0,0.05,31.950000000000003,0)" xlink:href="#ay"/><use transform="matrix(0.05,0,0,0.05,35.9,0)" xlink:href="#az"/><use transform="matrix(0.05,0,0,0.05,45.9,0)" xlink:href="#aB"/></g><g id="n"><use transform="matrix(0.05,0,0,0.05,0,0)" xlink:href="#aI"/><use transform="matrix(0.05,0,0,0.05,10,0)" xlink:href="#az"/><use transform="matrix(0.05,0,0,0.05,20,0)" xlink:href="#aB"/></g><path d="M115-194c53 0 69 39 70 98 0 66-23 100-70 100C84 3 66-7 56-30L54 0H23l1-261h32v101c10-23 28-34 59-34zm-8 174c40 0 45-34 45-75 0-40-5-75-45-74-42 0-51 32-51 76 0 43 10 73 51 73" id="aS"/><g id="o"><use transform="matrix(0.05,0,0,0.05,0,0)" xlink:href="#aS"/><use transform="matrix(0.05,0,0,0.05,10,0)" xlink:href="#ay"/><use transform="matrix(0.05,0,0,0.05,13.949999999999998,0)" xlink:href="#az"/><use transform="matrix(0.05,0,0,0.05,23.95,0)" xlink:href="#aP"/></g><g id="p"><use transform="matrix(0.05,0,0,0.05,0,0)" xlink:href="#aG"/><use transform="matrix(0.05,0,0,0.05,9,0)" xlink:href="#aC"/><use transform="matrix(0.05,0,0,0.05,14,0)" xlink:href="#aM"/><use transform="matrix(0.05,0,0,0.05,24,0)" xlink:href="#aw"/><use transform="matrix(0.05,0,0,0.05,34,0)" xlink:href="#aw"/><use transform="matrix(0.05,0,0,0.05,44,0)" xlink:href="#az"/><use transform="matrix(0.05,0,0,0.05,54,0)" xlink:href="#aC"/></g><path d="M205 0l-28-72H64L36 0H1l101-248h38L239 0h-34zm-38-99l-47-123c-12 45-31 82-46 123h93" id="aT"/><g id="q"><use transform="matrix(0.05,0,0,0.05,0,0)" xlink:href="#aT"/><use transform="matrix(0.05,0,0,0.05,12,0)" xlink:href="#aA"/><use transform="matrix(0.05,0,0,0.05,17.95,0)" xlink:href="#aO"/><use transform="matrix(0.05,0,0,0.05,32.9,0)" xlink:href="#az"/><use transform="matrix(0.05,0,0,0.05,42.9,0)" xlink:href="#aB"/></g><g id="r"><use transform="matrix(0.05,0,0,0.05,0,0)" xlink:href="#aA"/><use transform="matrix(0.05,0,0,0.05,5.95,0)" xlink:href="#aJ"/><use transform="matrix(0.05,0,0,0.05,15.949999999999998,0)" xlink:href="#aO"/><use transform="matrix(0.05,0,0,0.05,30.899999999999995,0)" xlink:href="#aO"/><use transform="matrix(0.05,0,0,0.05,45.85,0)" xlink:href="#az"/><use transform="matrix(0.05,0,0,0.05,55.85,0)" xlink:href="#aA"/></g><g id="s"><use transform="matrix(0.05,0,0,0.05,0,0)" xlink:href="#az"/><use transform="matrix(0.05,0,0,0.05,10,0)" xlink:href="#aC"/></g><path d="M240 0l2-218c-23 76-54 145-80 218h-23L58-218 59 0H30v-248h44l77 211c21-75 51-140 76-211h43V0h-30" id="aU"/><g id="t"><use transform="matrix(0.05,0,0,0.05,0,0)" xlink:href="#aU"/><use transform="matrix(0.05,0,0,0.05,14.950000000000001,0)" xlink:href="#ax"/><use transform="matrix(0.05,0,0,0.05,18.900000000000002,0)" xlink:href="#aB"/><use transform="matrix(0.05,0,0,0.05,28.900000000000002,0)" xlink:href="#az"/><use transform="matrix(0.05,0,0,0.05,38.900000000000006,0)" xlink:href="#aA"/><use transform="matrix(0.05,0,0,0.05,44.85000000000001,0)" xlink:href="#aJ"/><use transform="matrix(0.05,0,0,0.05,54.85,0)" xlink:href="#ay"/></g><path d="M24-231v-30h32v30H24zM-9 49c24 4 33-6 33-30v-209h32V24c2 40-23 58-65 49V49" id="aV"/><path d="M103-251c84 0 111 97 45 133-19 10-37 24-39 52H78c0-63 77-55 77-114 0-30-21-42-52-43-32 0-53 17-56 46l-32-2c7-45 34-72 88-72zM77 0v-35h34V0H77" id="aW"/><g id="u"><use transform="matrix(0.05,0,0,0.05,0,0)" xlink:href="#aM"/><use transform="matrix(0.05,0,0,0.05,10,0)" xlink:href="#aS"/><use transform="matrix(0.05,0,0,0.05,20,0)" xlink:href="#aV"/><use transform="matrix(0.05,0,0,0.05,23.95,0)" xlink:href="#az"/><use transform="matrix(0.05,0,0,0.05,33.95,0)" xlink:href="#aE"/><use transform="matrix(0.05,0,0,0.05,42.95,0)" xlink:href="#aC"/><use transform="matrix(0.05,0,0,0.05,47.95,0)" xlink:href="#aW"/></g><g id="v"><use transform="matrix(0.05,0,0,0.05,0,0)" xlink:href="#aU"/><use transform="matrix(0.05,0,0,0.05,14.950000000000001,0)" xlink:href="#ax"/><use transform="matrix(0.05,0,0,0.05,18.900000000000002,0)" xlink:href="#aB"/><use transform="matrix(0.05,0,0,0.05,28.900000000000002,0)" xlink:href="#az"/><use transform="matrix(0.05,0,0,0.05,38.900000000000006,0)" xlink:href="#aA"/><use transform="matrix(0.05,0,0,0.05,44.85000000000001,0)" xlink:href="#aJ"/><use transform="matrix(0.05,0,0,0.05,54.85,0)" xlink:href="#ay"/></g><g id="w"><use transform="matrix(0.05,0,0,0.05,0,0)" xlink:href="#aw"/><use transform="matrix(0.05,0,0,0.05,10,0)" xlink:href="#aM"/><use transform="matrix(0.05,0,0,0.05,20,0)" xlink:href="#aG"/><use transform="matrix(0.05,0,0,0.05,29,0)" xlink:href="#aC"/><use transform="matrix(0.05,0,0,0.05,34,0)" xlink:href="#ax"/><use transform="matrix(0.05,0,0,0.05,37.95,0)" xlink:href="#aM"/><use transform="matrix(0.05,0,0,0.05,47.95,0)" xlink:href="#aB"/><use transform="matrix(0.05,0,0,0.05,57.95,0)" xlink:href="#aG"/></g><g id="x"><use transform="matrix(0.05,0,0,0.05,0,0)" xlink:href="#aE"/><use transform="matrix(0.05,0,0,0.05,9,0)" xlink:href="#aM"/><use transform="matrix(0.05,0,0,0.05,19,0)" xlink:href="#aM"/><use transform="matrix(0.05,0,0,0.05,29,0)" xlink:href="#aA"/><use transform="matrix(0.05,0,0,0.05,34.95,0)" xlink:href="#aI"/><use transform="matrix(0.05,0,0,0.05,44.95,0)" xlink:href="#ax"/><use transform="matrix(0.05,0,0,0.05,48.900000000000006,0)" xlink:href="#aB"/><use transform="matrix(0.05,0,0,0.05,58.900000000000006,0)" xlink:href="#aJ"/><use transform="matrix(0.05,0,0,0.05,68.9,0)" xlink:href="#aC"/><use transform="matrix(0.05,0,0,0.05,73.9,0)" xlink:href="#aM"/><use transform="matrix(0.05,0,0,0.05,83.9,0)" xlink:href="#aA"/></g><path d="M18-150v-26h174v26H18zm0 90v-26h174v26H18" id="aX"/><use transform="matrix(0.05,0,0,0.05,0,0)" xlink:href="#aX" id="y"/><g id="z"><use transform="matrix(0.05,0,0,0.05,0,0)" xlink:href="#aT"/><use transform="matrix(0.05,0,0,0.05,12,0)" xlink:href="#aA"/><use transform="matrix(0.05,0,0,0.05,17.95,0)" xlink:href="#aO"/></g><g id="A"><use transform="matrix(0.05,0,0,0.05,0,0)" xlink:href="#aw"/><use transform="matrix(0.05,0,0,0.05,10,0)" xlink:href="#aM"/><use transform="matrix(0.05,0,0,0.05,20,0)" xlink:href="#aG"/><use transform="matrix(0.05,0,0,0.05,29,0)" xlink:href="#ax"/><use transform="matrix(0.05,0,0,0.05,32.95,0)" xlink:href="#aC"/><use transform="matrix(0.05,0,0,0.05,37.95,0)" xlink:href="#ax"/><use transform="matrix(0.05,0,0,0.05,41.900000000000006,0)" xlink:href="#aM"/><use transform="matrix(0.05,0,0,0.05,51.900000000000006,0)" xlink:href="#aB"/><use transform="matrix(0.05,0,0,0.05,61.900000000000006,0)" xlink:href="#aG"/></g><g id="B"><use transform="matrix(0.05,0,0,0.05,0,0)" xlink:href="#aE"/><use transform="matrix(0.05,0,0,0.05,9,0)" xlink:href="#aM"/><use transform="matrix(0.05,0,0,0.05,19,0)" xlink:href="#aM"/><use transform="matrix(0.05,0,0,0.05,29,0)" xlink:href="#aA"/><use transform="matrix(0.05,0,0,0.05,34.95,0)" xlink:href="#aI"/><use transform="matrix(0.05,0,0,0.05,44.95,0)" xlink:href="#ax"/><use transform="matrix(0.05,0,0,0.05,48.900000000000006,0)" xlink:href="#aB"/><use transform="matrix(0.05,0,0,0.05,58.900000000000006,0)" xlink:href="#aJ"/><use transform="matrix(0.05,0,0,0.05,68.9,0)" xlink:href="#aC"/><use transform="matrix(0.05,0,0,0.05,73.9,0)" xlink:href="#aM"/><use transform="matrix(0.05,0,0,0.05,83.9,0)" xlink:href="#aA"/></g><g id="C"><use transform="matrix(0.05,0,0,0.05,0,0)" xlink:href="#aC"/><use transform="matrix(0.05,0,0,0.05,5,0)" xlink:href="#aA"/><use transform="matrix(0.05,0,0,0.05,10.95,0)" xlink:href="#aD"/><use transform="matrix(0.05,0,0,0.05,19.95,0)" xlink:href="#aE"/><use transform="matrix(0.05,0,0,0.05,28.950000000000003,0)" xlink:href="#aE"/><use transform="matrix(0.05,0,0,0.05,37.95,0)" xlink:href="#az"/><use transform="matrix(0.05,0,0,0.05,47.95,0)" xlink:href="#aA"/></g><path d="M206 0h-36l-40-164L89 0H53L-1-190h32L70-26l43-164h34l41 164 42-164h31" id="aY"/><g id="D"><use transform="matrix(0.05,0,0,0.05,0,0)" xlink:href="#aF"/><use transform="matrix(0.05,0,0,0.05,3.4000000000000004,0)" xlink:href="#aY"/><use transform="matrix(0.05,0,0,0.05,16.35,0)" xlink:href="#aF"/></g><path d="M194 0L95-120 63-95V0H30v-248h33v124l119-124h40L117-140 236 0h-42" id="aZ"/><g id="E"><use transform="matrix(0.05,0,0,0.05,0,0)" xlink:href="#aZ"/><use transform="matrix(0.05,0,0,0.05,12,0)" xlink:href="#aJ"/><use transform="matrix(0.05,0,0,0.05,22,0)" xlink:href="#ay"/><use transform="matrix(0.05,0,0,0.05,25.950000000000003,0)" xlink:href="#aI"/><use transform="matrix(0.05,0,0,0.05,35.95,0)" xlink:href="#az"/><use transform="matrix(0.05,0,0,0.05,45.95,0)" xlink:href="#aA"/></g><path d="M233-177c-1 41-23 64-60 70L243 0h-38l-65-103H63V0H30v-248c88 3 205-21 203 71zM63-129c60-2 137 13 137-47 0-61-80-42-137-45v92" id="ba"/><g id="F"><use transform="matrix(0.05,0,0,0.05,0,0)" xlink:href="#aw"/><use transform="matrix(0.05,0,0,0.05,10,0)" xlink:href="#ba"/><use transform="matrix(0.05,0,0,0.05,22.950000000000003,0)" xlink:href="#az"/><use transform="matrix(0.05,0,0,0.05,32.95,0)" xlink:href="#aG"/><use transform="matrix(0.05,0,0,0.05,41.95,0)" xlink:href="#az"/><use transform="matrix(0.05,0,0,0.05,51.95,0)" xlink:href="#aC"/><use transform="matrix(0.05,0,0,0.05,56.95,0)" xlink:href="#aK"/><use transform="matrix(0.05,0,0,0.05,62.900000000000006,0)" xlink:href="#aL"/></g><g id="G"><use transform="matrix(0.05,0,0,0.05,0,0)" xlink:href="#aM"/><use transform="matrix(0.05,0,0,0.05,10,0)" xlink:href="#aN"/></g><path d="M141-36C126-15 110 5 73 4 37 3 15-17 15-53c-1-64 63-63 125-63 3-35-9-54-41-54-24 1-41 7-42 31l-33-3c5-37 33-52 76-52 45 0 72 20 72 64v82c-1 20 7 32 28 27v20c-31 9-61-2-59-35zM48-53c0 20 12 33 32 33 41-3 63-29 60-74-43 2-92-5-92 41zm50-237c26 0 42 16 42 42 0 27-18 40-42 43-25-2-43-16-43-43 0-26 17-42 43-42zm-24 42c-2 26 37 32 45 10 6-16-3-33-21-33-16 0-23 10-24 23" id="bb"/><g id="H"><use transform="matrix(0.05,0,0,0.05,0,0)" xlink:href="#aw"/><use transform="matrix(0.05,0,0,0.05,10,0)" xlink:href="#bb"/><use transform="matrix(0.05,0,0,0.05,20,0)" xlink:href="#aS"/><use transform="matrix(0.05,0,0,0.05,30,0)" xlink:href="#az"/><use transform="matrix(0.05,0,0,0.05,40,0)" xlink:href="#aN"/><use transform="matrix(0.05,0,0,0.05,50,0)" xlink:href="#aD"/><use transform="matrix(0.05,0,0,0.05,59,0)" xlink:href="#aB"/><use transform="matrix(0.05,0,0,0.05,69,0)" xlink:href="#aI"/><use transform="matrix(0.05,0,0,0.05,79,0)" xlink:href="#az"/><use transform="matrix(0.05,0,0,0.05,89,0)" xlink:href="#aA"/></g><g id="I"><use transform="matrix(0.05,0,0,0.05,0,0)" xlink:href="#aH"/><use transform="matrix(0.05,0,0,0.05,10,0)" xlink:href="#aw"/><use transform="matrix(0.05,0,0,0.05,20,0)" xlink:href="#aI"/><use transform="matrix(0.05,0,0,0.05,30,0)" xlink:href="#aJ"/><use transform="matrix(0.05,0,0,0.05,40,0)" xlink:href="#aC"/><use transform="matrix(0.05,0,0,0.05,45,0)" xlink:href="#az"/><use transform="matrix(0.05,0,0,0.05,55,0)" xlink:href="#aK"/><use transform="matrix(0.05,0,0,0.05,60.95,0)" xlink:href="#aL"/></g><g id="J"><use transform="matrix(0.05,0,0,0.05,0,0)" xlink:href="#aF"/><use transform="matrix(0.05,0,0,0.05,3.4000000000000004,0)" xlink:href="#aA"/><use transform="matrix(0.05,0,0,0.05,9.350000000000001,0)" xlink:href="#aF"/></g><g id="K"><use transform="matrix(0.05,0,0,0.05,0,0)" xlink:href="#aT"/><use transform="matrix(0.05,0,0,0.05,12,0)" xlink:href="#aA"/><use transform="matrix(0.05,0,0,0.05,17.95,0)" xlink:href="#aO"/><use transform="matrix(0.05,0,0,0.05,32.9,0)" xlink:href="#az"/><use transform="matrix(0.05,0,0,0.05,42.9,0)" xlink:href="#aB"/></g><g id="L"><use transform="matrix(0.05,0,0,0.05,0,0)" xlink:href="#aC"/><use transform="matrix(0.05,0,0,0.05,5,0)" xlink:href="#aA"/><use transform="matrix(0.05,0,0,0.05,10.95,0)" xlink:href="#aQ"/><use transform="matrix(0.05,0,0,0.05,26.950000000000003,0)" xlink:href="#aE"/><use transform="matrix(0.05,0,0,0.05,35.95,0)" xlink:href="#aE"/><use transform="matrix(0.05,0,0,0.05,44.95,0)" xlink:href="#az"/><use transform="matrix(0.05,0,0,0.05,54.95,0)" xlink:href="#aG"/></g><g id="M"><use transform="matrix(0.05,0,0,0.05,0,0)" xlink:href="#ay"/><use transform="matrix(0.05,0,0,0.05,3.95,0)" xlink:href="#aJ"/><use transform="matrix(0.05,0,0,0.05,13.949999999999998,0)" xlink:href="#aB"/><use transform="matrix(0.05,0,0,0.05,23.95,0)" xlink:href="#aN"/><use transform="matrix(0.05,0,0,0.05,33.95,0)" xlink:href="#aG"/><use transform="matrix(0.05,0,0,0.05,42.95,0)" xlink:href="#aM"/><use transform="matrix(0.05,0,0,0.05,52.95,0)" xlink:href="#aO"/><use transform="matrix(0.05,0,0,0.05,67.9,0)" xlink:href="#aC"/></g><path d="M68-38c1 34 0 65-14 84H32c9-13 17-26 17-46H33v-38h35" id="bc"/><g id="N"><use transform="matrix(0.05,0,0,0.05,0,0)" xlink:href="#aC"/><use transform="matrix(0.05,0,0,0.05,5,0)" xlink:href="#ax"/><use transform="matrix(0.05,0,0,0.05,8.95,0)" xlink:href="#ay"/><use transform="matrix(0.05,0,0,0.05,12.899999999999999,0)" xlink:href="#aS"/><use transform="matrix(0.05,0,0,0.05,22.9,0)" xlink:href="#aJ"/><use transform="matrix(0.05,0,0,0.05,32.9,0)" xlink:href="#aN"/><use transform="matrix(0.05,0,0,0.05,42.9,0)" xlink:href="#az"/><use transform="matrix(0.05,0,0,0.05,52.900000000000006,0)" xlink:href="#bc"/></g><g id="O"><use transform="matrix(0.05,0,0,0.05,0,0)" xlink:href="#ax"/><use transform="matrix(0.05,0,0,0.05,3.95,0)" xlink:href="#aB"/><use transform="matrix(0.05,0,0,0.05,13.949999999999998,0)" xlink:href="#aI"/><use transform="matrix(0.05,0,0,0.05,23.95,0)" xlink:href="#aC"/><use transform="matrix(0.05,0,0,0.05,28.950000000000003,0)" xlink:href="#ax"/><use transform="matrix(0.05,0,0,0.05,32.9,0)" xlink:href="#ay"/></g><g id="P"><use transform="matrix(0.05,0,0,0.05,0,0)" xlink:href="#aG"/><use transform="matrix(0.05,0,0,0.05,9,0)" xlink:href="#aC"/><use transform="matrix(0.05,0,0,0.05,14,0)" xlink:href="#aJ"/><use transform="matrix(0.05,0,0,0.05,24,0)" xlink:href="#aA"/><use transform="matrix(0.05,0,0,0.05,29.950000000000003,0)" xlink:href="#aC"/></g><g id="Q"><use transform="matrix(0.05,0,0,0.05,0,0)" xlink:href="#aw"/><use transform="matrix(0.05,0,0,0.05,10,0)" xlink:href="#aM"/><use transform="matrix(0.05,0,0,0.05,20,0)" xlink:href="#aG"/><use transform="matrix(0.05,0,0,0.05,29,0)" xlink:href="#ax"/><use transform="matrix(0.05,0,0,0.05,32.95,0)" xlink:href="#aC"/><use transform="matrix(0.05,0,0,0.05,37.95,0)" xlink:href="#ax"/><use transform="matrix(0.05,0,0,0.05,41.900000000000006,0)" xlink:href="#aM"/><use transform="matrix(0.05,0,0,0.05,51.900000000000006,0)" xlink:href="#aB"/></g><g id="R"><use transform="matrix(0.05,0,0,0.05,0,0)" xlink:href="#aT"/><use transform="matrix(0.05,0,0,0.05,12,0)" xlink:href="#aA"/><use transform="matrix(0.05,0,0,0.05,17.95,0)" xlink:href="#aO"/><use transform="matrix(0.05,0,0,0.05,32.9,0)" xlink:href="#az"/><use transform="matrix(0.05,0,0,0.05,42.9,0)" xlink:href="#aB"/></g><g id="S"><use transform="matrix(0.05,0,0,0.05,0,0)" xlink:href="#aC"/><use transform="matrix(0.05,0,0,0.05,5,0)" xlink:href="#aA"/><use transform="matrix(0.05,0,0,0.05,10.95,0)" xlink:href="#aQ"/><use transform="matrix(0.05,0,0,0.05,26.950000000000003,0)" xlink:href="#aE"/><use transform="matrix(0.05,0,0,0.05,35.95,0)" xlink:href="#aE"/><use transform="matrix(0.05,0,0,0.05,44.95,0)" xlink:href="#az"/><use transform="matrix(0.05,0,0,0.05,54.95,0)" xlink:href="#aG"/></g><g id="T"><use transform="matrix(0.05,0,0,0.05,0,0)" xlink:href="#aC"/><use transform="matrix(0.05,0,0,0.05,5,0)" xlink:href="#ax"/><use transform="matrix(0.05,0,0,0.05,8.95,0)" xlink:href="#ay"/><use transform="matrix(0.05,0,0,0.05,12.899999999999999,0)" xlink:href="#aS"/><use transform="matrix(0.05,0,0,0.05,22.9,0)" xlink:href="#aJ"/><use transform="matrix(0.05,0,0,0.05,32.9,0)" xlink:href="#aN"/><use transform="matrix(0.05,0,0,0.05,42.9,0)" xlink:href="#az"/></g><path d="M96-169c-40 0-48 33-48 73s9 75 48 75c24 0 41-14 43-38l32 2c-6 37-31 61-74 61-59 0-76-41-82-99-10-93 101-131 147-64 4 7 5 14 7 22l-32 3c-4-21-16-35-41-35" id="bd"/><g id="U"><use transform="matrix(0.05,0,0,0.05,0,0)" xlink:href="#av"/><use transform="matrix(0.05,0,0,0.05,12,0)" xlink:href="#bd"/><use transform="matrix(0.05,0,0,0.05,21,0)" xlink:href="#aM"/><use transform="matrix(0.05,0,0,0.05,31,0)" xlink:href="#aA"/><use transform="matrix(0.05,0,0,0.05,36.95,0)" xlink:href="#az"/></g><g id="V"><use transform="matrix(0.05,0,0,0.05,0,0)" xlink:href="#aC"/><use transform="matrix(0.05,0,0,0.05,5,0)" xlink:href="#aQ"/><use transform="matrix(0.05,0,0,0.05,21,0)" xlink:href="#ay"/><use transform="matrix(0.05,0,0,0.05,24.95,0)" xlink:href="#ay"/><use transform="matrix(0.05,0,0,0.05,28.899999999999995,0)" xlink:href="#az"/><use transform="matrix(0.05,0,0,0.05,38.9,0)" xlink:href="#aG"/></g><g id="W"><use transform="matrix(0.05,0,0,0.05,0,0)" xlink:href="#aM"/><use transform="matrix(0.05,0,0,0.05,10,0)" xlink:href="#aw"/></g><g id="X"><use transform="matrix(0.05,0,0,0.05,0,0)" xlink:href="#aS"/><use transform="matrix(0.05,0,0,0.05,10,0)" xlink:href="#aJ"/><use transform="matrix(0.05,0,0,0.05,20,0)" xlink:href="#aG"/><use transform="matrix(0.05,0,0,0.05,29,0)" xlink:href="#az"/><use transform="matrix(0.05,0,0,0.05,39,0)" xlink:href="#aA"/><use transform="matrix(0.05,0,0,0.05,44.95,0)" xlink:href="#az"/><use transform="matrix(0.05,0,0,0.05,54.95,0)" xlink:href="#aC"/></g><g id="Y"><use transform="matrix(0.05,0,0,0.05,0,0)" xlink:href="#aw"/><use transform="matrix(0.05,0,0,0.05,10,0)" xlink:href="#bb"/></g><g id="Z"><use transform="matrix(0.05,0,0,0.05,0,0)" xlink:href="#aG"/><use transform="matrix(0.05,0,0,0.05,9,0)" xlink:href="#aw"/><use transform="matrix(0.05,0,0,0.05,19,0)" xlink:href="#az"/><use transform="matrix(0.05,0,0,0.05,29,0)" xlink:href="#bd"/><use transform="matrix(0.05,0,0,0.05,38,0)" xlink:href="#ax"/><use transform="matrix(0.05,0,0,0.05,41.95,0)" xlink:href="#aR"/><use transform="matrix(0.05,0,0,0.05,46.95,0)" xlink:href="#ax"/><use transform="matrix(0.05,0,0,0.05,50.900000000000006,0)" xlink:href="#aE"/><use transform="matrix(0.05,0,0,0.05,59.900000000000006,0)" xlink:href="#aC"/></g><g id="aa"><use transform="matrix(0.05,0,0,0.05,0,0)" xlink:href="#aO"/><use transform="matrix(0.05,0,0,0.05,14.950000000000001,0)" xlink:href="#ax"/><use transform="matrix(0.05,0,0,0.05,18.900000000000002,0)" xlink:href="#aB"/><use transform="matrix(0.05,0,0,0.05,28.900000000000002,0)" xlink:href="#az"/><use transform="matrix(0.05,0,0,0.05,38.900000000000006,0)" xlink:href="#aA"/><use transform="matrix(0.05,0,0,0.05,44.85000000000001,0)" xlink:href="#aJ"/><use transform="matrix(0.05,0,0,0.05,54.85,0)" xlink:href="#ay"/></g><path d="M30-248c87 1 191-15 191 75 0 78-77 80-158 76V0H30v-248zm33 125c57 0 124 11 124-50 0-59-68-47-124-48v98" id="be"/><g id="ab"><use transform="matrix(0.05,0,0,0.05,0,0)" xlink:href="#be"/><use transform="matrix(0.05,0,0,0.05,12,0)" xlink:href="#ay"/><use transform="matrix(0.05,0,0,0.05,15.949999999999998,0)" xlink:href="#aJ"/><use transform="matrix(0.05,0,0,0.05,25.950000000000003,0)" xlink:href="#aD"/><use transform="matrix(0.05,0,0,0.05,34.95,0)" xlink:href="#az"/><use transform="matrix(0.05,0,0,0.05,44.95,0)" xlink:href="#aA"/></g><g id="ac"><use transform="matrix(0.05,0,0,0.05,0,0)" xlink:href="#aJ"/><use transform="matrix(0.05,0,0,0.05,10,0)" xlink:href="#aA"/><use transform="matrix(0.05,0,0,0.05,15.949999999999998,0)" xlink:href="#aO"/></g><g id="ad"><use transform="matrix(0.05,0,0,0.05,0,0)" xlink:href="#aG"/><use transform="matrix(0.05,0,0,0.05,9,0)" xlink:href="#aC"/><use transform="matrix(0.05,0,0,0.05,14,0)" xlink:href="#aJ"/><use transform="matrix(0.05,0,0,0.05,24,0)" xlink:href="#aB"/><use transform="matrix(0.05,0,0,0.05,34,0)" xlink:href="#aI"/><use transform="matrix(0.05,0,0,0.05,44,0)" xlink:href="#aJ"/><use transform="matrix(0.05,0,0,0.05,54,0)" xlink:href="#aA"/><use transform="matrix(0.05,0,0,0.05,59.95,0)" xlink:href="#aI"/><use transform="matrix(0.05,0,0,0.05,69.95,0)" xlink:href="#aw"/><use transform="matrix(0.05,0,0,0.05,79.95,0)" xlink:href="#aM"/><use transform="matrix(0.05,0,0,0.05,89.95,0)" xlink:href="#aG"/><use transform="matrix(0.05,0,0,0.05,98.95,0)" xlink:href="#ax"/><use transform="matrix(0.05,0,0,0.05,102.9,0)" xlink:href="#aC"/><use transform="matrix(0.05,0,0,0.05,107.9,0)" xlink:href="#ax"/><use transform="matrix(0.05,0,0,0.05,111.85000000000001,0)" xlink:href="#aM"/><use transform="matrix(0.05,0,0,0.05,121.85000000000001,0)" xlink:href="#aB"/></g><path d="M30 0v-248h187v28H63v79h144v27H63v87h162V0H30" id="bf"/><g id="ae"><use transform="matrix(0.05,0,0,0.05,0,0)" xlink:href="#bf"/><use transform="matrix(0.05,0,0,0.05,12,0)" xlink:href="#aA"/></g><g id="af"><use transform="matrix(0.05,0,0,0.05,0,0)" xlink:href="#aI"/><use transform="matrix(0.05,0,0,0.05,10,0)" xlink:href="#az"/><use transform="matrix(0.05,0,0,0.05,20,0)" xlink:href="#aA"/></g><g id="ag"><use transform="matrix(0.05,0,0,0.05,0,0)" xlink:href="#aR"/><use transform="matrix(0.05,0,0,0.05,5,0)" xlink:href="#ay"/><use transform="matrix(0.05,0,0,0.05,8.95,0)" xlink:href="#az"/><use transform="matrix(0.05,0,0,0.05,18.95,0)" xlink:href="#aA"/><use transform="matrix(0.05,0,0,0.05,24.9,0)" xlink:href="#az"/></g><g id="ah"><use transform="matrix(0.05,0,0,0.05,0,0)" xlink:href="#aU"/><use transform="matrix(0.05,0,0,0.05,14.950000000000001,0)" xlink:href="#ax"/><use transform="matrix(0.05,0,0,0.05,18.900000000000002,0)" xlink:href="#aB"/><use transform="matrix(0.05,0,0,0.05,28.900000000000002,0)" xlink:href="#az"/><use transform="matrix(0.05,0,0,0.05,38.900000000000006,0)" xlink:href="#aA"/><use transform="matrix(0.05,0,0,0.05,44.85000000000001,0)" xlink:href="#aJ"/><use transform="matrix(0.05,0,0,0.05,54.85,0)" xlink:href="#ay"/></g><g id="ai"><use transform="matrix(0.05,0,0,0.05,0,0)" xlink:href="#aM"/><use transform="matrix(0.05,0,0,0.05,10,0)" xlink:href="#aS"/><use transform="matrix(0.05,0,0,0.05,20,0)" xlink:href="#aV"/><use transform="matrix(0.05,0,0,0.05,23.95,0)" xlink:href="#az"/><use transform="matrix(0.05,0,0,0.05,33.95,0)" xlink:href="#aE"/><use transform="matrix(0.05,0,0,0.05,42.95,0)" xlink:href="#aC"/><use transform="matrix(0.05,0,0,0.05,47.95,0)" xlink:href="#az"/><use transform="matrix(0.05,0,0,0.05,57.95,0)" xlink:href="#aA"/><use transform="matrix(0.05,0,0,0.05,63.900000000000006,0)" xlink:href="#aW"/></g><path d="M137-103V0h-34v-103L8-248h37l75 118 75-118h37" id="bg"/><g id="aj"><use transform="matrix(0.05,0,0,0.05,0,0)" xlink:href="#bg"/><use transform="matrix(0.05,0,0,0.05,10.35,0)" xlink:href="#az"/><use transform="matrix(0.05,0,0,0.05,20.35,0)" xlink:href="#aG"/></g><path d="M143 4C61 4 22-44 18-125c-5-107 100-154 193-111 17 8 29 25 37 43l-32 9c-13-25-37-40-76-40-61 0-88 39-88 99 0 61 29 100 91 101 35 0 62-11 79-27v-45h-74v-28h105v86C228-13 192 4 143 4" id="bh"/><g id="ak"><use transform="matrix(0.05,0,0,0.05,0,0)" xlink:href="#bh"/><use transform="matrix(0.05,0,0,0.05,14,0)" xlink:href="#aJ"/><use transform="matrix(0.05,0,0,0.05,24,0)" xlink:href="#aO"/><use transform="matrix(0.05,0,0,0.05,38.95,0)" xlink:href="#az"/></g><g id="al"><use transform="matrix(0.05,0,0,0.05,0,0)" xlink:href="#ay"/><use transform="matrix(0.05,0,0,0.05,3.95,0)" xlink:href="#aM"/><use transform="matrix(0.05,0,0,0.05,13.949999999999998,0)" xlink:href="#aM"/><use transform="matrix(0.05,0,0,0.05,23.95,0)" xlink:href="#aw"/></g><g id="am"><use transform="matrix(0.05,0,0,0.05,0,0)" xlink:href="#aG"/><use transform="matrix(0.05,0,0,0.05,9,0)" xlink:href="#aC"/><use transform="matrix(0.05,0,0,0.05,14,0)" xlink:href="#aM"/><use transform="matrix(0.05,0,0,0.05,24,0)" xlink:href="#aw"/><use transform="matrix(0.05,0,0,0.05,34,0)" xlink:href="#aw"/><use transform="matrix(0.05,0,0,0.05,44,0)" xlink:href="#az"/><use transform="matrix(0.05,0,0,0.05,54,0)" xlink:href="#aG"/></g><path d="M190 0L58-211 59 0H30v-248h39L202-35l-2-213h31V0h-41" id="bi"/><g id="an"><use transform="matrix(0.05,0,0,0.05,0,0)" xlink:href="#bi"/><use transform="matrix(0.05,0,0,0.05,12.950000000000001,0)" xlink:href="#aM"/></g><path d="M212-179c-10-28-35-45-73-45-59 0-87 40-87 99 0 60 29 101 89 101 43 0 62-24 78-52l27 14C228-24 195 4 139 4 59 4 22-46 18-125c-6-104 99-153 187-111 19 9 31 26 39 46" id="bj"/><g id="ao"><use transform="matrix(0.05,0,0,0.05,0,0)" xlink:href="#aO"/><use transform="matrix(0.05,0,0,0.05,14.950000000000001,0)" xlink:href="#ax"/><use transform="matrix(0.05,0,0,0.05,18.900000000000002,0)" xlink:href="#aB"/><use transform="matrix(0.05,0,0,0.05,28.900000000000002,0)" xlink:href="#az"/><use transform="matrix(0.05,0,0,0.05,38.900000000000006,0)" xlink:href="#aA"/><use transform="matrix(0.05,0,0,0.05,44.85000000000001,0)" xlink:href="#aJ"/><use transform="matrix(0.05,0,0,0.05,54.85,0)" xlink:href="#ay"/><use transform="matrix(0.05,0,0,0.05,58.80000000000001,0)" xlink:href="#bj"/><use transform="matrix(0.05,0,0,0.05,71.75000000000001,0)" xlink:href="#aM"/><use transform="matrix(0.05,0,0,0.05,81.75000000000001,0)" xlink:href="#ay"/><use transform="matrix(0.05,0,0,0.05,85.70000000000002,0)" xlink:href="#ay"/><use transform="matrix(0.05,0,0,0.05,89.65000000000002,0)" xlink:href="#ax"/><use transform="matrix(0.05,0,0,0.05,93.60000000000002,0)" xlink:href="#aG"/><use transform="matrix(0.05,0,0,0.05,102.60000000000002,0)" xlink:href="#ax"/><use transform="matrix(0.05,0,0,0.05,106.55000000000003,0)" xlink:href="#aM"/><use transform="matrix(0.05,0,0,0.05,116.55000000000003,0)" xlink:href="#aB"/><use transform="matrix(0.05,0,0,0.05,126.55000000000003,0)" xlink:href="#aK"/><use transform="matrix(0.05,0,0,0.05,132.50000000000003,0)" xlink:href="#aL"/></g><g id="ap"><use transform="matrix(0.05,0,0,0.05,0,0)" xlink:href="#aE"/><use transform="matrix(0.05,0,0,0.05,9,0)" xlink:href="#aJ"/><use transform="matrix(0.05,0,0,0.05,19,0)" xlink:href="#ay"/><use transform="matrix(0.05,0,0,0.05,22.95,0)" xlink:href="#aI"/><use transform="matrix(0.05,0,0,0.05,32.95,0)" xlink:href="#az"/><use transform="matrix(0.05,0,0,0.05,42.95,0)" xlink:href="#aG"/></g><g id="aq"><use transform="matrix(0.05,0,0,0.05,0,0)" xlink:href="#bg"/><use transform="matrix(0.05,0,0,0.05,10.35,0)" xlink:href="#az"/><use transform="matrix(0.05,0,0,0.05,20.35,0)" xlink:href="#aG"/></g><path d="M33 0v-38h34V0H33" id="bk"/><g id="ar"><use transform="matrix(0.05,0,0,0.05,0,0)" xlink:href="#aw"/><use transform="matrix(0.05,0,0,0.05,10,0)" xlink:href="#ay"/><use transform="matrix(0.05,0,0,0.05,13.949999999999998,0)" xlink:href="#aJ"/><use transform="matrix(0.05,0,0,0.05,23.95,0)" xlink:href="#aD"/><use transform="matrix(0.05,0,0,0.05,32.95,0)" xlink:href="#az"/><use transform="matrix(0.05,0,0,0.05,42.95,0)" xlink:href="#aA"/><use transform="matrix(0.05,0,0,0.05,47.900000000000006,0)" xlink:href="#bk"/><use transform="matrix(0.05,0,0,0.05,52.900000000000006,0)" xlink:href="#aN"/><use transform="matrix(0.05,0,0,0.05,62.900000000000006,0)" xlink:href="#aA"/><use transform="matrix(0.05,0,0,0.05,68.85000000000001,0)" xlink:href="#aJ"/><use transform="matrix(0.05,0,0,0.05,78.85000000000001,0)" xlink:href="#aw"/><use transform="matrix(0.05,0,0,0.05,88.85000000000001,0)" xlink:href="#aK"/><use transform="matrix(0.05,0,0,0.05,94.80000000000001,0)" xlink:href="#aL"/></g><path d="M33 0v-248h34V0H33" id="bl"/><g id="as"><use transform="matrix(0.05,0,0,0.05,0,0)" xlink:href="#bl"/><use transform="matrix(0.05,0,0,0.05,5,0)" xlink:href="#aB"/><use transform="matrix(0.05,0,0,0.05,15,0)" xlink:href="#aN"/><use transform="matrix(0.05,0,0,0.05,25,0)" xlink:href="#az"/><use transform="matrix(0.05,0,0,0.05,35,0)" xlink:href="#aB"/><use transform="matrix(0.05,0,0,0.05,45,0)" xlink:href="#aC"/><use transform="matrix(0.05,0,0,0.05,50,0)" xlink:href="#ax"/><use transform="matrix(0.05,0,0,0.05,53.95,0)" xlink:href="#aB"/><use transform="matrix(0.05,0,0,0.05,63.95,0)" xlink:href="#aN"/></g><g id="at"><use transform="matrix(0.05,0,0,0.05,0,0)" xlink:href="#bi"/><use transform="matrix(0.05,0,0,0.05,12.950000000000001,0)" xlink:href="#aM"/></g><path d="M140-251c81 0 123 46 123 126C263-46 219 4 140 4 59 4 17-45 17-125s42-126 123-126zm0 227c63 0 89-41 89-101s-29-99-89-99c-61 0-89 39-89 99S79-25 140-24" id="bm"/><g id="au"><use transform="matrix(0.05,0,0,0.05,0,0)" xlink:href="#bm"/><use transform="matrix(0.05,0,0,0.05,14,0)" xlink:href="#aw"/><use transform="matrix(0.05,0,0,0.05,24,0)" xlink:href="#aC"/><use transform="matrix(0.05,0,0,0.05,29,0)" xlink:href="#ax"/><use transform="matrix(0.05,0,0,0.05,32.95,0)" xlink:href="#aM"/><use transform="matrix(0.05,0,0,0.05,42.95,0)" xlink:href="#aB"/></g></defs></g></svg>