<svg xmlns="http://www.w3.org/2000/svg" xmlns:xlink="http://www.w3.org/1999/xlink" xmlns:lucid="lucid" width="1349" height="2535"><g transform="translate(0 -1810)" lucid:page-tab-id="0_0"><path d="M620 1870.4h120l40 60-40 60H620l-40-60z" stroke="#000" stroke-width="2" fill="#a3d977"/><use xlink:href="#a" transform="matrix(1,0,0,1,585,1875.3999999999999) translate(26.174999999999983 15.399999999999993)"/><use xlink:href="#b" transform="matrix(1,0,0,1,585,1875.3999999999999) translate(101.925 15.399999999999993)"/><use xlink:href="#c" transform="matrix(1,0,0,1,585,1875.3999999999999) translate(69.55 36.99999999999999)"/><use xlink:href="#d" transform="matrix(1,0,0,1,585,1875.3999999999999) translate(76.025 58.599999999999994)"/><use xlink:href="#e" transform="matrix(1,0,0,1,585,1875.3999999999999) translate(71.5 80.20000000000002)"/><use xlink:href="#f" transform="matrix(1,0,0,1,585,1875.3999999999999) translate(71.525 101.80000000000001)"/><path d="M410 2060h160v120H410z" stroke="#000" stroke-width="2" fill="#a3d977"/><use xlink:href="#g" transform="matrix(1,0,0,1,415,2065) translate(22.549999999999997 48.775)"/><use xlink:href="#h" transform="matrix(1,0,0,1,415,2065) translate(56.55 48.775)"/><use xlink:href="#i" transform="matrix(1,0,0,1,415,2065) translate(76.55 48.775)"/><use xlink:href="#j" transform="matrix(1,0,0,1,415,2065) translate(51.025 70.375)"/><path d="M600 2060h160v120H600z" stroke="#000" stroke-width="2" fill="#a3d977"/><use xlink:href="#k" transform="matrix(1,0,0,1,605,2065) translate(2.5999999999999943 38.4625)"/><use xlink:href="#l" transform="matrix(1,0,0,1,605,2065) translate(36.599999999999994 38.4625)"/><use xlink:href="#m" transform="matrix(1,0,0,1,605,2065) translate(112.44999999999999 38.4625)"/><use xlink:href="#n" transform="matrix(1,0,0,1,605,2065) translate(17.525 60.0625)"/><use xlink:href="#o" transform="matrix(1,0,0,1,605,2065) translate(69.525 60.0625)"/><use xlink:href="#p" transform="matrix(1,0,0,1,605,2065) translate(94.525 60.0625)"/><use xlink:href="#q" transform="matrix(1,0,0,1,605,2065) translate(43.05 81.66250000000001)"/><path d="M680 1992.4v32.8H490v15.3" stroke="#000" stroke-width="2" fill="none"/><path d="M681 1992.43h-2v-1.03h2z"/><path d="M490 2055.76l-4.64-14.26h9.28z" stroke="#000" stroke-width="2"/><path d="M680 1992.4v48.1" stroke="#000" stroke-width="2" fill="none"/><path d="M681 1992.43h-2v-1.03h2z"/><path d="M680 2055.76l-4.64-14.26h9.28z" stroke="#000" stroke-width="2"/><path d="M640.35 2655.5l80 60-80 60-80-60z" stroke="#000" stroke-width="2" fill="#ffc374"/><use xlink:href="#r" transform="matrix(1,0,0,1,565.3499999999885,2660.5000000000236) translate(43.555 32.410000000000004)"/><use xlink:href="#s" transform="matrix(1,0,0,1,565.3499999999885,2660.5000000000236) translate(46.105000000000004 54.01)"/><use xlink:href="#t" transform="matrix(1,0,0,1,565.3499999999885,2660.5000000000236) translate(32.62999999999999 75.61)"/><path d="M320 2655.5h160v120H320z" stroke="#000" stroke-width="2" fill="#3aa6dd"/><path d="M336 2655.5v120m128-120v120" stroke="#000" stroke-width="2" fill="none"/><use xlink:href="#u" transform="matrix(1,0,0,1,345,2660.5000000000236) translate(23.574999999999996 26.19999999999999)"/><use xlink:href="#v" transform="matrix(1,0,0,1,345,2660.5000000000236) translate(11.599999999999994 47.79999999999999)"/><use xlink:href="#w" transform="matrix(1,0,0,1,345,2660.5000000000236) translate(69.4 47.79999999999999)"/><use xlink:href="#x" transform="matrix(1,0,0,1,345,2660.5000000000236) translate(7.125 69.39999999999999)"/><use xlink:href="#y" transform="matrix(1,0,0,1,345,2660.5000000000236) translate(89.97500000000001 69.39999999999999)"/><use xlink:href="#z" transform="matrix(1,0,0,1,345,2660.5000000000236) translate(23.049999999999997 91)"/><path d="M213.55 3040c17.67 0 32 17.9 32 40s-14.33 40-32 40h-96c-17.67 0-32-17.9-32-40s14.33-40 32-40z" stroke="#000" stroke-width="2" fill="#c92d39"/><use xlink:href="#A" transform="matrix(1,0,0,1,90.54999999988684,3045) translate(11.574999999999996 38.4625)"/><use xlink:href="#B" transform="matrix(1,0,0,1,90.54999999988684,3045) translate(54.525 38.4625)"/><use xlink:href="#C" transform="matrix(1,0,0,1,90.54999999988684,3045) translate(104.475 38.4625)"/><path d="M310.5 3203.25h330v100.6h-330z" stroke="#000" stroke-width="2" fill="#3aa6dd"/><use xlink:href="#D" transform="matrix(1,0,0,1,315.49999999989683,3208.2499999999764) translate(0.19999999999998863 28.61875)"/><use xlink:href="#E" transform="matrix(1,0,0,1,315.49999999989683,3208.2499999999764) translate(56.099999999999994 28.61875)"/><use xlink:href="#F" transform="matrix(1,0,0,1,315.49999999989683,3208.2499999999764) translate(123 28.61875)"/><use xlink:href="#G" transform="matrix(1,0,0,1,315.49999999989683,3208.2499999999764) translate(207.95 28.61875)"/><use xlink:href="#H" transform="matrix(1,0,0,1,315.49999999989683,3208.2499999999764) translate(247.89999999999998 28.61875)"/><use xlink:href="#I" transform="matrix(1,0,0,1,315.49999999989683,3208.2499999999764) translate(31.200000000000017 50.21875)"/><use xlink:href="#J" transform="matrix(1,0,0,1,315.49999999989683,3208.2499999999764) translate(66.15000000000002 50.21875)"/><use xlink:href="#K" transform="matrix(1,0,0,1,315.49999999989683,3208.2499999999764) translate(96.10000000000002 50.21875)"/><use xlink:href="#L" transform="matrix(1,0,0,1,315.49999999989683,3208.2499999999764) translate(117.05000000000003 50.21875)"/><use xlink:href="#M" transform="matrix(1,0,0,1,315.49999999989683,3208.2499999999764) translate(179.95000000000002 50.21875)"/><use xlink:href="#N" transform="matrix(1,0,0,1,315.49999999989683,3208.2499999999764) translate(228.9 50.21875)"/><use xlink:href="#O" transform="matrix(1,0,0,1,315.49999999989683,3208.2499999999764) translate(263.85 50.21875)"/><use xlink:href="#P" transform="matrix(1,0,0,1,315.49999999989683,3208.2499999999764) translate(69.14999999999999 71.81875000000001)"/><use xlink:href="#Q" transform="matrix(1,0,0,1,315.49999999989683,3208.2499999999764) translate(132.05 71.81875000000001)"/><use xlink:href="#R" transform="matrix(1,0,0,1,315.49999999989683,3208.2499999999764) translate(172.95 71.81875000000001)"/><use xlink:href="#S" transform="matrix(1,0,0,1,315.49999999989683,3208.2499999999764) translate(197.95 71.81875000000001)"/><path d="M310.5 3333.25h160v120h-160z" stroke="#000" stroke-width="2" fill="#3aa6dd"/><use xlink:href="#D" transform="matrix(1,0,0,1,315.4999999998969,3338.249999999988) translate(6.599999999999994 48.775)"/><use xlink:href="#T" transform="matrix(1,0,0,1,315.4999999998969,3338.249999999988) translate(62.5 48.775)"/><use xlink:href="#U" transform="matrix(1,0,0,1,315.4999999998969,3338.249999999988) translate(108.45 48.775)"/><use xlink:href="#V" transform="matrix(1,0,0,1,315.4999999998969,3338.249999999988) translate(41.099999999999994 70.375)"/><path d="M310.5 3482.65h160v120h-160z" stroke="#000" stroke-width="2" fill="#3aa6dd"/><use xlink:href="#D" transform="matrix(1,0,0,1,315.4999999998969,3487.6499999999996) translate(21.599999999999994 38.4625)"/><use xlink:href="#W" transform="matrix(1,0,0,1,315.4999999998969,3487.6499999999996) translate(77.5 38.4625)"/><use xlink:href="#X" transform="matrix(1,0,0,1,315.4999999998969,3487.6499999999996) translate(41.025 60.0625)"/><use xlink:href="#Y" transform="matrix(1,0,0,1,315.4999999998969,3487.6499999999996) translate(93.975 60.0625)"/><use xlink:href="#Z" transform="matrix(1,0,0,1,315.4999999998969,3487.6499999999996) translate(27.099999999999994 81.66250000000001)"/><path d="M790 2060h160v120H790z" stroke="#000" stroke-width="2" fill="#a3d977"/><use xlink:href="#g" transform="matrix(1,0,0,1,795,2065) translate(24.525 48.775)"/><use xlink:href="#h" transform="matrix(1,0,0,1,795,2065) translate(58.525 48.775)"/><use xlink:href="#aa" transform="matrix(1,0,0,1,795,2065) translate(78.525 48.775)"/><use xlink:href="#j" transform="matrix(1,0,0,1,795,2065) translate(51.025 70.375)"/><path d="M1120 4137.75h160v120h-160z" stroke="#000" stroke-width="2" fill="#a3d977"/><use xlink:href="#ab" transform="matrix(1,0,0,1,1125,4142.7499999999645) translate(22.599999999999994 38.4625)"/><use xlink:href="#ac" transform="matrix(1,0,0,1,1125,4142.7499999999645) translate(84.55 38.4625)"/><use xlink:href="#ad" transform="matrix(1,0,0,1,1125,4142.7499999999645) translate(19.075000000000003 60.0625)"/><use xlink:href="#ae" transform="matrix(1,0,0,1,1125,4142.7499999999645) translate(86.925 60.0625)"/><use xlink:href="#af" transform="matrix(1,0,0,1,1125,4142.7499999999645) translate(111.925 60.0625)"/><use xlink:href="#ag" transform="matrix(1,0,0,1,1125,4142.7499999999645) translate(37.025 81.66250000000001)"/><path d="M85.55 4157.67l160-19.92v120h-160z" stroke="#000" stroke-width="2" fill="#de5f85"/><use xlink:href="#ah" transform="matrix(1,0,0,1,90.54999999988684,4162.7499999999645) translate(10.649999999999991 36.9)"/><use xlink:href="#ai" transform="matrix(1,0,0,1,90.54999999988684,4162.7499999999645) translate(85.45 36.9)"/><use xlink:href="#aj" transform="matrix(1,0,0,1,90.54999999988684,4162.7499999999645) translate(66.6 58.5)"/><path d="M600 2270.4h160v120H600z" stroke="#000" stroke-width="2" fill="#a3d977"/><use xlink:href="#ak" transform="matrix(1,0,0,1,605,2275.4) translate(17.525 38.4625)"/><use xlink:href="#o" transform="matrix(1,0,0,1,605,2275.4) translate(69.525 38.4625)"/><use xlink:href="#al" transform="matrix(1,0,0,1,605,2275.4) translate(94.525 38.4625)"/><use xlink:href="#am" transform="matrix(1,0,0,1,605,2275.4) translate(5.699999999999989 60.0625)"/><use xlink:href="#an" transform="matrix(1,0,0,1,605,2275.4) translate(74.6 60.0625)"/><use xlink:href="#ao" transform="matrix(1,0,0,1,605,2275.4) translate(131.4 60.0625)"/><use xlink:href="#ap" transform="matrix(1,0,0,1,605,2275.4) translate(39.575 81.66250000000001)"/><path d="M46.3 2270.4h160v120h-160z" stroke="#000" stroke-width="2" fill="#3aa6dd"/><use xlink:href="#aq" transform="matrix(1,0,0,1,51.29999999997733,2275.4) translate(-0.8250000000000028 58.6)"/><path d="M106.3 2000h160v120h-160z" stroke="#000" stroke-width="2" fill="#3aa6dd"/><use xlink:href="#ar" transform="matrix(1,0,0,1,111.30000000000098,2005) translate(18.074999999999996 59.0875)"/><use xlink:href="#as" transform="matrix(1,0,0,1,111.30000000000098,2005) translate(95.975 59.0875)"/><path d="M26.3 1940h320v240h-320z" stroke="#000" stroke-width="2" fill-opacity="0"/><use xlink:href="#at" transform="matrix(1,0,0,1,34.29999999997733,1948) translate(115.07499999999999 15.6)"/><path d="M266.3 2290.4h60l20 40-20 40h-60l-20-40z" stroke="#000" stroke-width="2" fill="#d1bcd2"/><use xlink:href="#au" transform="matrix(1,0,0,1,251.29999999997733,2295.4) translate(10.549999999999997 38.4625)"/><path d="M208.3 2330.4h18.38" stroke="#000" stroke-width="2" fill="none"/><path d="M208.33 2331.4h-1.03v-2h1.03z"/><path d="M241.95 2330.4l-14.27 4.64v-9.28z" stroke="#000" stroke-width="2"/><path d="M386.3 2270.4h160v120h-160z" stroke="#000" stroke-width="2" fill="#3aa6dd"/><use xlink:href="#av" transform="matrix(1,0,0,1,391.2999999999537,2275.4) translate(22.074999999999996 59.0875)"/><path d="M348.42 2330.4h18.38" stroke="#000" stroke-width="2" fill="none"/><path d="M348.44 2331.4h-1.52l.5-1-.5-1h1.52z"/><path d="M382.06 2330.4l-14.26 4.64v-9.28z" stroke="#000" stroke-width="2"/><path d="M680 2182v68.9" stroke="#000" stroke-width="2" fill="none"/><path d="M681 2182.03h-2V2181h2z"/><path d="M680 2266.16l-4.64-14.26h9.28z" stroke="#000" stroke-width="2"/><path d="M26.3 2230.4h938.1v199H26.3z" stroke="#000" stroke-width="2" fill-opacity="0"/><use xlink:href="#aw" transform="matrix(1,0,0,1,34.29999999997733,2238.3999999999996) translate(433.55 15.6)"/><path d="M680 1992.4v32.8h190v15.3" stroke="#000" stroke-width="2" fill="none"/><path d="M681 1992.43h-2v-1.03h2z"/><path d="M870 2055.76l-4.64-14.26h9.28z" stroke="#000" stroke-width="2"/><path d="M835.84 2280h66.42l22.14 44.95-22.14 44.95h-66.42l-22.14-44.95z" stroke="#000" stroke-width="2" fill="#d1bcd2"/><use xlink:href="#ax" transform="matrix(1,0,0,1,818.7000000000463,2285) translate(3.5049999999999972 36.410000000000004)"/><use xlink:href="#ay" transform="matrix(1,0,0,1,818.7000000000463,2285) translate(26.78 58.01)"/><use xlink:href="#az" transform="matrix(1,0,0,1,818.7000000000463,2285) translate(42.28 58.01)"/><path d="M515.37 2716.5H499.5v-2h15.87zm42.3 0h-12.95v-2h12.96z"/><path d="M558.68 2715.5l1.34 1h-2.36v-2h2.36zM498.5 2720.14l-14.26-4.64 14.26-4.64z"/><path d="M499.5 2721.5l-18.5-6 18.5-6zm-12.03-6l10.03 3.26v-6.52z"/><use xlink:href="#aA" transform="matrix(1,0,0,1,515.3744267834005,2704.7000000000235) translate(0 14.4)"/><path d="M420 2500h454.4v120H420z" stroke="#000" stroke-width="2" fill="#3aa6dd"/><path d="M465.44 2500v120m363.52-120v120" stroke="#000" stroke-width="2" fill="none"/><use xlink:href="#aB" transform="matrix(1,0,0,1,481.8000000000029,2505) translate(3.25 58.6)"/><use xlink:href="#aC" transform="matrix(1,0,0,1,481.8000000000029,2505) translate(112.05000000000001 58.6)"/><use xlink:href="#aC" transform="matrix(1,0,0,1,481.8000000000029,2505) translate(156 58.6)"/><use xlink:href="#aC" transform="matrix(1,0,0,1,481.8000000000029,2505) translate(199.95 58.6)"/><use xlink:href="#aC" transform="matrix(1,0,0,1,481.8000000000029,2505) translate(243.89999999999998 58.6)"/><use xlink:href="#aD" transform="matrix(1,0,0,1,481.8000000000029,2505) translate(287.84999999999997 58.6)"/><path d="M647.2 2622v15.63h-4.97" stroke="#000" stroke-width="2" fill="none"/><path d="M648.2 2622.03h-2V2621h2z"/><path d="M640.7 2651.03l-3-14.7 9.22 1.05z" stroke="#000" stroke-width="2"/><path d="M85.55 3203.25h160v120h-160z" stroke="#000" stroke-width="2" fill="#3aa6dd"/><use xlink:href="#av" transform="matrix(1,0,0,1,90.54999999988684,3208.2499999999764) translate(22.074999999999996 59.0875)"/><path d="M165.55 3122v61.75" stroke="#000" stroke-width="2" fill="none"/><path d="M166.55 3122.03h-2V3121h2z"/><path d="M165.55 3199l-4.64-14.25h9.3z" stroke="#000" stroke-width="2"/><path d="M165.55 2795.15l106.85 80.8-106.85 80.8-106.85-80.8z" stroke="#000" stroke-width="2" fill="#ffc374"/><use xlink:href="#aE" transform="matrix(1,0,0,1,63.6999999998755,2800.1499999999996) translate(49.605 57.15)"/><use xlink:href="#aF" transform="matrix(1,0,0,1,63.6999999998755,2800.1499999999996) translate(25.15499999999998 78.75)"/><use xlink:href="#aG" transform="matrix(1,0,0,1,63.6999999998755,2800.1499999999996) translate(54.15499999999998 78.75)"/><use xlink:href="#aH" transform="matrix(1,0,0,1,63.6999999998755,2800.1499999999996) translate(103.10499999999999 78.75)"/><use xlink:href="#aI" transform="matrix(1,0,0,1,63.6999999998755,2800.1499999999996) translate(49.330000000000005 100.35)"/><use xlink:href="#ay" transform="matrix(1,0,0,1,63.6999999998755,2800.1499999999996) translate(107.23 100.35)"/><use xlink:href="#az" transform="matrix(1,0,0,1,63.6999999998755,2800.1499999999996) translate(122.73 100.35)"/><path d="M266.3 2460h698.1v340H266.3z" stroke="#000" stroke-width="2" fill-opacity="0"/><use xlink:href="#aJ" transform="matrix(1,0,0,1,274.300000000001,2468) translate(275.525 15.6)"/><use xlink:href="#aK" transform="matrix(1,0,0,1,274.300000000001,2468) translate(373.525 15.6)"/><path d="M680 2392.4v52.8h39.4v35.3" stroke="#000" stroke-width="2" fill="none"/><path d="M681 2392.43h-2v-1.03h2z"/><path d="M719.4 2495.76l-4.63-14.26h9.27z" stroke="#000" stroke-width="2"/><path d="M166.55 2792.9h-2v-169.95h2zm-6.1-191.55h-2V2448.9h2z"/><path d="M166.55 2794.65l-1-.75-1 .75v-1.78h2zM164.1 2447.9h-9.3l4.65-14.26z"/><path d="M165.46 2448.9h-12.02l6-18.5zm-9.27-2h6.5l-3.25-10.03z"/><use xlink:href="#aA" transform="matrix(1,0,0,1,147.82499999993308,2601.3481350096263) translate(0 14.4)"/><path d="M495.33 2876.95H292.56v-2h202.77zm146.02 0H518.28v-2h121.07v-97.2h2z"/><path d="M641.35 2777.78h-2V2776l1 .75 1-.75zM291.56 2880.6l-14.27-4.65 14.26-4.64z"/><path d="M292.56 2881.96l-18.5-6 18.5-6.02zm-12.03-6l10.03 3.25v-6.5z"/><use xlink:href="#aL" transform="matrix(1,0,0,1,495.3289668838488,2865.1500000000115) translate(0 14.4)"/><path d="M166.55 3020.5h-2v-11.2h2zm0-32.8h-2V2959h2z"/><path d="M166.55 2959.03h-2v-1.78l1 .75 1-.75zM165.55 3035.76l-4.64-14.26h9.3z"/><path d="M165.55 3039l-6-18.5h12zm-3.26-16.5l3.25 10.03 3.26-10.03z"/><use xlink:href="#aL" transform="matrix(1,0,0,1,154.0749999998815,2987.7018649903725) translate(0 14.4)"/><path d="M165.55 3122v13.25H266.1v121.95H291" stroke="#000" stroke-width="2" fill="none"/><path d="M166.55 3122.03h-2V3121h2z"/><path d="M306.26 3257.2l-14.26 4.64v-9.28z" stroke="#000" stroke-width="2"/><path d="M165.55 3122v13.25H266.1v258H291" stroke="#000" stroke-width="2" fill="none"/><path d="M166.55 3122.03h-2V3121h2z"/><path d="M306.26 3393.25L292 3397.9v-9.3z" stroke="#000" stroke-width="2"/><path d="M165.55 3122v11.25H266.1v409.4H291" stroke="#000" stroke-width="2" fill="none"/><path d="M166.55 3122.03h-2V3121h2z"/><path d="M306.26 3542.65L292 3547.3v-9.3z" stroke="#000" stroke-width="2"/><path d="M690.7 3203.25h160v120h-160z" stroke="#000" stroke-width="2" fill="#3aa6dd"/><g><use xlink:href="#aM" transform="matrix(1,0,0,1,695.699999999977,3208.2499999999764) translate(6.074999999999989 48.775)"/><use xlink:href="#aN" transform="matrix(1,0,0,1,695.699999999977,3208.2499999999764) translate(11.074999999999989 48.775)"/><use xlink:href="#aO" transform="matrix(1,0,0,1,695.699999999977,3208.2499999999764) translate(63.02499999999999 48.775)"/><use xlink:href="#m" transform="matrix(1,0,0,1,695.699999999977,3208.2499999999764) translate(108.975 48.775)"/><use xlink:href="#aP" transform="matrix(1,0,0,1,695.699999999977,3208.2499999999764) translate(41.099999999999994 70.375)"/></g><path d="M165.55 3122v11.25H770.7v50.5" stroke="#000" stroke-width="2" fill="none"/><path d="M166.55 3122.03h-2V3121h2z"/><path d="M770.7 3199l-4.64-14.25h9.28z" stroke="#000" stroke-width="2"/><path d="M900.9 3203.25h160v120h-160z" stroke="#000" stroke-width="2" fill="#a3d977"/><g><use xlink:href="#aM" transform="matrix(1,0,0,1,905.900000000057,3208.2499999999764) translate(19.124999999999993 38.4625)"/><use xlink:href="#aQ" transform="matrix(1,0,0,1,905.900000000057,3208.2499999999764) translate(24.124999999999993 38.4625)"/><use xlink:href="#aR" transform="matrix(1,0,0,1,905.900000000057,3208.2499999999764) translate(50.07499999999999 38.4625)"/><use xlink:href="#aS" transform="matrix(1,0,0,1,905.900000000057,3208.2499999999764) translate(89.025 38.4625)"/><use xlink:href="#aT" transform="matrix(1,0,0,1,905.900000000057,3208.2499999999764) translate(26.075000000000003 60.0625)"/><use xlink:href="#aU" transform="matrix(1,0,0,1,905.900000000057,3208.2499999999764) translate(96.025 60.0625)"/><use xlink:href="#aV" transform="matrix(1,0,0,1,905.900000000057,3208.2499999999764) translate(11.149999999999991 81.66250000000001)"/><use xlink:href="#q" transform="matrix(1,0,0,1,905.900000000057,3208.2499999999764) translate(74.95 81.66250000000001)"/></g><path d="M165.55 3122v11.25H980.9v50.5" stroke="#000" stroke-width="2" fill="none"/><path d="M166.55 3122.03h-2V3121h2z"/><path d="M980.9 3199l-4.64-14.25h9.28z" stroke="#000" stroke-width="2"/><path d="M800.9 3383.25h160v120h-160z" stroke="#000" stroke-width="2" fill="#3aa6dd"/><g><use xlink:href="#aW" transform="matrix(1,0,0,1,805.9000000000334,3388.2499999999764) translate(14.649999999999991 48.775)"/><use xlink:href="#aX" transform="matrix(1,0,0,1,805.9000000000334,3388.2499999999764) translate(94.4 48.775)"/><use xlink:href="#aY" transform="matrix(1,0,0,1,805.9000000000334,3388.2499999999764) translate(21.124999999999993 70.375)"/><use xlink:href="#aP" transform="matrix(1,0,0,1,805.9000000000334,3388.2499999999764) translate(61.074999999999996 70.375)"/></g><path d="M980.9 3325.25v28h-100v10.5" stroke="#000" stroke-width="2" fill="none"/><path d="M981.9 3325.28h-2v-1.03h2z"/><path d="M880.9 3379l-4.64-14.25h9.28z" stroke="#000" stroke-width="2"/><path d="M1000.9 3383.25h160v120h-160z" stroke="#000" stroke-width="2" fill="#3aa6dd"/><g><use xlink:href="#aZ" transform="matrix(1,0,0,1,1005.9000000000569,3388.2499999999764) translate(24.624999999999993 17.8375)"/><use xlink:href="#ba" transform="matrix(1,0,0,1,1005.9000000000569,3388.2499999999764) translate(29.049999999999997 39.4375)"/><use xlink:href="#m" transform="matrix(1,0,0,1,1005.9000000000569,3388.2499999999764) translate(86 39.4375)"/><use xlink:href="#bb" transform="matrix(1,0,0,1,1005.9000000000569,3388.2499999999764) translate(11.724999999999987 61.0375)"/><use xlink:href="#bc" transform="matrix(1,0,0,1,1005.9000000000569,3388.2499999999764) translate(35.075 82.63750000000002)"/><use xlink:href="#bd" transform="matrix(1,0,0,1,1005.9000000000569,3388.2499999999764) translate(80.975 82.63750000000002)"/><use xlink:href="#be" transform="matrix(1,0,0,1,1005.9000000000569,3388.2499999999764) translate(34.55 104.23750000000001)"/></g><path d="M980.9 3325.25v28h100v10.5" stroke="#000" stroke-width="2" fill="none"/><path d="M981.9 3325.28h-2v-1.03h2z"/><path d="M1080.9 3379l-4.64-14.25h9.28z" stroke="#000" stroke-width="2"/><path d="M840.9 3563.25h160v120h-160z" stroke="#000" stroke-width="2" fill="#a3d977"/><g><use xlink:href="#bf" transform="matrix(1,0,0,1,845.900000000057,3568.2499999999764) translate(18.64999999999999 38.4625)"/><use xlink:href="#aR" transform="matrix(1,0,0,1,845.900000000057,3568.2499999999764) translate(50.55 38.4625)"/><use xlink:href="#aS" transform="matrix(1,0,0,1,845.900000000057,3568.2499999999764) translate(89.5 38.4625)"/><use xlink:href="#aT" transform="matrix(1,0,0,1,845.900000000057,3568.2499999999764) translate(26.075000000000003 60.0625)"/><use xlink:href="#aU" transform="matrix(1,0,0,1,845.900000000057,3568.2499999999764) translate(96.025 60.0625)"/><use xlink:href="#aV" transform="matrix(1,0,0,1,845.900000000057,3568.2499999999764) translate(11.149999999999991 81.66250000000001)"/><use xlink:href="#q" transform="matrix(1,0,0,1,845.900000000057,3568.2499999999764) translate(74.95 81.66250000000001)"/></g><path d="M1080.9 3505.25v28h-160v10.5" stroke="#000" stroke-width="2" fill="none"/><path d="M1081.9 3505.28h-2v-1.03h2z"/><path d="M920.9 3559l-4.64-14.25h9.28z" stroke="#000" stroke-width="2"/><path d="M920.9 3723.25l80 60-80 60-80-60z" stroke="#000" stroke-width="2" fill="#ffc374"/><g><use xlink:href="#bg" transform="matrix(1,0,0,1,845.900000000057,3728.2499999999764) translate(16.105 52.41)"/><use xlink:href="#ay" transform="matrix(1,0,0,1,845.900000000057,3728.2499999999764) translate(51.78 74.01)"/><use xlink:href="#az" transform="matrix(1,0,0,1,845.900000000057,3728.2499999999764) translate(67.28 74.01)"/></g><path d="M680.9 3843.25h160v120h-160z" stroke="#000" stroke-width="2" fill="#3aa6dd"/><g><use xlink:href="#bh" transform="matrix(1,0,0,1,685.900000000057,3848.2499999999764) translate(2.200000000000003 38.4625)"/><use xlink:href="#bi" transform="matrix(1,0,0,1,685.900000000057,3848.2499999999764) translate(12.200000000000003 38.4625)"/><use xlink:href="#aV" transform="matrix(1,0,0,1,685.900000000057,3848.2499999999764) translate(58.050000000000004 38.4625)"/><use xlink:href="#bj" transform="matrix(1,0,0,1,685.900000000057,3848.2499999999764) translate(121.85000000000001 38.4625)"/><use xlink:href="#bk" transform="matrix(1,0,0,1,685.900000000057,3848.2499999999764) translate(17.549999999999997 60.0625)"/><use xlink:href="#bl" transform="matrix(1,0,0,1,685.900000000057,3848.2499999999764) translate(38.5 60.0625)"/><use xlink:href="#m" transform="matrix(1,0,0,1,685.900000000057,3848.2499999999764) translate(97.5 60.0625)"/><use xlink:href="#bm" transform="matrix(1,0,0,1,685.900000000057,3848.2499999999764) translate(36.599999999999994 81.66250000000001)"/></g><path d="M761.9 3823.75h-2v-29.7h2zm76.33-39.5h-53v-2h53z"/><path d="M839.23 3783.25l1.34 1h-2.36v-2h2.37zM760.9 3839l-4.64-14.25h9.28z"/><path d="M760.9 3842.25l-6-18.5h12zm-3.26-16.5l3.26 10.03 3.26-10.03z"/><g><use xlink:href="#aA" transform="matrix(1,0,0,1,755.8916666667237,3772.449999999976) translate(0 14.4)"/></g><path d="M1128.9 3843.25c17.67 0 32 17.9 32 40s-14.33 40-32 40h-96c-17.67 0-32-17.9-32-40s14.33-40 32-40z" stroke="#000" stroke-width="2" fill="#a3d977"/><g><use xlink:href="#bn" transform="matrix(1,0,0,1,1005.9000000000569,3848.2499999999764) translate(38.025 38.4625)"/></g><path d="M1081.9 3823.75h-2v-29.7h2zm-78.33-39.5v-2h56.2v2z"/><path d="M1003.6 3784.25h-2.37l1.34-1-1.34-1h2.36zM1080.9 3839l-4.64-14.25h9.28z"/><path d="M1080.9 3842.25l-6-18.5h12zm-3.26-16.5l3.26 10.03 3.26-10.03z"/><g><use xlink:href="#aL" transform="matrix(1,0,0,1,1059.7583333333905,3772.449999999976) translate(0 14.4)"/></g><path d="M920.9 3685.25v18.25" stroke="#000" stroke-width="2" fill="none"/><path d="M921.9 3685.28h-2v-1.03h2z"/><path d="M920.9 3718.76l-4.64-14.26h9.28z" stroke="#000" stroke-width="2"/><path d="M1200 3203.25l80 60-80 60-80-60z" stroke="#000" stroke-width="2" fill="#ffc374"/><g><use xlink:href="#bo" transform="matrix(1,0,0,1,1125,3208.25) translate(66.03 16.41)"/><use xlink:href="#bp" transform="matrix(1,0,0,1,1125,3208.25) translate(42.080000000000005 38.01)"/><use xlink:href="#bq" transform="matrix(1,0,0,1,1125,3208.25) translate(73.03 38.01)"/><use xlink:href="#aH" transform="matrix(1,0,0,1,1125,3208.25) translate(37.62999999999999 59.61)"/><use xlink:href="#br" transform="matrix(1,0,0,1,1125,3208.25) translate(43.555 81.21000000000001)"/></g><path d="M166.55 3132H1201v51.5h-2V3134H164.55v-12h2z"/><path d="M166.55 3122.03h-2V3121h2zM1200 3198.76l-4.64-14.26h9.28z"/><path d="M1200 3202l-6-18.5h12zm-3.26-16.5l3.26 10.03 3.26-10.03zM1097.33 3262.25h20v2h-22v-38.18h2zm0-57.78h-2V3081H265.05v-2h832.28z"/><path d="M1118.33 3263.25l1.34 1h-2.36v-2h2.37zM264.05 3084.64L249.8 3080l14.25-4.64z"/><path d="M265.05 3086l-18.5-6 18.5-6zm-12.03-6l10.03 3.26v-6.52z"/><g><use xlink:href="#aA" transform="matrix(1,0,0,1,1081.6583333333333,3204.470050649625) translate(0 14.4)"/></g><path d="M1248 4003.25c17.67 0 32 17.9 32 40s-14.33 40-32 40h-96c-17.67 0-32-17.9-32-40s14.33-40 32-40z" stroke="#000" stroke-width="2" fill="#c92d39"/><g><use xlink:href="#bs" transform="matrix(1,0,0,1,1125,4008.25) translate(33.55 27.525)"/><use xlink:href="#bt" transform="matrix(1,0,0,1,1125,4008.25) translate(43.5 49.125)"/></g><path d="M1201 3983.75h-2v-587.32h2zm0-608.92h-2v-49.33h2z"/><path d="M1201 3325.53h-2v-1.78l1 .75 1-.75zM1200 3999l-4.64-14.25h9.28z"/><path d="M1200 4002.25l-6-18.5h12zm-3.26-16.5l3.26 10.03 3.26-10.03z"/><g><use xlink:href="#aL" transform="matrix(1,0,0,1,1188.525,3374.829076633614) translate(0 14.4)"/></g><path d="M1118 4197.75H265.05" stroke="#000" stroke-width="2" fill="none"/><path d="M1119 4198.75h-1.03v-2h1.03z"/><path d="M249.8 4197.75l14.25-4.64v9.3z" stroke="#000" stroke-width="2"/><path d="M83.55 4197.72h-66.5V2875.95h21.5" stroke="#000" stroke-width="2" fill="none"/><path d="M84.55 4198.72h-1.03v-2h1.03z"/><path d="M53.8 2875.95l-14.26 4.64v-9.3z" stroke="#000" stroke-width="2"/><path d="M1200 4085.25v33" stroke="#000" stroke-width="2" fill="none"/><path d="M1201 4085.28h-2v-1.03h2z"/><path d="M1200 4133.5l-4.64-14.25h9.28z" stroke="#000" stroke-width="2"/><path d="M52 3020h1248v1080H52z" stroke="#000" stroke-width="2" fill-opacity="0"/><g><use xlink:href="#bu" transform="matrix(1,0,0,1,60,3028) translate(572.05 15.6)"/><use xlink:href="#aK" transform="matrix(1,0,0,1,60,3028) translate(626 15.6)"/></g><path d="M46.3 4120H1300v163.25H46.3z" stroke="#000" stroke-width="2" fill-opacity="0"/><g><use xlink:href="#bv" transform="matrix(1,0,0,1,54.29999999997733,4128) translate(571.55 15.6)"/><use xlink:href="#aK" transform="matrix(1,0,0,1,54.29999999997733,4128) translate(632.5 15.6)"/></g><defs><path d="M33 0v-248h34V0H33" id="bw"/><path d="M117-194c89-4 53 116 60 194h-32v-121c0-31-8-49-39-48C34-167 62-67 57 0H25l-1-190h30c1 10-1 24 2 32 11-22 29-35 61-36" id="bx"/><path d="M24-231v-30h32v30H24zM24 0v-190h32V0H24" id="by"/><path d="M59-47c-2 24 18 29 38 22v24C64 9 27 4 27-40v-127H5v-23h24l9-43h21v43h35v23H59v120" id="bz"/><path d="M141-36C126-15 110 5 73 4 37 3 15-17 15-53c-1-64 63-63 125-63 3-35-9-54-41-54-24 1-41 7-42 31l-33-3c5-37 33-52 76-52 45 0 72 20 72 64v82c-1 20 7 32 28 27v20c-31 9-61-2-59-35zM48-53c0 20 12 33 32 33 41-3 63-29 60-74-43 2-92-5-92 41" id="bA"/><path d="M24 0v-261h32V0H24" id="bB"/><path d="M135-143c-3-34-86-38-87 0 15 53 115 12 119 90S17 21 10-45l28-5c4 36 97 45 98 0-10-56-113-15-118-90-4-57 82-63 122-42 12 7 21 19 24 35" id="bC"/><path d="M100-194c63 0 86 42 84 106H49c0 40 14 67 53 68 26 1 43-12 49-29l28 8c-11 28-37 45-77 45C44 4 14-33 15-96c1-61 26-98 85-98zm52 81c6-60-76-77-97-28-3 7-6 17-6 28h103" id="bD"/><path d="M114-163C36-179 61-72 57 0H25l-1-190h30c1 12-1 29 2 39 6-27 23-49 58-41v29" id="bE"/><g id="a"><use transform="matrix(0.05,0,0,0.05,0,0)" xlink:href="#bw"/><use transform="matrix(0.05,0,0,0.05,5,0)" xlink:href="#bx"/><use transform="matrix(0.05,0,0,0.05,15,0)" xlink:href="#by"/><use transform="matrix(0.05,0,0,0.05,18.95,0)" xlink:href="#bz"/><use transform="matrix(0.05,0,0,0.05,23.95,0)" xlink:href="#by"/><use transform="matrix(0.05,0,0,0.05,27.899999999999995,0)" xlink:href="#bA"/><use transform="matrix(0.05,0,0,0.05,37.9,0)" xlink:href="#bB"/><use transform="matrix(0.05,0,0,0.05,41.85,0)" xlink:href="#by"/><use transform="matrix(0.05,0,0,0.05,45.800000000000004,0)" xlink:href="#bC"/><use transform="matrix(0.05,0,0,0.05,54.800000000000004,0)" xlink:href="#bD"/><use transform="matrix(0.05,0,0,0.05,64.80000000000001,0)" xlink:href="#bE"/></g><path d="M143 0L79-87 56-68V0H24v-261h32v163l83-92h37l-77 82L181 0h-38" id="bF"/><path d="M68-36c1 33-1 63-14 82H32c9-13 17-26 17-46H33v-36h35zM33-154v-36h35v36H33" id="bG"/><g id="b"><use transform="matrix(0.05,0,0,0.05,0,0)" xlink:href="#bF"/><use transform="matrix(0.05,0,0,0.05,9,0)" xlink:href="#bB"/><use transform="matrix(0.05,0,0,0.05,12.949999999999998,0)" xlink:href="#bA"/><use transform="matrix(0.05,0,0,0.05,22.95,0)" xlink:href="#bC"/><use transform="matrix(0.05,0,0,0.05,31.950000000000003,0)" xlink:href="#bC"/><use transform="matrix(0.05,0,0,0.05,40.95,0)" xlink:href="#bD"/><use transform="matrix(0.05,0,0,0.05,50.95,0)" xlink:href="#bE"/><use transform="matrix(0.05,0,0,0.05,56.900000000000006,0)" xlink:href="#bG"/></g><path d="M30-248c87 1 191-15 191 75 0 78-77 80-158 76V0H30v-248zm33 125c57 0 124 11 124-50 0-59-68-47-124-48v98" id="bH"/><path d="M179-190L93 31C79 59 56 82 12 73V49c39 6 53-20 64-50L1-190h34L92-34l54-156h33" id="bI"/><g id="c"><use transform="matrix(0.05,0,0,0.05,0,0)" xlink:href="#bH"/><use transform="matrix(0.05,0,0,0.05,12,0)" xlink:href="#bB"/><use transform="matrix(0.05,0,0,0.05,15.949999999999998,0)" xlink:href="#bA"/><use transform="matrix(0.05,0,0,0.05,25.950000000000003,0)" xlink:href="#bI"/><use transform="matrix(0.05,0,0,0.05,34.95,0)" xlink:href="#bD"/><use transform="matrix(0.05,0,0,0.05,44.95,0)" xlink:href="#bE"/></g><path d="M143 4C61 4 22-44 18-125c-5-107 100-154 193-111 17 8 29 25 37 43l-32 9c-13-25-37-40-76-40-61 0-88 39-88 99 0 61 29 100 91 101 35 0 62-11 79-27v-45h-74v-28h105v86C228-13 192 4 143 4" id="bJ"/><path d="M100-194c62-1 85 37 85 99 1 63-27 99-86 99S16-35 15-95c0-66 28-99 85-99zM99-20c44 1 53-31 53-75 0-43-8-75-51-75s-53 32-53 75 10 74 51 75" id="bK"/><path d="M85-194c31 0 48 13 60 33l-1-100h32l1 261h-30c-2-10 0-23-3-31C134-8 116 4 85 4 32 4 16-35 15-94c0-66 23-100 70-100zm9 24c-40 0-46 34-46 75 0 40 6 74 45 74 42 0 51-32 51-76 0-42-9-74-50-73" id="bL"/><g id="d"><use transform="matrix(0.05,0,0,0.05,0,0)" xlink:href="#bJ"/><use transform="matrix(0.05,0,0,0.05,14,0)" xlink:href="#bK"/><use transform="matrix(0.05,0,0,0.05,24,0)" xlink:href="#bB"/><use transform="matrix(0.05,0,0,0.05,27.950000000000003,0)" xlink:href="#bL"/></g><path d="M185-189c-5-48-123-54-124 2 14 75 158 14 163 119 3 78-121 87-175 55-17-10-28-26-33-46l33-7c5 56 141 63 141-1 0-78-155-14-162-118-5-82 145-84 179-34 5 7 8 16 11 25" id="bM"/><g id="e"><use transform="matrix(0.05,0,0,0.05,0,0)" xlink:href="#bM"/><use transform="matrix(0.05,0,0,0.05,12,0)" xlink:href="#bz"/><use transform="matrix(0.05,0,0,0.05,17,0)" xlink:href="#bK"/><use transform="matrix(0.05,0,0,0.05,27,0)" xlink:href="#bx"/><use transform="matrix(0.05,0,0,0.05,37,0)" xlink:href="#bD"/></g><path d="M96-169c-40 0-48 33-48 73s9 75 48 75c24 0 41-14 43-38l32 2c-6 37-31 61-74 61-59 0-76-41-82-99-10-93 101-131 147-64 4 7 5 14 7 22l-32 3c-4-21-16-35-41-35" id="bN"/><g id="f"><use transform="matrix(0.05,0,0,0.05,0,0)" xlink:href="#bM"/><use transform="matrix(0.05,0,0,0.05,12,0)" xlink:href="#bN"/><use transform="matrix(0.05,0,0,0.05,21,0)" xlink:href="#bK"/><use transform="matrix(0.05,0,0,0.05,31,0)" xlink:href="#bE"/><use transform="matrix(0.05,0,0,0.05,36.95,0)" xlink:href="#bD"/></g><path d="M30 0v-248h33v221h125V0H30" id="bO"/><path d="M108 0H70L1-190h34L89-25l56-165h34" id="bP"/><g id="g"><use transform="matrix(0.05,0,0,0.05,0,0)" xlink:href="#bO"/><use transform="matrix(0.05,0,0,0.05,10,0)" xlink:href="#bA"/><use transform="matrix(0.05,0,0,0.05,20,0)" xlink:href="#bP"/></g><g id="h"><use transform="matrix(0.05,0,0,0.05,0,0)" xlink:href="#bD"/><use transform="matrix(0.05,0,0,0.05,10,0)" xlink:href="#bz"/></g><g id="i"><use transform="matrix(0.05,0,0,0.05,0,0)" xlink:href="#bH"/><use transform="matrix(0.05,0,0,0.05,12,0)" xlink:href="#bB"/><use transform="matrix(0.05,0,0,0.05,15.949999999999998,0)" xlink:href="#bA"/><use transform="matrix(0.05,0,0,0.05,25.950000000000003,0)" xlink:href="#bI"/><use transform="matrix(0.05,0,0,0.05,34.95,0)" xlink:href="#bD"/><use transform="matrix(0.05,0,0,0.05,44.95,0)" xlink:href="#bE"/></g><path d="M115-194c53 0 69 39 70 98 0 66-23 100-70 100C84 3 66-7 56-30L54 0H23l1-261h32v101c10-23 28-34 59-34zm-8 174c40 0 45-34 45-75 0-40-5-75-45-74-42 0-51 32-51 76 0 43 10 73 51 73" id="bQ"/><path d="M24-231v-30h32v30H24zM-9 49c24 4 33-6 33-30v-209h32V24c2 40-23 58-65 49V49" id="bR"/><g id="j"><use transform="matrix(0.05,0,0,0.05,0,0)" xlink:href="#bK"/><use transform="matrix(0.05,0,0,0.05,10,0)" xlink:href="#bQ"/><use transform="matrix(0.05,0,0,0.05,20,0)" xlink:href="#bR"/><use transform="matrix(0.05,0,0,0.05,23.95,0)" xlink:href="#bD"/><use transform="matrix(0.05,0,0,0.05,33.95,0)" xlink:href="#bF"/><use transform="matrix(0.05,0,0,0.05,42.95,0)" xlink:href="#bz"/></g><g id="k"><use transform="matrix(0.05,0,0,0.05,0,0)" xlink:href="#bO"/><use transform="matrix(0.05,0,0,0.05,10,0)" xlink:href="#bA"/><use transform="matrix(0.05,0,0,0.05,20,0)" xlink:href="#bP"/></g><path d="M205 0l-28-72H64L36 0H1l101-248h38L239 0h-34zm-38-99l-47-123c-12 45-31 82-46 123h93" id="bS"/><g id="l"><use transform="matrix(0.05,0,0,0.05,0,0)" xlink:href="#bS"/><use transform="matrix(0.05,0,0,0.05,12,0)" xlink:href="#bE"/><use transform="matrix(0.05,0,0,0.05,17.95,0)" xlink:href="#bE"/><use transform="matrix(0.05,0,0,0.05,23.9,0)" xlink:href="#bA"/><use transform="matrix(0.05,0,0,0.05,33.9,0)" xlink:href="#bI"/><use transform="matrix(0.05,0,0,0.05,42.9,0)" xlink:href="#bO"/><use transform="matrix(0.05,0,0,0.05,52.900000000000006,0)" xlink:href="#by"/><use transform="matrix(0.05,0,0,0.05,56.85,0)" xlink:href="#bC"/><use transform="matrix(0.05,0,0,0.05,65.85,0)" xlink:href="#bz"/></g><path d="M210-169c-67 3-38 105-44 169h-31v-121c0-29-5-50-35-48C34-165 62-65 56 0H25l-1-190h30c1 10-1 24 2 32 10-44 99-50 107 0 11-21 27-35 58-36 85-2 47 119 55 194h-31v-121c0-29-5-49-35-48" id="bT"/><g id="m"><use transform="matrix(0.05,0,0,0.05,0,0)" xlink:href="#bT"/><use transform="matrix(0.05,0,0,0.05,14.950000000000001,0)" xlink:href="#bD"/><use transform="matrix(0.05,0,0,0.05,24.950000000000003,0)" xlink:href="#bL"/></g><g id="n"><use transform="matrix(0.05,0,0,0.05,0,0)" xlink:href="#bM"/><use transform="matrix(0.05,0,0,0.05,12,0)" xlink:href="#bz"/><use transform="matrix(0.05,0,0,0.05,17,0)" xlink:href="#bK"/><use transform="matrix(0.05,0,0,0.05,27,0)" xlink:href="#bx"/><use transform="matrix(0.05,0,0,0.05,37,0)" xlink:href="#bD"/></g><path d="M177-190C167-65 218 103 67 71c-23-6-38-20-44-43l32-5c15 47 100 32 89-28v-30C133-14 115 1 83 1 29 1 15-40 15-95c0-56 16-97 71-98 29-1 48 16 59 35 1-10 0-23 2-32h30zM94-22c36 0 50-32 50-73 0-42-14-75-50-75-39 0-46 34-46 75s6 73 46 73" id="bU"/><g id="o"><use transform="matrix(0.05,0,0,0.05,0,0)" xlink:href="#bK"/><use transform="matrix(0.05,0,0,0.05,10,0)" xlink:href="#bU"/></g><g id="p"><use transform="matrix(0.05,0,0,0.05,0,0)" xlink:href="#bJ"/><use transform="matrix(0.05,0,0,0.05,14,0)" xlink:href="#bK"/><use transform="matrix(0.05,0,0,0.05,24,0)" xlink:href="#bB"/><use transform="matrix(0.05,0,0,0.05,27.950000000000003,0)" xlink:href="#bL"/></g><g id="q"><use transform="matrix(0.05,0,0,0.05,0,0)" xlink:href="#bK"/><use transform="matrix(0.05,0,0,0.05,10,0)" xlink:href="#bQ"/><use transform="matrix(0.05,0,0,0.05,20,0)" xlink:href="#bR"/><use transform="matrix(0.05,0,0,0.05,23.95,0)" xlink:href="#bD"/><use transform="matrix(0.05,0,0,0.05,33.95,0)" xlink:href="#bF"/><use transform="matrix(0.05,0,0,0.05,42.95,0)" xlink:href="#bz"/><use transform="matrix(0.05,0,0,0.05,47.95,0)" xlink:href="#bD"/><use transform="matrix(0.05,0,0,0.05,57.95,0)" xlink:href="#bE"/></g><path d="M140-251c81 0 123 46 123 126C263-46 219 4 140 4 59 4 17-45 17-125s42-126 123-126zm0 227c63 0 89-41 89-101s-29-99-89-99c-61 0-89 39-89 99S79-25 140-24" id="bV"/><path d="M115-194c55 1 70 41 70 98S169 2 115 4C84 4 66-9 55-30l1 105H24l-1-265h31l2 30c10-21 28-34 59-34zm-8 174c40 0 45-34 45-75s-6-73-45-74c-42 0-51 32-51 76 0 43 10 73 51 73" id="bW"/><g id="r"><use transform="matrix(0.05,0,0,0.05,0,0)" xlink:href="#bV"/><use transform="matrix(0.05,0,0,0.05,14,0)" xlink:href="#bP"/><use transform="matrix(0.05,0,0,0.05,23,0)" xlink:href="#bD"/><use transform="matrix(0.05,0,0,0.05,33,0)" xlink:href="#bE"/><use transform="matrix(0.05,0,0,0.05,38.95,0)" xlink:href="#bB"/><use transform="matrix(0.05,0,0,0.05,42.900000000000006,0)" xlink:href="#bA"/><use transform="matrix(0.05,0,0,0.05,52.900000000000006,0)" xlink:href="#bW"/></g><g id="s"><use transform="matrix(0.05,0,0,0.05,0,0)" xlink:href="#bT"/><use transform="matrix(0.05,0,0,0.05,14.950000000000001,0)" xlink:href="#bD"/><use transform="matrix(0.05,0,0,0.05,24.950000000000003,0)" xlink:href="#bB"/><use transform="matrix(0.05,0,0,0.05,28.900000000000002,0)" xlink:href="#bB"/><use transform="matrix(0.05,0,0,0.05,32.85,0)" xlink:href="#bD"/><use transform="matrix(0.05,0,0,0.05,42.85,0)" xlink:href="#bT"/></g><path d="M103-251c84 0 111 97 45 133-19 10-37 24-39 52H78c0-63 77-55 77-114 0-30-21-42-52-43-32 0-53 17-56 46l-32-2c7-45 34-72 88-72zM77 0v-35h34V0H77" id="bX"/><g id="t"><use transform="matrix(0.05,0,0,0.05,0,0)" xlink:href="#bT"/><use transform="matrix(0.05,0,0,0.05,14.950000000000001,0)" xlink:href="#by"/><use transform="matrix(0.05,0,0,0.05,18.900000000000002,0)" xlink:href="#bx"/><use transform="matrix(0.05,0,0,0.05,28.900000000000002,0)" xlink:href="#bD"/><use transform="matrix(0.05,0,0,0.05,38.900000000000006,0)" xlink:href="#bE"/><use transform="matrix(0.05,0,0,0.05,44.85000000000001,0)" xlink:href="#bA"/><use transform="matrix(0.05,0,0,0.05,54.85,0)" xlink:href="#bB"/><use transform="matrix(0.05,0,0,0.05,58.80000000000001,0)" xlink:href="#bD"/><use transform="matrix(0.05,0,0,0.05,68.80000000000001,0)" xlink:href="#bE"/><use transform="matrix(0.05,0,0,0.05,74.75000000000001,0)" xlink:href="#bX"/></g><path d="M87 75C49 33 22-17 22-94c0-76 28-126 65-167h31c-38 41-64 92-64 168S80 34 118 75H87" id="bY"/><path d="M33-261c38 41 65 92 65 168S71 34 33 75H2C39 34 66-17 66-93S39-220 2-261h31" id="bZ"/><path d="M68-38c1 34 0 65-14 84H32c9-13 17-26 17-46H33v-38h35" id="ca"/><g id="u"><use transform="matrix(0.05,0,0,0.05,0,0)" xlink:href="#bE"/><use transform="matrix(0.05,0,0,0.05,5.95,0)" xlink:href="#bD"/><use transform="matrix(0.05,0,0,0.05,15.949999999999998,0)" xlink:href="#bU"/><use transform="matrix(0.05,0,0,0.05,25.950000000000003,0)" xlink:href="#bD"/><use transform="matrix(0.05,0,0,0.05,35.95,0)" xlink:href="#bx"/><use transform="matrix(0.05,0,0,0.05,45.95,0)" xlink:href="#bY"/><use transform="matrix(0.05,0,0,0.05,51.900000000000006,0)" xlink:href="#bZ"/><use transform="matrix(0.05,0,0,0.05,57.85,0)" xlink:href="#ca"/></g><g id="v"><use transform="matrix(0.05,0,0,0.05,0,0)" xlink:href="#bz"/><use transform="matrix(0.05,0,0,0.05,5,0)" xlink:href="#by"/><use transform="matrix(0.05,0,0,0.05,8.95,0)" xlink:href="#bB"/><use transform="matrix(0.05,0,0,0.05,12.899999999999999,0)" xlink:href="#bL"/><use transform="matrix(0.05,0,0,0.05,22.9,0)" xlink:href="#bD"/><use transform="matrix(0.05,0,0,0.05,32.9,0)" xlink:href="#bB"/><use transform="matrix(0.05,0,0,0.05,36.85,0)" xlink:href="#bD"/><use transform="matrix(0.05,0,0,0.05,46.85,0)" xlink:href="#bE"/></g><g id="w"><use transform="matrix(0.05,0,0,0.05,0,0)" xlink:href="#bx"/><use transform="matrix(0.05,0,0,0.05,10,0)" xlink:href="#bI"/><use transform="matrix(0.05,0,0,0.05,19,0)" xlink:href="#bD"/></g><g id="x"><use transform="matrix(0.05,0,0,0.05,0,0)" xlink:href="#bB"/><use transform="matrix(0.05,0,0,0.05,3.95,0)" xlink:href="#bK"/><use transform="matrix(0.05,0,0,0.05,13.949999999999998,0)" xlink:href="#bF"/><use transform="matrix(0.05,0,0,0.05,22.95,0)" xlink:href="#bA"/><use transform="matrix(0.05,0,0,0.05,32.95,0)" xlink:href="#bz"/><use transform="matrix(0.05,0,0,0.05,37.95,0)" xlink:href="#by"/><use transform="matrix(0.05,0,0,0.05,41.900000000000006,0)" xlink:href="#bK"/><use transform="matrix(0.05,0,0,0.05,51.900000000000006,0)" xlink:href="#bx"/><use transform="matrix(0.05,0,0,0.05,61.900000000000006,0)" xlink:href="#bD"/><use transform="matrix(0.05,0,0,0.05,71.9,0)" xlink:href="#bE"/></g><g id="y"><use transform="matrix(0.05,0,0,0.05,0,0)" xlink:href="#bz"/><use transform="matrix(0.05,0,0,0.05,5,0)" xlink:href="#by"/><use transform="matrix(0.05,0,0,0.05,8.95,0)" xlink:href="#bB"/></g><g id="z"><use transform="matrix(0.05,0,0,0.05,0,0)" xlink:href="#bK"/><use transform="matrix(0.05,0,0,0.05,10,0)" xlink:href="#bQ"/><use transform="matrix(0.05,0,0,0.05,20,0)" xlink:href="#bR"/><use transform="matrix(0.05,0,0,0.05,23.95,0)" xlink:href="#bD"/><use transform="matrix(0.05,0,0,0.05,33.95,0)" xlink:href="#bF"/><use transform="matrix(0.05,0,0,0.05,42.95,0)" xlink:href="#bz"/><use transform="matrix(0.05,0,0,0.05,47.95,0)" xlink:href="#bD"/><use transform="matrix(0.05,0,0,0.05,57.95,0)" xlink:href="#bE"/></g><g id="A"><use transform="matrix(0.05,0,0,0.05,0,0)" xlink:href="#bM"/><use transform="matrix(0.05,0,0,0.05,12,0)" xlink:href="#bz"/><use transform="matrix(0.05,0,0,0.05,17,0)" xlink:href="#bA"/><use transform="matrix(0.05,0,0,0.05,27,0)" xlink:href="#bE"/><use transform="matrix(0.05,0,0,0.05,32.95,0)" xlink:href="#bz"/></g><g id="B"><use transform="matrix(0.05,0,0,0.05,0,0)" xlink:href="#bU"/><use transform="matrix(0.05,0,0,0.05,10,0)" xlink:href="#bA"/><use transform="matrix(0.05,0,0,0.05,20,0)" xlink:href="#bT"/><use transform="matrix(0.05,0,0,0.05,34.95,0)" xlink:href="#bD"/></g><g id="C"><use transform="matrix(0.05,0,0,0.05,0,0)" xlink:href="#bB"/><use transform="matrix(0.05,0,0,0.05,3.95,0)" xlink:href="#bK"/><use transform="matrix(0.05,0,0,0.05,13.949999999999998,0)" xlink:href="#bK"/><use transform="matrix(0.05,0,0,0.05,23.95,0)" xlink:href="#bW"/></g><g id="D"><use transform="matrix(0.05,0,0,0.05,0,0)" xlink:href="#bH"/><use transform="matrix(0.05,0,0,0.05,12,0)" xlink:href="#bB"/><use transform="matrix(0.05,0,0,0.05,15.949999999999998,0)" xlink:href="#bA"/><use transform="matrix(0.05,0,0,0.05,25.950000000000003,0)" xlink:href="#bI"/><use transform="matrix(0.05,0,0,0.05,34.95,0)" xlink:href="#bD"/><use transform="matrix(0.05,0,0,0.05,44.95,0)" xlink:href="#bE"/></g><g id="E"><use transform="matrix(0.05,0,0,0.05,0,0)" xlink:href="#bW"/><use transform="matrix(0.05,0,0,0.05,10,0)" xlink:href="#bK"/><use transform="matrix(0.05,0,0,0.05,20,0)" xlink:href="#bC"/><use transform="matrix(0.05,0,0,0.05,29,0)" xlink:href="#by"/><use transform="matrix(0.05,0,0,0.05,32.95,0)" xlink:href="#bz"/><use transform="matrix(0.05,0,0,0.05,37.95,0)" xlink:href="#by"/><use transform="matrix(0.05,0,0,0.05,41.900000000000006,0)" xlink:href="#bK"/><use transform="matrix(0.05,0,0,0.05,51.900000000000006,0)" xlink:href="#bx"/></g><g id="F"><use transform="matrix(0.05,0,0,0.05,0,0)" xlink:href="#bK"/><use transform="matrix(0.05,0,0,0.05,10,0)" xlink:href="#bW"/><use transform="matrix(0.05,0,0,0.05,20,0)" xlink:href="#bL"/><use transform="matrix(0.05,0,0,0.05,30,0)" xlink:href="#bA"/><use transform="matrix(0.05,0,0,0.05,40,0)" xlink:href="#bz"/><use transform="matrix(0.05,0,0,0.05,45,0)" xlink:href="#bD"/><use transform="matrix(0.05,0,0,0.05,55,0)" xlink:href="#bE"/><use transform="matrix(0.05,0,0,0.05,60.95,0)" xlink:href="#bD"/><use transform="matrix(0.05,0,0,0.05,70.95,0)" xlink:href="#bC"/></g><g id="G"><use transform="matrix(0.05,0,0,0.05,0,0)" xlink:href="#bT"/><use transform="matrix(0.05,0,0,0.05,14.950000000000001,0)" xlink:href="#bD"/><use transform="matrix(0.05,0,0,0.05,24.950000000000003,0)" xlink:href="#bL"/></g><path d="M84 4C-5 8 30-112 23-190h32v120c0 31 7 50 39 49 72-2 45-101 50-169h31l1 190h-30c-1-10 1-25-2-33-11 22-28 36-60 37" id="cb"/><g id="H"><use transform="matrix(0.05,0,0,0.05,0,0)" xlink:href="#cb"/><use transform="matrix(0.05,0,0,0.05,10,0)" xlink:href="#bW"/><use transform="matrix(0.05,0,0,0.05,20,0)" xlink:href="#bL"/><use transform="matrix(0.05,0,0,0.05,30,0)" xlink:href="#bA"/><use transform="matrix(0.05,0,0,0.05,40,0)" xlink:href="#bz"/><use transform="matrix(0.05,0,0,0.05,45,0)" xlink:href="#bD"/><use transform="matrix(0.05,0,0,0.05,55,0)" xlink:href="#bY"/><use transform="matrix(0.05,0,0,0.05,60.95,0)" xlink:href="#bZ"/><use transform="matrix(0.05,0,0,0.05,66.9,0)" xlink:href="#bG"/></g><path d="M141 0L90-78 38 0H4l68-98-65-92h35l48 74 47-74h35l-64 92 68 98h-35" id="cc"/><path d="M27 0v-27h64v-190l-56 39v-29l58-41h29v221h61V0H27" id="cd"/><g id="I"><use transform="matrix(0.05,0,0,0.05,0,0)" xlink:href="#bY"/><use transform="matrix(0.05,0,0,0.05,5.95,0)" xlink:href="#cc"/><use transform="matrix(0.05,0,0,0.05,14.949999999999998,0)" xlink:href="#cd"/><use transform="matrix(0.05,0,0,0.05,24.95,0)" xlink:href="#ca"/></g><g id="J"><use transform="matrix(0.05,0,0,0.05,0,0)" xlink:href="#bI"/><use transform="matrix(0.05,0,0,0.05,9,0)" xlink:href="#cd"/><use transform="matrix(0.05,0,0,0.05,19,0)" xlink:href="#bZ"/></g><g id="K"><use transform="matrix(0.05,0,0,0.05,0,0)" xlink:href="#bD"/><use transform="matrix(0.05,0,0,0.05,10,0)" xlink:href="#bE"/></g><path d="M101-234c-31-9-42 10-38 44h38v23H63V0H32v-167H5v-23h27c-7-52 17-82 69-68v24" id="ce"/><g id="L"><use transform="matrix(0.05,0,0,0.05,0,0)" xlink:href="#ce"/><use transform="matrix(0.05,0,0,0.05,5,0)" xlink:href="#by"/><use transform="matrix(0.05,0,0,0.05,8.95,0)" xlink:href="#bF"/><use transform="matrix(0.05,0,0,0.05,17.95,0)" xlink:href="#bC"/><use transform="matrix(0.05,0,0,0.05,26.950000000000003,0)" xlink:href="#bD"/><use transform="matrix(0.05,0,0,0.05,36.95,0)" xlink:href="#bE"/><use transform="matrix(0.05,0,0,0.05,42.900000000000006,0)" xlink:href="#bD"/><use transform="matrix(0.05,0,0,0.05,52.900000000000006,0)" xlink:href="#bz"/></g><g id="M"><use transform="matrix(0.05,0,0,0.05,0,0)" xlink:href="#bT"/><use transform="matrix(0.05,0,0,0.05,14.950000000000001,0)" xlink:href="#bD"/><use transform="matrix(0.05,0,0,0.05,24.950000000000003,0)" xlink:href="#bx"/><use transform="matrix(0.05,0,0,0.05,34.95,0)" xlink:href="#bC"/></g><path d="M101-251c82-7 93 87 43 132L82-64C71-53 59-42 53-27h129V0H18c2-99 128-94 128-182 0-28-16-43-45-43s-46 15-49 41l-32-3c6-41 34-60 81-64" id="cf"/><g id="N"><use transform="matrix(0.05,0,0,0.05,0,0)" xlink:href="#bY"/><use transform="matrix(0.05,0,0,0.05,5.95,0)" xlink:href="#cc"/><use transform="matrix(0.05,0,0,0.05,14.949999999999998,0)" xlink:href="#cf"/><use transform="matrix(0.05,0,0,0.05,24.95,0)" xlink:href="#ca"/></g><g id="O"><use transform="matrix(0.05,0,0,0.05,0,0)" xlink:href="#bI"/><use transform="matrix(0.05,0,0,0.05,9,0)" xlink:href="#cf"/><use transform="matrix(0.05,0,0,0.05,19,0)" xlink:href="#bZ"/></g><g id="P"><use transform="matrix(0.05,0,0,0.05,0,0)" xlink:href="#bC"/><use transform="matrix(0.05,0,0,0.05,9,0)" xlink:href="#bP"/><use transform="matrix(0.05,0,0,0.05,18,0)" xlink:href="#by"/><use transform="matrix(0.05,0,0,0.05,21.95,0)" xlink:href="#bx"/><use transform="matrix(0.05,0,0,0.05,31.950000000000003,0)" xlink:href="#bU"/><use transform="matrix(0.05,0,0,0.05,41.95,0)" xlink:href="#bD"/><use transform="matrix(0.05,0,0,0.05,51.95,0)" xlink:href="#bE"/></g><g id="Q"><use transform="matrix(0.05,0,0,0.05,0,0)" xlink:href="#ce"/><use transform="matrix(0.05,0,0,0.05,5,0)" xlink:href="#bE"/><use transform="matrix(0.05,0,0,0.05,10.95,0)" xlink:href="#bD"/><use transform="matrix(0.05,0,0,0.05,20.95,0)" xlink:href="#bT"/></g><g id="R"><use transform="matrix(0.05,0,0,0.05,0,0)" xlink:href="#bK"/><use transform="matrix(0.05,0,0,0.05,10,0)" xlink:href="#bU"/></g><g id="S"><use transform="matrix(0.05,0,0,0.05,0,0)" xlink:href="#bz"/><use transform="matrix(0.05,0,0,0.05,5,0)" xlink:href="#by"/><use transform="matrix(0.05,0,0,0.05,8.95,0)" xlink:href="#bB"/><use transform="matrix(0.05,0,0,0.05,12.899999999999999,0)" xlink:href="#bQ"/><use transform="matrix(0.05,0,0,0.05,22.9,0)" xlink:href="#bA"/><use transform="matrix(0.05,0,0,0.05,32.9,0)" xlink:href="#bU"/><use transform="matrix(0.05,0,0,0.05,42.9,0)" xlink:href="#bD"/></g><g id="T"><use transform="matrix(0.05,0,0,0.05,0,0)" xlink:href="#bP"/><use transform="matrix(0.05,0,0,0.05,9,0)" xlink:href="#by"/><use transform="matrix(0.05,0,0,0.05,12.949999999999998,0)" xlink:href="#bC"/><use transform="matrix(0.05,0,0,0.05,21.95,0)" xlink:href="#bD"/><use transform="matrix(0.05,0,0,0.05,31.950000000000003,0)" xlink:href="#bC"/></g><g id="U"><use transform="matrix(0.05,0,0,0.05,0,0)" xlink:href="#bT"/><use transform="matrix(0.05,0,0,0.05,14.950000000000001,0)" xlink:href="#bD"/><use transform="matrix(0.05,0,0,0.05,24.950000000000003,0)" xlink:href="#bL"/></g><g id="V"><use transform="matrix(0.05,0,0,0.05,0,0)" xlink:href="#bL"/><use transform="matrix(0.05,0,0,0.05,10,0)" xlink:href="#by"/><use transform="matrix(0.05,0,0,0.05,13.949999999999998,0)" xlink:href="#bC"/><use transform="matrix(0.05,0,0,0.05,22.95,0)" xlink:href="#bW"/><use transform="matrix(0.05,0,0,0.05,32.95,0)" xlink:href="#bB"/><use transform="matrix(0.05,0,0,0.05,36.900000000000006,0)" xlink:href="#bA"/><use transform="matrix(0.05,0,0,0.05,46.900000000000006,0)" xlink:href="#bI"/><use transform="matrix(0.05,0,0,0.05,55.900000000000006,0)" xlink:href="#bY"/><use transform="matrix(0.05,0,0,0.05,61.85,0)" xlink:href="#bZ"/></g><g id="W"><use transform="matrix(0.05,0,0,0.05,0,0)" xlink:href="#bA"/><use transform="matrix(0.05,0,0,0.05,10,0)" xlink:href="#bE"/><use transform="matrix(0.05,0,0,0.05,15.949999999999998,0)" xlink:href="#bT"/><use transform="matrix(0.05,0,0,0.05,30.899999999999995,0)" xlink:href="#bD"/><use transform="matrix(0.05,0,0,0.05,40.9,0)" xlink:href="#bx"/></g><g id="X"><use transform="matrix(0.05,0,0,0.05,0,0)" xlink:href="#bC"/><use transform="matrix(0.05,0,0,0.05,9,0)" xlink:href="#bz"/><use transform="matrix(0.05,0,0,0.05,14,0)" xlink:href="#bI"/><use transform="matrix(0.05,0,0,0.05,23,0)" xlink:href="#bE"/><use transform="matrix(0.05,0,0,0.05,28.950000000000003,0)" xlink:href="#bD"/><use transform="matrix(0.05,0,0,0.05,38.95,0)" xlink:href="#bC"/></g><g id="Y"><use transform="matrix(0.05,0,0,0.05,0,0)" xlink:href="#bA"/><use transform="matrix(0.05,0,0,0.05,10,0)" xlink:href="#ce"/></g><g id="Z"><use transform="matrix(0.05,0,0,0.05,0,0)" xlink:href="#bT"/><use transform="matrix(0.05,0,0,0.05,14.950000000000001,0)" xlink:href="#bK"/><use transform="matrix(0.05,0,0,0.05,24.950000000000003,0)" xlink:href="#bP"/><use transform="matrix(0.05,0,0,0.05,33.95,0)" xlink:href="#bD"/><use transform="matrix(0.05,0,0,0.05,43.95,0)" xlink:href="#bT"/><use transform="matrix(0.05,0,0,0.05,58.900000000000006,0)" xlink:href="#bD"/><use transform="matrix(0.05,0,0,0.05,68.9,0)" xlink:href="#bx"/><use transform="matrix(0.05,0,0,0.05,78.9,0)" xlink:href="#bz"/><use transform="matrix(0.05,0,0,0.05,83.9,0)" xlink:href="#bY"/><use transform="matrix(0.05,0,0,0.05,89.85000000000001,0)" xlink:href="#bZ"/></g><g id="aa"><use transform="matrix(0.05,0,0,0.05,0,0)" xlink:href="#bM"/><use transform="matrix(0.05,0,0,0.05,12,0)" xlink:href="#bN"/><use transform="matrix(0.05,0,0,0.05,21,0)" xlink:href="#bK"/><use transform="matrix(0.05,0,0,0.05,31,0)" xlink:href="#bE"/><use transform="matrix(0.05,0,0,0.05,36.95,0)" xlink:href="#bD"/></g><g id="ab"><use transform="matrix(0.05,0,0,0.05,0,0)" xlink:href="#bM"/><use transform="matrix(0.05,0,0,0.05,12,0)" xlink:href="#bN"/><use transform="matrix(0.05,0,0,0.05,21,0)" xlink:href="#bK"/><use transform="matrix(0.05,0,0,0.05,31,0)" xlink:href="#bE"/><use transform="matrix(0.05,0,0,0.05,36.95,0)" xlink:href="#bD"/><use transform="matrix(0.05,0,0,0.05,46.95,0)" xlink:href="#bx"/></g><g id="ac"><use transform="matrix(0.05,0,0,0.05,0,0)" xlink:href="#bQ"/><use transform="matrix(0.05,0,0,0.05,10,0)" xlink:href="#bB"/><use transform="matrix(0.05,0,0,0.05,13.949999999999998,0)" xlink:href="#by"/><use transform="matrix(0.05,0,0,0.05,17.9,0)" xlink:href="#bP"/><use transform="matrix(0.05,0,0,0.05,26.899999999999995,0)" xlink:href="#bD"/><use transform="matrix(0.05,0,0,0.05,36.9,0)" xlink:href="#bE"/></g><g id="ad"><use transform="matrix(0.05,0,0,0.05,0,0)" xlink:href="#ce"/><use transform="matrix(0.05,0,0,0.05,5,0)" xlink:href="#bE"/><use transform="matrix(0.05,0,0,0.05,10.95,0)" xlink:href="#bD"/><use transform="matrix(0.05,0,0,0.05,20.95,0)" xlink:href="#bT"/><use transform="matrix(0.05,0,0,0.05,35.9,0)" xlink:href="#bP"/><use transform="matrix(0.05,0,0,0.05,44.9,0)" xlink:href="#by"/><use transform="matrix(0.05,0,0,0.05,48.85,0)" xlink:href="#bC"/><use transform="matrix(0.05,0,0,0.05,57.85,0)" xlink:href="#bz"/></g><path d="M141-36C126-15 110 5 73 4 37 3 15-17 15-53c-1-64 63-63 125-63 3-35-9-54-41-54-24 1-41 7-42 31l-33-3c5-37 33-52 76-52 45 0 72 20 72 64v82c-1 20 7 32 28 27v20c-31 9-61-2-59-35zM48-53c0 20 12 33 32 33 41-3 63-29 60-74-43 2-92-5-92 41zm50-237c26 0 42 16 42 42 0 27-18 40-42 43-25-2-43-16-43-43 0-26 17-42 43-42zm-24 42c-2 26 37 32 45 10 6-16-3-33-21-33-16 0-23 10-24 23" id="cg"/><g id="ae"><use transform="matrix(0.05,0,0,0.05,0,0)" xlink:href="#bW"/><use transform="matrix(0.05,0,0,0.05,10,0)" xlink:href="#cg"/></g><g id="af"><use transform="matrix(0.05,0,0,0.05,0,0)" xlink:href="#bx"/><use transform="matrix(0.05,0,0,0.05,10,0)" xlink:href="#bI"/></g><g id="ag"><use transform="matrix(0.05,0,0,0.05,0,0)" xlink:href="#bQ"/><use transform="matrix(0.05,0,0,0.05,10,0)" xlink:href="#bA"/><use transform="matrix(0.05,0,0,0.05,20,0)" xlink:href="#bU"/><use transform="matrix(0.05,0,0,0.05,30,0)" xlink:href="#bU"/><use transform="matrix(0.05,0,0,0.05,40,0)" xlink:href="#bE"/><use transform="matrix(0.05,0,0,0.05,45.95,0)" xlink:href="#cb"/><use transform="matrix(0.05,0,0,0.05,55.95,0)" xlink:href="#bx"/><use transform="matrix(0.05,0,0,0.05,65.95,0)" xlink:href="#bL"/></g><g id="ah"><use transform="matrix(0.05,0,0,0.05,0,0)" xlink:href="#bM"/><use transform="matrix(0.05,0,0,0.05,12,0)" xlink:href="#bW"/><use transform="matrix(0.05,0,0,0.05,22,0)" xlink:href="#by"/><use transform="matrix(0.05,0,0,0.05,25.950000000000003,0)" xlink:href="#bB"/><use transform="matrix(0.05,0,0,0.05,29.899999999999995,0)" xlink:href="#bB"/><use transform="matrix(0.05,0,0,0.05,33.85,0)" xlink:href="#bD"/><use transform="matrix(0.05,0,0,0.05,43.85,0)" xlink:href="#bE"/><use transform="matrix(0.05,0,0,0.05,49.800000000000004,0)" xlink:href="#bD"/><use transform="matrix(0.05,0,0,0.05,59.800000000000004,0)" xlink:href="#bx"/></g><g id="ai"><use transform="matrix(0.05,0,0,0.05,0,0)" xlink:href="#bz"/><use transform="matrix(0.05,0,0,0.05,5,0)" xlink:href="#bE"/><use transform="matrix(0.05,0,0,0.05,10.95,0)" xlink:href="#bI"/><use transform="matrix(0.05,0,0,0.05,19.95,0)" xlink:href="#bF"/><use transform="matrix(0.05,0,0,0.05,28.950000000000003,0)" xlink:href="#bF"/><use transform="matrix(0.05,0,0,0.05,37.95,0)" xlink:href="#bD"/><use transform="matrix(0.05,0,0,0.05,47.95,0)" xlink:href="#bE"/></g><path d="M47-170H22l-4-78h33" id="ch"/><path d="M145-31C134-9 116 4 85 4 32 4 16-35 15-94c0-59 17-99 70-100 32-1 48 14 60 33 0-11-1-24 2-32h30l-1 268h-32zM93-21c41 0 51-33 51-76s-8-73-50-73c-40 0-46 35-46 75s5 74 45 74" id="ci"/><g id="aj"><use transform="matrix(0.05,0,0,0.05,0,0)" xlink:href="#ch"/><use transform="matrix(0.05,0,0,0.05,3.4000000000000004,0)" xlink:href="#ci"/><use transform="matrix(0.05,0,0,0.05,13.4,0)" xlink:href="#ch"/></g><g id="ak"><use transform="matrix(0.05,0,0,0.05,0,0)" xlink:href="#bM"/><use transform="matrix(0.05,0,0,0.05,12,0)" xlink:href="#bz"/><use transform="matrix(0.05,0,0,0.05,17,0)" xlink:href="#bK"/><use transform="matrix(0.05,0,0,0.05,27,0)" xlink:href="#bx"/><use transform="matrix(0.05,0,0,0.05,37,0)" xlink:href="#bD"/></g><g id="al"><use transform="matrix(0.05,0,0,0.05,0,0)" xlink:href="#bJ"/><use transform="matrix(0.05,0,0,0.05,14,0)" xlink:href="#bK"/><use transform="matrix(0.05,0,0,0.05,24,0)" xlink:href="#bB"/><use transform="matrix(0.05,0,0,0.05,27.950000000000003,0)" xlink:href="#bL"/></g><g id="am"><use transform="matrix(0.05,0,0,0.05,0,0)" xlink:href="#bK"/><use transform="matrix(0.05,0,0,0.05,10,0)" xlink:href="#bQ"/><use transform="matrix(0.05,0,0,0.05,20,0)" xlink:href="#bR"/><use transform="matrix(0.05,0,0,0.05,23.95,0)" xlink:href="#bD"/><use transform="matrix(0.05,0,0,0.05,33.95,0)" xlink:href="#bF"/><use transform="matrix(0.05,0,0,0.05,42.95,0)" xlink:href="#bz"/><use transform="matrix(0.05,0,0,0.05,47.95,0)" xlink:href="#bD"/><use transform="matrix(0.05,0,0,0.05,57.95,0)" xlink:href="#bE"/></g><path d="M181-161c11 16 11 39 14 66 9 87-81 123-140 81L37 7H8l32-38C30-47 27-69 25-95c-8-91 81-121 141-83l16-18h30zM109-20c57 4 58-63 49-114L73-35c7 11 20 15 36 15zm2-150c-56-3-57 65-48 113l85-99c-8-10-20-13-37-14" id="cj"/><g id="an"><use transform="matrix(0.05,0,0,0.05,0,0)" xlink:href="#bz"/><use transform="matrix(0.05,0,0,0.05,5,0)" xlink:href="#by"/><use transform="matrix(0.05,0,0,0.05,8.95,0)" xlink:href="#bB"/><use transform="matrix(0.05,0,0,0.05,12.899999999999999,0)" xlink:href="#ce"/><use transform="matrix(0.05,0,0,0.05,17.9,0)" xlink:href="#cj"/><use transform="matrix(0.05,0,0,0.05,28.85,0)" xlink:href="#bR"/><use transform="matrix(0.05,0,0,0.05,32.800000000000004,0)" xlink:href="#bD"/><use transform="matrix(0.05,0,0,0.05,42.800000000000004,0)" xlink:href="#bC"/></g><g id="ao"><use transform="matrix(0.05,0,0,0.05,0,0)" xlink:href="#bz"/><use transform="matrix(0.05,0,0,0.05,5,0)" xlink:href="#by"/><use transform="matrix(0.05,0,0,0.05,8.95,0)" xlink:href="#bB"/></g><g id="ap"><use transform="matrix(0.05,0,0,0.05,0,0)" xlink:href="#bS"/><use transform="matrix(0.05,0,0,0.05,12,0)" xlink:href="#bE"/><use transform="matrix(0.05,0,0,0.05,17.95,0)" xlink:href="#bE"/><use transform="matrix(0.05,0,0,0.05,23.9,0)" xlink:href="#bA"/><use transform="matrix(0.05,0,0,0.05,33.9,0)" xlink:href="#bI"/><use transform="matrix(0.05,0,0,0.05,42.9,0)" xlink:href="#bO"/><use transform="matrix(0.05,0,0,0.05,52.900000000000006,0)" xlink:href="#by"/><use transform="matrix(0.05,0,0,0.05,56.85,0)" xlink:href="#bC"/><use transform="matrix(0.05,0,0,0.05,65.85,0)" xlink:href="#bz"/></g><path d="M33 0v-38h34V0H33" id="ck"/><g id="aq"><use transform="matrix(0.05,0,0,0.05,0,0)" xlink:href="#bB"/><use transform="matrix(0.05,0,0,0.05,3.95,0)" xlink:href="#bK"/><use transform="matrix(0.05,0,0,0.05,13.949999999999998,0)" xlink:href="#bA"/><use transform="matrix(0.05,0,0,0.05,23.95,0)" xlink:href="#bL"/><use transform="matrix(0.05,0,0,0.05,33.95,0)" xlink:href="#bw"/><use transform="matrix(0.05,0,0,0.05,38.95,0)" xlink:href="#bT"/><use transform="matrix(0.05,0,0,0.05,53.900000000000006,0)" xlink:href="#bA"/><use transform="matrix(0.05,0,0,0.05,63.900000000000006,0)" xlink:href="#bU"/><use transform="matrix(0.05,0,0,0.05,73.9,0)" xlink:href="#bD"/><use transform="matrix(0.05,0,0,0.05,83.9,0)" xlink:href="#bY"/><use transform="matrix(0.05,0,0,0.05,89.85000000000001,0)" xlink:href="#bC"/><use transform="matrix(0.05,0,0,0.05,98.85000000000001,0)" xlink:href="#bK"/><use transform="matrix(0.05,0,0,0.05,108.85000000000001,0)" xlink:href="#by"/><use transform="matrix(0.05,0,0,0.05,112.80000000000001,0)" xlink:href="#bB"/><use transform="matrix(0.05,0,0,0.05,116.75,0)" xlink:href="#ck"/><use transform="matrix(0.05,0,0,0.05,121.75,0)" xlink:href="#bR"/><use transform="matrix(0.05,0,0,0.05,125.7,0)" xlink:href="#bW"/><use transform="matrix(0.05,0,0,0.05,135.70000000000002,0)" xlink:href="#bU"/><use transform="matrix(0.05,0,0,0.05,145.70000000000002,0)" xlink:href="#bZ"/></g><path d="M9 0v-24l116-142H16v-24h144v24L44-24h123V0H9" id="cl"/><path d="M110-160c48 1 74 30 74 79 0 53-28 85-80 85-65 0-83-55-86-122-5-90 50-162 133-122 14 7 22 21 27 39l-31 6c-5-40-67-38-82-6-9 19-15 44-15 74 11-20 30-34 60-33zm-7 138c34 0 49-23 49-58s-16-56-50-56c-29 0-50 16-49 49 1 36 15 65 50 65" id="cm"/><path d="M101-251c68 0 85 55 85 127S166 4 100 4C33 4 14-52 14-124c0-73 17-127 87-127zm-1 229c47 0 54-49 54-102s-4-102-53-102c-51 0-55 48-55 102 0 53 5 102 54 102" id="cn"/><g id="ar"><use transform="matrix(0.05,0,0,0.05,0,0)" xlink:href="#bC"/><use transform="matrix(0.05,0,0,0.05,9,0)" xlink:href="#by"/><use transform="matrix(0.05,0,0,0.05,12.949999999999998,0)" xlink:href="#cl"/><use transform="matrix(0.05,0,0,0.05,21.95,0)" xlink:href="#bD"/><use transform="matrix(0.05,0,0,0.05,31.950000000000003,0)" xlink:href="#bY"/><use transform="matrix(0.05,0,0,0.05,37.9,0)" xlink:href="#cm"/><use transform="matrix(0.05,0,0,0.05,47.9,0)" xlink:href="#cn"/><use transform="matrix(0.05,0,0,0.05,57.900000000000006,0)" xlink:href="#cn"/><use transform="matrix(0.05,0,0,0.05,67.9,0)" xlink:href="#ca"/></g><g id="as"><use transform="matrix(0.05,0,0,0.05,0,0)" xlink:href="#cm"/><use transform="matrix(0.05,0,0,0.05,10,0)" xlink:href="#cn"/><use transform="matrix(0.05,0,0,0.05,20,0)" xlink:href="#cn"/><use transform="matrix(0.05,0,0,0.05,30,0)" xlink:href="#bZ"/></g><g id="at"><use transform="matrix(0.05,0,0,0.05,0,0)" xlink:href="#bC"/><use transform="matrix(0.05,0,0,0.05,9,0)" xlink:href="#bD"/><use transform="matrix(0.05,0,0,0.05,19,0)" xlink:href="#bz"/><use transform="matrix(0.05,0,0,0.05,24,0)" xlink:href="#bz"/><use transform="matrix(0.05,0,0,0.05,29,0)" xlink:href="#by"/><use transform="matrix(0.05,0,0,0.05,32.95,0)" xlink:href="#bx"/><use transform="matrix(0.05,0,0,0.05,42.95,0)" xlink:href="#bU"/><use transform="matrix(0.05,0,0,0.05,52.95,0)" xlink:href="#bC"/><use transform="matrix(0.05,0,0,0.05,61.95,0)" xlink:href="#bY"/><use transform="matrix(0.05,0,0,0.05,67.9,0)" xlink:href="#bZ"/></g><g id="au"><use transform="matrix(0.05,0,0,0.05,0,0)" xlink:href="#bQ"/><use transform="matrix(0.05,0,0,0.05,10,0)" xlink:href="#bU"/><use transform="matrix(0.05,0,0,0.05,20,0)" xlink:href="#by"/><use transform="matrix(0.05,0,0,0.05,23.95,0)" xlink:href="#bT"/><use transform="matrix(0.05,0,0,0.05,38.9,0)" xlink:href="#bA"/><use transform="matrix(0.05,0,0,0.05,48.9,0)" xlink:href="#bU"/><use transform="matrix(0.05,0,0,0.05,58.900000000000006,0)" xlink:href="#bD"/></g><g id="av"><use transform="matrix(0.05,0,0,0.05,0,0)" xlink:href="#bQ"/><use transform="matrix(0.05,0,0,0.05,10,0)" xlink:href="#bA"/><use transform="matrix(0.05,0,0,0.05,20,0)" xlink:href="#bN"/><use transform="matrix(0.05,0,0,0.05,29,0)" xlink:href="#bF"/><use transform="matrix(0.05,0,0,0.05,38,0)" xlink:href="#bU"/><use transform="matrix(0.05,0,0,0.05,48,0)" xlink:href="#bE"/><use transform="matrix(0.05,0,0,0.05,53.95,0)" xlink:href="#bK"/><use transform="matrix(0.05,0,0,0.05,63.95,0)" xlink:href="#cb"/><use transform="matrix(0.05,0,0,0.05,73.95,0)" xlink:href="#bx"/><use transform="matrix(0.05,0,0,0.05,83.95,0)" xlink:href="#bL"/><use transform="matrix(0.05,0,0,0.05,93.95,0)" xlink:href="#bY"/><use transform="matrix(0.05,0,0,0.05,99.9,0)" xlink:href="#bZ"/></g><g id="aw"><use transform="matrix(0.05,0,0,0.05,0,0)" xlink:href="#bC"/><use transform="matrix(0.05,0,0,0.05,9,0)" xlink:href="#bD"/><use transform="matrix(0.05,0,0,0.05,19,0)" xlink:href="#bz"/><use transform="matrix(0.05,0,0,0.05,24,0)" xlink:href="#cb"/><use transform="matrix(0.05,0,0,0.05,34,0)" xlink:href="#bW"/><use transform="matrix(0.05,0,0,0.05,44,0)" xlink:href="#bY"/><use transform="matrix(0.05,0,0,0.05,49.95,0)" xlink:href="#bZ"/></g><path d="M106-169C34-169 62-67 57 0H25v-261h32l-1 103c12-21 28-36 61-36 89 0 53 116 60 194h-32v-121c2-32-8-49-39-48" id="co"/><g id="ax"><use transform="matrix(0.05,0,0,0.05,0,0)" xlink:href="#bC"/><use transform="matrix(0.05,0,0,0.05,9,0)" xlink:href="#bD"/><use transform="matrix(0.05,0,0,0.05,19,0)" xlink:href="#bz"/><use transform="matrix(0.05,0,0,0.05,24,0)" xlink:href="#cb"/><use transform="matrix(0.05,0,0,0.05,34,0)" xlink:href="#bW"/><use transform="matrix(0.05,0,0,0.05,44,0)" xlink:href="#bW"/><use transform="matrix(0.05,0,0,0.05,54,0)" xlink:href="#co"/><use transform="matrix(0.05,0,0,0.05,64,0)" xlink:href="#bA"/><use transform="matrix(0.05,0,0,0.05,74,0)" xlink:href="#bC"/><use transform="matrix(0.05,0,0,0.05,83,0)" xlink:href="#bD"/></g><path d="M18-150v-26h174v26H18zm0 90v-26h174v26H18" id="cp"/><use transform="matrix(0.05,0,0,0.05,0,0)" xlink:href="#cp" id="ay"/><g id="az"><use transform="matrix(0.05,0,0,0.05,0,0)" xlink:href="#bz"/><use transform="matrix(0.05,0,0,0.05,5,0)" xlink:href="#bE"/><use transform="matrix(0.05,0,0,0.05,10.95,0)" xlink:href="#cb"/><use transform="matrix(0.05,0,0,0.05,20.95,0)" xlink:href="#bD"/></g><path d="M137-103V0h-34v-103L8-248h37l75 118 75-118h37" id="cq"/><g id="aA"><use transform="matrix(0.05,0,0,0.05,0,0)" xlink:href="#cq"/><use transform="matrix(0.05,0,0,0.05,10.35,0)" xlink:href="#bD"/><use transform="matrix(0.05,0,0,0.05,20.35,0)" xlink:href="#bC"/></g><g id="aB"><use transform="matrix(0.05,0,0,0.05,0,0)" xlink:href="#bK"/><use transform="matrix(0.05,0,0,0.05,10,0)" xlink:href="#bP"/><use transform="matrix(0.05,0,0,0.05,19,0)" xlink:href="#bD"/><use transform="matrix(0.05,0,0,0.05,29,0)" xlink:href="#bE"/><use transform="matrix(0.05,0,0,0.05,34.95,0)" xlink:href="#bB"/><use transform="matrix(0.05,0,0,0.05,38.900000000000006,0)" xlink:href="#bA"/><use transform="matrix(0.05,0,0,0.05,48.900000000000006,0)" xlink:href="#bW"/><use transform="matrix(0.05,0,0,0.05,58.900000000000006,0)" xlink:href="#bY"/><use transform="matrix(0.05,0,0,0.05,64.85000000000001,0)" xlink:href="#ce"/><use transform="matrix(0.05,0,0,0.05,69.85000000000001,0)" xlink:href="#bB"/><use transform="matrix(0.05,0,0,0.05,73.80000000000001,0)" xlink:href="#bK"/><use transform="matrix(0.05,0,0,0.05,83.80000000000001,0)" xlink:href="#bA"/><use transform="matrix(0.05,0,0,0.05,93.80000000000001,0)" xlink:href="#bz"/><use transform="matrix(0.05,0,0,0.05,98.80000000000001,0)" xlink:href="#ca"/></g><g id="aC"><use transform="matrix(0.05,0,0,0.05,0,0)" xlink:href="#ce"/><use transform="matrix(0.05,0,0,0.05,5,0)" xlink:href="#bB"/><use transform="matrix(0.05,0,0,0.05,8.95,0)" xlink:href="#bK"/><use transform="matrix(0.05,0,0,0.05,18.95,0)" xlink:href="#bA"/><use transform="matrix(0.05,0,0,0.05,28.950000000000003,0)" xlink:href="#bz"/><use transform="matrix(0.05,0,0,0.05,33.95,0)" xlink:href="#ca"/></g><g id="aD"><use transform="matrix(0.05,0,0,0.05,0,0)" xlink:href="#ce"/><use transform="matrix(0.05,0,0,0.05,5,0)" xlink:href="#bB"/><use transform="matrix(0.05,0,0,0.05,8.95,0)" xlink:href="#bK"/><use transform="matrix(0.05,0,0,0.05,18.95,0)" xlink:href="#bA"/><use transform="matrix(0.05,0,0,0.05,28.950000000000003,0)" xlink:href="#bz"/><use transform="matrix(0.05,0,0,0.05,33.95,0)" xlink:href="#bZ"/></g><g id="aE"><use transform="matrix(0.05,0,0,0.05,0,0)" xlink:href="#bW"/><use transform="matrix(0.05,0,0,0.05,10,0)" xlink:href="#bB"/><use transform="matrix(0.05,0,0,0.05,13.949999999999998,0)" xlink:href="#bA"/><use transform="matrix(0.05,0,0,0.05,23.95,0)" xlink:href="#bI"/><use transform="matrix(0.05,0,0,0.05,32.95,0)" xlink:href="#bD"/><use transform="matrix(0.05,0,0,0.05,42.95,0)" xlink:href="#bE"/><use transform="matrix(0.05,0,0,0.05,47.900000000000006,0)" xlink:href="#ck"/><use transform="matrix(0.05,0,0,0.05,52.900000000000006,0)" xlink:href="#bE"/><use transform="matrix(0.05,0,0,0.05,58.85,0)" xlink:href="#bD"/><use transform="matrix(0.05,0,0,0.05,68.85000000000001,0)" xlink:href="#bC"/><use transform="matrix(0.05,0,0,0.05,77.85000000000001,0)" xlink:href="#bz"/><use transform="matrix(0.05,0,0,0.05,82.85000000000001,0)" xlink:href="#bA"/><use transform="matrix(0.05,0,0,0.05,92.85000000000001,0)" xlink:href="#bE"/><use transform="matrix(0.05,0,0,0.05,98.80000000000001,0)" xlink:href="#bz"/></g><path d="M234-2c-28 10-62 0-77-18C117 19 8 12 13-65c3-43 29-61 60-76-25-40-17-114 47-108 35 3 59 15 59 50 0 44-40 53-71 69 14 26 32 50 51 72 14-21 24-43 30-72l26 8c-9 33-21 57-38 82 13 13 33 22 57 15v23zM97-151c25-10 52-18 56-48-1-18-13-29-33-29-42 0-39 50-23 77zM42-66c-3 51 71 58 98 28-20-24-41-51-56-80-23 10-40 24-42 52" id="cr"/><g id="aF"><use transform="matrix(0.05,0,0,0.05,0,0)" xlink:href="#cr"/><use transform="matrix(0.05,0,0,0.05,12,0)" xlink:href="#cr"/></g><g id="aG"><use transform="matrix(0.05,0,0,0.05,0,0)" xlink:href="#by"/><use transform="matrix(0.05,0,0,0.05,3.95,0)" xlink:href="#bx"/><use transform="matrix(0.05,0,0,0.05,13.949999999999998,0)" xlink:href="#bU"/><use transform="matrix(0.05,0,0,0.05,23.95,0)" xlink:href="#bD"/><use transform="matrix(0.05,0,0,0.05,33.95,0)" xlink:href="#bx"/></g><path d="M240 0l2-218c-23 76-54 145-80 218h-23L58-218 59 0H30v-248h44l77 211c21-75 51-140 76-211h43V0h-30" id="cs"/><g id="aH"><use transform="matrix(0.05,0,0,0.05,0,0)" xlink:href="#cs"/><use transform="matrix(0.05,0,0,0.05,14.950000000000001,0)" xlink:href="#by"/><use transform="matrix(0.05,0,0,0.05,18.900000000000002,0)" xlink:href="#bx"/><use transform="matrix(0.05,0,0,0.05,28.900000000000002,0)" xlink:href="#bD"/><use transform="matrix(0.05,0,0,0.05,38.900000000000006,0)" xlink:href="#bE"/><use transform="matrix(0.05,0,0,0.05,44.85000000000001,0)" xlink:href="#bA"/><use transform="matrix(0.05,0,0,0.05,54.85,0)" xlink:href="#bB"/><use transform="matrix(0.05,0,0,0.05,58.80000000000001,0)" xlink:href="#bD"/><use transform="matrix(0.05,0,0,0.05,68.80000000000001,0)" xlink:href="#bE"/></g><g id="aI"><use transform="matrix(0.05,0,0,0.05,0,0)" xlink:href="#bz"/><use transform="matrix(0.05,0,0,0.05,5,0)" xlink:href="#by"/><use transform="matrix(0.05,0,0,0.05,8.95,0)" xlink:href="#bB"/><use transform="matrix(0.05,0,0,0.05,12.899999999999999,0)" xlink:href="#bQ"/><use transform="matrix(0.05,0,0,0.05,22.9,0)" xlink:href="#bA"/><use transform="matrix(0.05,0,0,0.05,32.9,0)" xlink:href="#bU"/><use transform="matrix(0.05,0,0,0.05,42.9,0)" xlink:href="#bD"/></g><g id="aJ"><use transform="matrix(0.05,0,0,0.05,0,0)" xlink:href="#bC"/><use transform="matrix(0.05,0,0,0.05,9,0)" xlink:href="#bD"/><use transform="matrix(0.05,0,0,0.05,19,0)" xlink:href="#bz"/><use transform="matrix(0.05,0,0,0.05,24,0)" xlink:href="#cb"/><use transform="matrix(0.05,0,0,0.05,34,0)" xlink:href="#bW"/><use transform="matrix(0.05,0,0,0.05,44,0)" xlink:href="#bW"/><use transform="matrix(0.05,0,0,0.05,54,0)" xlink:href="#co"/><use transform="matrix(0.05,0,0,0.05,64,0)" xlink:href="#bA"/><use transform="matrix(0.05,0,0,0.05,74,0)" xlink:href="#bC"/><use transform="matrix(0.05,0,0,0.05,83,0)" xlink:href="#bD"/></g><g id="aK"><use transform="matrix(0.05,0,0,0.05,0,0)" xlink:href="#bB"/><use transform="matrix(0.05,0,0,0.05,3.95,0)" xlink:href="#bK"/><use transform="matrix(0.05,0,0,0.05,13.949999999999998,0)" xlink:href="#bK"/><use transform="matrix(0.05,0,0,0.05,23.95,0)" xlink:href="#bW"/></g><path d="M190 0L58-211 59 0H30v-248h39L202-35l-2-213h31V0h-41" id="ct"/><g id="aL"><use transform="matrix(0.05,0,0,0.05,0,0)" xlink:href="#ct"/><use transform="matrix(0.05,0,0,0.05,12.950000000000001,0)" xlink:href="#bK"/></g><g id="aN"><use transform="matrix(0.05,0,0,0.05,0,0)" xlink:href="#bM"/><use transform="matrix(0.05,0,0,0.05,12,0)" xlink:href="#bN"/><use transform="matrix(0.05,0,0,0.05,21,0)" xlink:href="#bK"/><use transform="matrix(0.05,0,0,0.05,31,0)" xlink:href="#bE"/><use transform="matrix(0.05,0,0,0.05,36.95,0)" xlink:href="#bD"/></g><g id="aO"><use transform="matrix(0.05,0,0,0.05,0,0)" xlink:href="#bP"/><use transform="matrix(0.05,0,0,0.05,9,0)" xlink:href="#by"/><use transform="matrix(0.05,0,0,0.05,12.949999999999998,0)" xlink:href="#bC"/><use transform="matrix(0.05,0,0,0.05,21.95,0)" xlink:href="#bD"/><use transform="matrix(0.05,0,0,0.05,31.950000000000003,0)" xlink:href="#bC"/></g><g id="aP"><use transform="matrix(0.05,0,0,0.05,0,0)" xlink:href="#bL"/><use transform="matrix(0.05,0,0,0.05,10,0)" xlink:href="#by"/><use transform="matrix(0.05,0,0,0.05,13.949999999999998,0)" xlink:href="#bC"/><use transform="matrix(0.05,0,0,0.05,22.95,0)" xlink:href="#bW"/><use transform="matrix(0.05,0,0,0.05,32.95,0)" xlink:href="#bB"/><use transform="matrix(0.05,0,0,0.05,36.900000000000006,0)" xlink:href="#bA"/><use transform="matrix(0.05,0,0,0.05,46.900000000000006,0)" xlink:href="#bI"/><use transform="matrix(0.05,0,0,0.05,55.900000000000006,0)" xlink:href="#bY"/><use transform="matrix(0.05,0,0,0.05,61.85,0)" xlink:href="#bZ"/></g><g id="aQ"><use transform="matrix(0.05,0,0,0.05,0,0)" xlink:href="#ce"/><use transform="matrix(0.05,0,0,0.05,5,0)" xlink:href="#bK"/><use transform="matrix(0.05,0,0,0.05,15,0)" xlink:href="#bE"/></g><g id="aR"><use transform="matrix(0.05,0,0,0.05,0,0)" xlink:href="#bB"/><use transform="matrix(0.05,0,0,0.05,3.95,0)" xlink:href="#bK"/><use transform="matrix(0.05,0,0,0.05,13.949999999999998,0)" xlink:href="#bK"/><use transform="matrix(0.05,0,0,0.05,23.95,0)" xlink:href="#bW"/></g><g id="aS"><use transform="matrix(0.05,0,0,0.05,0,0)" xlink:href="#bF"/><use transform="matrix(0.05,0,0,0.05,9,0)" xlink:href="#cj"/><use transform="matrix(0.05,0,0,0.05,19.950000000000003,0)" xlink:href="#bE"/><use transform="matrix(0.05,0,0,0.05,25.900000000000002,0)" xlink:href="#bD"/><use transform="matrix(0.05,0,0,0.05,35.900000000000006,0)" xlink:href="#bE"/></g><g id="aT"><use transform="matrix(0.05,0,0,0.05,0,0)" xlink:href="#bU"/><use transform="matrix(0.05,0,0,0.05,10,0)" xlink:href="#bD"/><use transform="matrix(0.05,0,0,0.05,20,0)" xlink:href="#bx"/><use transform="matrix(0.05,0,0,0.05,30,0)" xlink:href="#bx"/><use transform="matrix(0.05,0,0,0.05,40,0)" xlink:href="#bD"/><use transform="matrix(0.05,0,0,0.05,50,0)" xlink:href="#bT"/></g><g id="aU"><use transform="matrix(0.05,0,0,0.05,0,0)" xlink:href="#bA"/><use transform="matrix(0.05,0,0,0.05,10,0)" xlink:href="#bB"/><use transform="matrix(0.05,0,0,0.05,13.949999999999998,0)" xlink:href="#bB"/><use transform="matrix(0.05,0,0,0.05,17.9,0)" xlink:href="#bD"/></g><g id="aV"><use transform="matrix(0.05,0,0,0.05,0,0)" xlink:href="#cs"/><use transform="matrix(0.05,0,0,0.05,14.950000000000001,0)" xlink:href="#by"/><use transform="matrix(0.05,0,0,0.05,18.900000000000002,0)" xlink:href="#bx"/><use transform="matrix(0.05,0,0,0.05,28.900000000000002,0)" xlink:href="#bD"/><use transform="matrix(0.05,0,0,0.05,38.900000000000006,0)" xlink:href="#bE"/><use transform="matrix(0.05,0,0,0.05,44.85000000000001,0)" xlink:href="#bA"/><use transform="matrix(0.05,0,0,0.05,54.85,0)" xlink:href="#bB"/></g><g id="aW"><use transform="matrix(0.05,0,0,0.05,0,0)" xlink:href="#cs"/><use transform="matrix(0.05,0,0,0.05,14.950000000000001,0)" xlink:href="#by"/><use transform="matrix(0.05,0,0,0.05,18.900000000000002,0)" xlink:href="#bx"/><use transform="matrix(0.05,0,0,0.05,28.900000000000002,0)" xlink:href="#bD"/><use transform="matrix(0.05,0,0,0.05,38.900000000000006,0)" xlink:href="#bE"/><use transform="matrix(0.05,0,0,0.05,44.85000000000001,0)" xlink:href="#bA"/><use transform="matrix(0.05,0,0,0.05,54.85,0)" xlink:href="#bB"/><use transform="matrix(0.05,0,0,0.05,58.80000000000001,0)" xlink:href="#bD"/><use transform="matrix(0.05,0,0,0.05,68.80000000000001,0)" xlink:href="#bE"/></g><g id="aX"><use transform="matrix(0.05,0,0,0.05,0,0)" xlink:href="#bP"/><use transform="matrix(0.05,0,0,0.05,9,0)" xlink:href="#by"/><use transform="matrix(0.05,0,0,0.05,12.949999999999998,0)" xlink:href="#bC"/><use transform="matrix(0.05,0,0,0.05,21.95,0)" xlink:href="#bD"/><use transform="matrix(0.05,0,0,0.05,31.950000000000003,0)" xlink:href="#bC"/></g><g id="aY"><use transform="matrix(0.05,0,0,0.05,0,0)" xlink:href="#bT"/><use transform="matrix(0.05,0,0,0.05,14.950000000000001,0)" xlink:href="#bD"/><use transform="matrix(0.05,0,0,0.05,24.950000000000003,0)" xlink:href="#bL"/></g><g id="aZ"><use transform="matrix(0.05,0,0,0.05,0,0)" xlink:href="#bW"/><use transform="matrix(0.05,0,0,0.05,10,0)" xlink:href="#bB"/><use transform="matrix(0.05,0,0,0.05,13.949999999999998,0)" xlink:href="#bA"/><use transform="matrix(0.05,0,0,0.05,23.95,0)" xlink:href="#bI"/><use transform="matrix(0.05,0,0,0.05,32.95,0)" xlink:href="#bD"/><use transform="matrix(0.05,0,0,0.05,42.95,0)" xlink:href="#bE"/><use transform="matrix(0.05,0,0,0.05,47.900000000000006,0)" xlink:href="#ck"/><use transform="matrix(0.05,0,0,0.05,52.900000000000006,0)" xlink:href="#bU"/><use transform="matrix(0.05,0,0,0.05,62.900000000000006,0)" xlink:href="#bE"/><use transform="matrix(0.05,0,0,0.05,68.85000000000001,0)" xlink:href="#bA"/><use transform="matrix(0.05,0,0,0.05,78.85000000000001,0)" xlink:href="#bW"/><use transform="matrix(0.05,0,0,0.05,88.85000000000001,0)" xlink:href="#bY"/><use transform="matrix(0.05,0,0,0.05,94.80000000000001,0)" xlink:href="#bZ"/></g><g id="ba"><use transform="matrix(0.05,0,0,0.05,0,0)" xlink:href="#bF"/><use transform="matrix(0.05,0,0,0.05,9,0)" xlink:href="#bA"/><use transform="matrix(0.05,0,0,0.05,19,0)" xlink:href="#bB"/><use transform="matrix(0.05,0,0,0.05,22.95,0)" xlink:href="#bL"/><use transform="matrix(0.05,0,0,0.05,32.95,0)" xlink:href="#bD"/><use transform="matrix(0.05,0,0,0.05,42.95,0)" xlink:href="#bC"/></g><path d="M212-179c-10-28-35-45-73-45-59 0-87 40-87 99 0 60 29 101 89 101 43 0 62-24 78-52l27 14C228-24 195 4 139 4 59 4 22-46 18-125c-6-104 99-153 187-111 19 9 31 26 39 46" id="cu"/><g id="bb"><use transform="matrix(0.05,0,0,0.05,0,0)" xlink:href="#bT"/><use transform="matrix(0.05,0,0,0.05,14.950000000000001,0)" xlink:href="#by"/><use transform="matrix(0.05,0,0,0.05,18.900000000000002,0)" xlink:href="#bx"/><use transform="matrix(0.05,0,0,0.05,28.900000000000002,0)" xlink:href="#bD"/><use transform="matrix(0.05,0,0,0.05,38.900000000000006,0)" xlink:href="#bE"/><use transform="matrix(0.05,0,0,0.05,44.85000000000001,0)" xlink:href="#bA"/><use transform="matrix(0.05,0,0,0.05,54.85,0)" xlink:href="#bB"/><use transform="matrix(0.05,0,0,0.05,58.80000000000001,0)" xlink:href="#cu"/><use transform="matrix(0.05,0,0,0.05,71.75000000000001,0)" xlink:href="#bK"/><use transform="matrix(0.05,0,0,0.05,81.75000000000001,0)" xlink:href="#bB"/><use transform="matrix(0.05,0,0,0.05,85.70000000000002,0)" xlink:href="#bB"/><use transform="matrix(0.05,0,0,0.05,89.65000000000002,0)" xlink:href="#by"/><use transform="matrix(0.05,0,0,0.05,93.60000000000002,0)" xlink:href="#bC"/><use transform="matrix(0.05,0,0,0.05,102.60000000000002,0)" xlink:href="#by"/><use transform="matrix(0.05,0,0,0.05,106.55000000000003,0)" xlink:href="#bK"/><use transform="matrix(0.05,0,0,0.05,116.55000000000003,0)" xlink:href="#bx"/></g><g id="bc"><use transform="matrix(0.05,0,0,0.05,0,0)" xlink:href="#bA"/><use transform="matrix(0.05,0,0,0.05,10,0)" xlink:href="#bE"/><use transform="matrix(0.05,0,0,0.05,15.949999999999998,0)" xlink:href="#bE"/><use transform="matrix(0.05,0,0,0.05,21.9,0)" xlink:href="#bA"/><use transform="matrix(0.05,0,0,0.05,31.899999999999995,0)" xlink:href="#bI"/></g><g id="bd"><use transform="matrix(0.05,0,0,0.05,0,0)" xlink:href="#bC"/><use transform="matrix(0.05,0,0,0.05,9,0)" xlink:href="#bK"/><use transform="matrix(0.05,0,0,0.05,19,0)" xlink:href="#bT"/></g><g id="be"><use transform="matrix(0.05,0,0,0.05,0,0)" xlink:href="#bA"/><use transform="matrix(0.05,0,0,0.05,10,0)" xlink:href="#bE"/><use transform="matrix(0.05,0,0,0.05,15.949999999999998,0)" xlink:href="#bU"/><use transform="matrix(0.05,0,0,0.05,25.950000000000003,0)" xlink:href="#cb"/><use transform="matrix(0.05,0,0,0.05,35.95,0)" xlink:href="#bT"/><use transform="matrix(0.05,0,0,0.05,50.900000000000006,0)" xlink:href="#bD"/><use transform="matrix(0.05,0,0,0.05,60.900000000000006,0)" xlink:href="#bx"/><use transform="matrix(0.05,0,0,0.05,70.9,0)" xlink:href="#bz"/><use transform="matrix(0.05,0,0,0.05,75.9,0)" xlink:href="#ck"/></g><path d="M63-220v92h138v28H63V0H30v-248h175v28H63" id="cv"/><g id="bf"><use transform="matrix(0.05,0,0,0.05,0,0)" xlink:href="#cv"/><use transform="matrix(0.05,0,0,0.05,10.950000000000001,0)" xlink:href="#bK"/><use transform="matrix(0.05,0,0,0.05,20.950000000000003,0)" xlink:href="#bE"/></g><g id="bg"><use transform="matrix(0.05,0,0,0.05,0,0)" xlink:href="#cs"/><use transform="matrix(0.05,0,0,0.05,14.950000000000001,0)" xlink:href="#by"/><use transform="matrix(0.05,0,0,0.05,18.900000000000002,0)" xlink:href="#bx"/><use transform="matrix(0.05,0,0,0.05,28.900000000000002,0)" xlink:href="#bD"/><use transform="matrix(0.05,0,0,0.05,38.900000000000006,0)" xlink:href="#bE"/><use transform="matrix(0.05,0,0,0.05,44.85000000000001,0)" xlink:href="#bA"/><use transform="matrix(0.05,0,0,0.05,54.85,0)" xlink:href="#bB"/><use transform="matrix(0.05,0,0,0.05,58.80000000000001,0)" xlink:href="#ck"/><use transform="matrix(0.05,0,0,0.05,63.80000000000001,0)" xlink:href="#bN"/><use transform="matrix(0.05,0,0,0.05,72.80000000000001,0)" xlink:href="#bA"/><use transform="matrix(0.05,0,0,0.05,82.80000000000001,0)" xlink:href="#cb"/><use transform="matrix(0.05,0,0,0.05,92.80000000000001,0)" xlink:href="#bU"/><use transform="matrix(0.05,0,0,0.05,102.80000000000001,0)" xlink:href="#co"/><use transform="matrix(0.05,0,0,0.05,112.80000000000001,0)" xlink:href="#bz"/></g><g id="bi"><use transform="matrix(0.05,0,0,0.05,0,0)" xlink:href="#cv"/><use transform="matrix(0.05,0,0,0.05,10.950000000000001,0)" xlink:href="#bR"/><use transform="matrix(0.05,0,0,0.05,14.9,0)" xlink:href="#bD"/><use transform="matrix(0.05,0,0,0.05,24.900000000000002,0)" xlink:href="#bE"/><use transform="matrix(0.05,0,0,0.05,30.85,0)" xlink:href="#bx"/></g><g id="bj"><use transform="matrix(0.05,0,0,0.05,0,0)" xlink:href="#bL"/><use transform="matrix(0.05,0,0,0.05,10,0)" xlink:href="#bD"/><use transform="matrix(0.05,0,0,0.05,20,0)" xlink:href="#bE"/></g><g id="bk"><use transform="matrix(0.05,0,0,0.05,0,0)" xlink:href="#bD"/><use transform="matrix(0.05,0,0,0.05,10,0)" xlink:href="#bE"/></g><g id="bl"><use transform="matrix(0.05,0,0,0.05,0,0)" xlink:href="#bN"/><use transform="matrix(0.05,0,0,0.05,9,0)" xlink:href="#bA"/><use transform="matrix(0.05,0,0,0.05,19,0)" xlink:href="#cb"/><use transform="matrix(0.05,0,0,0.05,29,0)" xlink:href="#bU"/><use transform="matrix(0.05,0,0,0.05,39,0)" xlink:href="#co"/><use transform="matrix(0.05,0,0,0.05,49,0)" xlink:href="#bz"/></g><g id="bm"><use transform="matrix(0.05,0,0,0.05,0,0)" xlink:href="#ck"/><use transform="matrix(0.05,0,0,0.05,5,0)" xlink:href="#bE"/><use transform="matrix(0.05,0,0,0.05,10.95,0)" xlink:href="#bD"/><use transform="matrix(0.05,0,0,0.05,20.95,0)" xlink:href="#bT"/><use transform="matrix(0.05,0,0,0.05,35.9,0)" xlink:href="#bK"/><use transform="matrix(0.05,0,0,0.05,45.9,0)" xlink:href="#bP"/><use transform="matrix(0.05,0,0,0.05,54.900000000000006,0)" xlink:href="#bD"/><use transform="matrix(0.05,0,0,0.05,64.9,0)" xlink:href="#bY"/><use transform="matrix(0.05,0,0,0.05,70.85000000000001,0)" xlink:href="#bZ"/></g><g id="bn"><use transform="matrix(0.05,0,0,0.05,0,0)" xlink:href="#bw"/><use transform="matrix(0.05,0,0,0.05,5,0)" xlink:href="#bx"/><use transform="matrix(0.05,0,0,0.05,15,0)" xlink:href="#bU"/><use transform="matrix(0.05,0,0,0.05,25,0)" xlink:href="#bD"/><use transform="matrix(0.05,0,0,0.05,35,0)" xlink:href="#bx"/><use transform="matrix(0.05,0,0,0.05,45,0)" xlink:href="#bz"/><use transform="matrix(0.05,0,0,0.05,50,0)" xlink:href="#by"/><use transform="matrix(0.05,0,0,0.05,53.95,0)" xlink:href="#bx"/><use transform="matrix(0.05,0,0,0.05,63.95,0)" xlink:href="#bU"/></g><path d="M30 0v-248h187v28H63v79h144v27H63v87h162V0H30" id="cw"/><g id="bo"><use transform="matrix(0.05,0,0,0.05,0,0)" xlink:href="#cw"/><use transform="matrix(0.05,0,0,0.05,12,0)" xlink:href="#bE"/></g><g id="bp"><use transform="matrix(0.05,0,0,0.05,0,0)" xlink:href="#bL"/><use transform="matrix(0.05,0,0,0.05,10,0)" xlink:href="#bD"/><use transform="matrix(0.05,0,0,0.05,20,0)" xlink:href="#bE"/></g><g id="bq"><use transform="matrix(0.05,0,0,0.05,0,0)" xlink:href="#ce"/><use transform="matrix(0.05,0,0,0.05,5,0)" xlink:href="#bB"/><use transform="matrix(0.05,0,0,0.05,8.95,0)" xlink:href="#bD"/><use transform="matrix(0.05,0,0,0.05,18.95,0)" xlink:href="#bE"/><use transform="matrix(0.05,0,0,0.05,24.9,0)" xlink:href="#bD"/></g><g id="br"><use transform="matrix(0.05,0,0,0.05,0,0)" xlink:href="#bz"/><use transform="matrix(0.05,0,0,0.05,5,0)" xlink:href="#by"/><use transform="matrix(0.05,0,0,0.05,8.95,0)" xlink:href="#bB"/><use transform="matrix(0.05,0,0,0.05,12.899999999999999,0)" xlink:href="#bQ"/><use transform="matrix(0.05,0,0,0.05,22.9,0)" xlink:href="#bA"/><use transform="matrix(0.05,0,0,0.05,32.9,0)" xlink:href="#bU"/><use transform="matrix(0.05,0,0,0.05,42.9,0)" xlink:href="#bD"/><use transform="matrix(0.05,0,0,0.05,52.900000000000006,0)" xlink:href="#bX"/></g><g id="bs"><use transform="matrix(0.05,0,0,0.05,0,0)" xlink:href="#bJ"/><use transform="matrix(0.05,0,0,0.05,14,0)" xlink:href="#bA"/><use transform="matrix(0.05,0,0,0.05,24,0)" xlink:href="#bT"/><use transform="matrix(0.05,0,0,0.05,38.95,0)" xlink:href="#bD"/><use transform="matrix(0.05,0,0,0.05,48.95,0)" xlink:href="#bB"/><use transform="matrix(0.05,0,0,0.05,52.900000000000006,0)" xlink:href="#bK"/><use transform="matrix(0.05,0,0,0.05,62.900000000000006,0)" xlink:href="#bK"/><use transform="matrix(0.05,0,0,0.05,72.9,0)" xlink:href="#bW"/></g><g id="bt"><use transform="matrix(0.05,0,0,0.05,0,0)" xlink:href="#bC"/><use transform="matrix(0.05,0,0,0.05,9,0)" xlink:href="#bz"/><use transform="matrix(0.05,0,0,0.05,14,0)" xlink:href="#bK"/><use transform="matrix(0.05,0,0,0.05,24,0)" xlink:href="#bW"/><use transform="matrix(0.05,0,0,0.05,34,0)" xlink:href="#bW"/><use transform="matrix(0.05,0,0,0.05,44,0)" xlink:href="#bD"/><use transform="matrix(0.05,0,0,0.05,54,0)" xlink:href="#bC"/></g><g id="bu"><use transform="matrix(0.05,0,0,0.05,0,0)" xlink:href="#bJ"/><use transform="matrix(0.05,0,0,0.05,14,0)" xlink:href="#bA"/><use transform="matrix(0.05,0,0,0.05,24,0)" xlink:href="#bT"/><use transform="matrix(0.05,0,0,0.05,38.95,0)" xlink:href="#bD"/></g><g id="bv"><use transform="matrix(0.05,0,0,0.05,0,0)" xlink:href="#cw"/><use transform="matrix(0.05,0,0,0.05,12,0)" xlink:href="#bx"/><use transform="matrix(0.05,0,0,0.05,22,0)" xlink:href="#bL"/><use transform="matrix(0.05,0,0,0.05,32,0)" xlink:href="#by"/><use transform="matrix(0.05,0,0,0.05,35.95,0)" xlink:href="#bx"/><use transform="matrix(0.05,0,0,0.05,45.95,0)" xlink:href="#bU"/></g></defs></g></svg>