<svg xmlns="http://www.w3.org/2000/svg" xmlns:xlink="http://www.w3.org/1999/xlink" xmlns:lucid="lucid" width="1292" height="1821"><g transform="translate(0 0)" lucid:page-tab-id="0_0"><path d="M560 920h160l-80 120z" stroke="#000" stroke-width="2" fill="#99d5ca"/><use xlink:href="#a" transform="matrix(1,0,0,1,565,925) translate(30.079999999999995 38.902719999999995)"/><use xlink:href="#b" transform="matrix(1,0,0,1,565,925) translate(113.98 38.902719999999995)"/><use xlink:href="#c" transform="matrix(1,0,0,1,565,925) translate(43.505 60.50272)"/><path d="M500 940c17.67 0 32 17.9 32 40s-14.33 40-32 40h-96c-17.67 0-32-17.9-32-40s14.33-40 32-40z" stroke="#000" stroke-width="2" fill="#99d5ca"/><use xlink:href="#d" transform="matrix(1,0,0,1,377,945) translate(33.05 38.4625)"/><use xlink:href="#e" transform="matrix(1,0,0,1,377,945) translate(76 38.4625)"/><path d="M978.7 1329.7c17.67 0 32 17.9 32 40s-14.33 40-32 40h-96c-17.67 0-32-17.9-32-40s14.33-40 32-40z" stroke="#000" stroke-width="2" fill="#99d5ca"/><use xlink:href="#f" transform="matrix(1,0,0,1,855.699999999977,1334.7047988097413) translate(28.525 38.4625)"/><use xlink:href="#e" transform="matrix(1,0,0,1,855.699999999977,1334.7047988097413) translate(80.525 38.4625)"/><path d="M372 1100h160v120H372z" stroke="#000" stroke-width="2" fill="#a3d977"/><use xlink:href="#g" transform="matrix(1,0,0,1,377,1105) translate(11.125 38.4625)"/><use xlink:href="#h" transform="matrix(1,0,0,1,377,1105) translate(76.025 38.4625)"/><use xlink:href="#i" transform="matrix(1,0,0,1,377,1105) translate(40.099999999999994 60.0625)"/><use xlink:href="#j" transform="matrix(1,0,0,1,377,1105) translate(105.95 60.0625)"/><use xlink:href="#k" transform="matrix(1,0,0,1,377,1105) translate(20.549999999999997 81.66250000000001)"/><path d="M452 1022v58.5" stroke="#000" stroke-width="2" fill="none"/><path d="M453 1022.03h-2V1021h2z"/><path d="M452 1095.76l-4.64-14.26h9.28z" stroke="#000" stroke-width="2"/><path d="M304.4 442h60l20 40-20 40h-60l-20-40z" stroke="#000" stroke-width="2" fill="#d1bcd2"/><use xlink:href="#l" transform="matrix(1,0,0,1,289.39999999999964,447.00000000000006) translate(23.05 38.4625)"/><path d="M414.4 442h60l20 40-20 40h-60l-20-40z" stroke="#000" stroke-width="2" fill="#d1bcd2"/><use xlink:href="#m" transform="matrix(1,0,0,1,399.39999999999964,447.00000000000006) translate(20.55 38.4625)"/><path d="M964.4 442h60l20 40-20 40h-60l-20-40z" stroke="#000" stroke-width="2" fill="#d1bcd2"/><use xlink:href="#n" transform="matrix(1,0,0,1,949.3999999999996,447.0000000000001) translate(23.049999999999997 38.4625)"/><path d="M1074.4 442h60l20 40-20 40h-60l-20-40z" stroke="#000" stroke-width="2" fill="#d1bcd2"/><use xlink:href="#o" transform="matrix(1,0,0,1,1059.3999999999996,447.00000000000006) translate(19.049999999999997 38.4625)"/><path d="M524.4 442h60l20 40-20 40h-60l-20-40z" stroke="#000" stroke-width="2" fill="#d1bcd2"/><use xlink:href="#p" transform="matrix(1,0,0,1,509.39999999999964,447.00000000000006) translate(14.049999999999997 38.4625)"/><path d="M712.4 137c17.67 0 32 17.9 32 40s-14.33 40-32 40h-96c-17.67 0-32-17.9-32-40s14.33-40 32-40z" stroke="#000" stroke-width="2" fill="#99d5ca"/><use xlink:href="#q" transform="matrix(1,0,0,1,589.3999999999996,141.99999999999994) translate(22.624999999999993 38.4625)"/><use xlink:href="#e" transform="matrix(1,0,0,1,589.3999999999996,141.99999999999994) translate(86.42500000000001 38.4625)"/><path d="M304.4 623h160v120h-160z" stroke="#000" stroke-width="2" fill="#3aa6dd"/><path d="M320.4 623v120m128-120v120" stroke="#000" stroke-width="2" fill="none"/><use xlink:href="#r" transform="matrix(1,0,0,1,329.39999999999964,628) translate(15.624999999999993 47.8)"/><use xlink:href="#b" transform="matrix(1,0,0,1,329.39999999999964,628) translate(88.42500000000001 47.8)"/><use xlink:href="#s" transform="matrix(1,0,0,1,329.39999999999964,628) translate(2.075000000000003 69.4)"/><use xlink:href="#t" transform="matrix(1,0,0,1,329.39999999999964,628) translate(44.975 69.4)"/><path d="M334.4 524v48.5h50v31" stroke="#000" stroke-width="2" fill="none"/><path d="M335.4 524.03h-2V523h2z"/><path d="M384.4 618.76l-4.64-14.26h9.28z" stroke="#000" stroke-width="2"/><path d="M444.4 524v48.5h-60v31" stroke="#000" stroke-width="2" fill="none"/><path d="M445.4 524.03h-2V523h2z"/><path d="M384.4 618.76l-4.64-14.26h9.28z" stroke="#000" stroke-width="2"/><path d="M554.4 524v48.5h-170v31" stroke="#000" stroke-width="2" fill="none"/><path d="M555.4 524.03h-2V523h2z"/><path d="M384.4 618.76l-4.64-14.26h9.28z" stroke="#000" stroke-width="2"/><path d="M854.4 442h60l20 40-20 40h-60l-20-40z" stroke="#000" stroke-width="2" fill="#d1bcd2"/><use xlink:href="#u" transform="matrix(1,0,0,1,839.3999999999996,447.00000000000006) translate(18 38.4625)"/><path d="M190.7 442h80v120h-80z" fill="none"/><path d="M270.7 562c-4.14 0-7.5-3.36-7.5-7.5v-45c0-4.14-3.36-7.5-7.5-7.5 4.14 0 7.5-3.36 7.5-7.5v-45c0-4.14 3.36-7.5 7.5-7.5" stroke="#000" stroke-width="2" fill="none"/><use xlink:href="#v" transform="matrix(1,0,0,1,195.69999999997708,447) translate(-35.85000000000001 58.6)"/><path d="M634.4 442h60l20 40-20 40h-60l-20-40z" stroke="#000" stroke-width="2" fill="#d1bcd2"/><use xlink:href="#w" transform="matrix(1,0,0,1,619.3999999999996,447.00000000000006) translate(40 38.4625)"/><path d="M246.4 81h60l20 40-20 40h-60l-20-40z" stroke="#000" stroke-width="2" fill="#d1bcd2"/><use xlink:href="#x" transform="matrix(1,0,0,1,231.39999999993051,85.99999999999994) translate(26 38.4625)"/><path d="M246.4 181h60l20 40-20 40h-60l-20-40z" stroke="#000" stroke-width="2" fill="#d1bcd2"/><use xlink:href="#y" transform="matrix(1,0,0,1,231.39999999993051,185.99999999999994) translate(26 38.4625)"/><path d="M246.4 281h60l20 40-20 40h-60l-20-40z" stroke="#000" stroke-width="2" fill="#d1bcd2"/><use xlink:href="#z" transform="matrix(1,0,0,1,231.39999999993051,285.9999999999999) translate(-14.400000000000006 38.6)"/><path d="M328.52 321h127V175h109.5" stroke="#000" stroke-width="2" fill="none"/><path d="M328.54 322h-1.52l.5-1-.5-1h1.52z"/><path d="M580.3 175L566 179.63v-9.27z" stroke="#000" stroke-width="2"/><path d="M328.52 221h126.94v-44H564.9" stroke="#000" stroke-width="2" fill="none"/><path d="M328.54 222h-1.52l.5-1-.5-1h1.52z"/><path d="M580.16 177l-14.26 4.64v-9.28z" stroke="#000" stroke-width="2"/><path d="M328.52 121h126.94v56H564.9" stroke="#000" stroke-width="2" fill="none"/><path d="M328.54 122h-1.52l.5-1-.5-1h1.52z"/><path d="M580.16 177l-14.26 4.64v-9.28z" stroke="#000" stroke-width="2"/><path d="M664.4 219v174h-330v29.5" stroke="#000" stroke-width="2" fill="none"/><path d="M665.4 219.03h-2V218h2z"/><path d="M334.4 437.76l-4.64-14.26h9.28z" stroke="#000" stroke-width="2"/><path d="M664.4 219v174h-220v29.5" stroke="#000" stroke-width="2" fill="none"/><path d="M665.4 219.03h-2V218h2z"/><path d="M444.4 437.76l-4.64-14.26h9.28z" stroke="#000" stroke-width="2"/><path d="M664.4 219v174h-110v29.5" stroke="#000" stroke-width="2" fill="none"/><path d="M665.4 219.03h-2V218h2z"/><path d="M554.4 437.76l-4.64-14.26h9.28z" stroke="#000" stroke-width="2"/><path d="M664.4 219v173h330v30.5" stroke="#000" stroke-width="2" fill="none"/><path d="M665.4 219.03h-2V218h2z"/><path d="M994.4 437.76l-4.64-14.26h9.28z" stroke="#000" stroke-width="2"/><path d="M664.4 219v174h440v29.5" stroke="#000" stroke-width="2" fill="none"/><path d="M665.4 219.03h-2V218h2z"/><path d="M1104.4 437.76l-4.64-14.26h9.28z" stroke="#000" stroke-width="2"/><path d="M664.4 219v174h220v29.5" stroke="#000" stroke-width="2" fill="none"/><path d="M665.4 219.03h-2V218h2z"/><path d="M884.4 437.76l-4.64-14.26h9.28z" stroke="#000" stroke-width="2"/><path d="M110.7 81h80v280h-80z" fill="none"/><path d="M190.7 361c-9.66 0-17.5-7.84-17.5-17.5v-105c0-9.66-7.84-17.5-17.5-17.5 9.66 0 17.5-7.84 17.5-17.5v-105c0-9.66 7.84-17.5 17.5-17.5" stroke="#000" stroke-width="2" fill="none"/><use xlink:href="#A" transform="matrix(1,0,0,1,115.69999999997708,85.99999999999994) translate(-16.950000000000003 138.6)"/><path d="M804.4 623h160v120h-160z" stroke="#000" stroke-width="2" fill="#3aa6dd"/><path d="M820.4 623v120m128-120v120" stroke="#000" stroke-width="2" fill="none"/><use xlink:href="#B" transform="matrix(1,0,0,1,829.3999999999996,628) translate(0.09999999999999432 37)"/><use xlink:href="#C" transform="matrix(1,0,0,1,829.3999999999996,628) translate(103.95 37)"/><use xlink:href="#D" transform="matrix(1,0,0,1,829.3999999999996,628) translate(26.049999999999997 58.6)"/><use xlink:href="#E" transform="matrix(1,0,0,1,829.3999999999996,628) translate(1.0749999999999957 80.20000000000002)"/><use xlink:href="#F" transform="matrix(1,0,0,1,829.3999999999996,628) translate(60.074999999999996 80.20000000000002)"/><use xlink:href="#G" transform="matrix(1,0,0,1,829.3999999999996,628) translate(77.975 80.20000000000002)"/><path d="M884.4 524v79.5" stroke="#000" stroke-width="2" fill="none"/><path d="M885.4 524.03h-2V523h2z"/><path d="M884.4 618.76l-4.64-14.26h9.28z" stroke="#000" stroke-width="2"/><path d="M744.4 442h60l20 40-20 40h-60l-20-40z" stroke="#000" stroke-width="2" fill="#d1bcd2"/><use xlink:href="#H" transform="matrix(1,0,0,1,729.3999999999996,447.00000000000006) translate(28 38.4625)"/><path d="M554.4 623h220v226h-220z" stroke="#000" stroke-width="2" fill="#3aa6dd"/><path d="M576.4 623v226m176-226v226" stroke="#000" stroke-width="2" fill="none"/><use xlink:href="#I" transform="matrix(1,0,0,1,586.8999999999996,628) translate(-8.225000000000009 36.00000000000001)"/><use xlink:href="#J" transform="matrix(1,0,0,1,586.8999999999996,628) translate(52.074999999999996 57.60000000000001)"/><use xlink:href="#K" transform="matrix(1,0,0,1,586.8999999999996,628) translate(96.975 57.60000000000001)"/><use xlink:href="#L" transform="matrix(1,0,0,1,586.8999999999996,628) translate(21.599999999999994 79.20000000000002)"/><use xlink:href="#M" transform="matrix(1,0,0,1,586.8999999999996,628) translate(61.5 79.20000000000002)"/><use xlink:href="#N" transform="matrix(1,0,0,1,586.8999999999996,628) translate(92.45 79.20000000000002)"/><use xlink:href="#O" transform="matrix(1,0,0,1,586.8999999999996,628) translate(113.4 79.20000000000002)"/><use xlink:href="#P" transform="matrix(1,0,0,1,586.8999999999996,628) translate(14.200000000000003 100.80000000000003)"/><use xlink:href="#Q" transform="matrix(1,0,0,1,586.8999999999996,628) translate(83 100.80000000000003)"/><use xlink:href="#R" transform="matrix(1,0,0,1,586.8999999999996,628) translate(13.524999999999999 122.40000000000002)"/><use xlink:href="#S" transform="matrix(1,0,0,1,586.8999999999996,628) translate(57.525 122.40000000000002)"/><use xlink:href="#T" transform="matrix(1,0,0,1,586.8999999999996,628) translate(101.475 122.40000000000002)"/><use xlink:href="#U" transform="matrix(1,0,0,1,586.8999999999996,628) translate(126.475 122.40000000000002)"/><use xlink:href="#V" transform="matrix(1,0,0,1,586.8999999999996,628) translate(14.074999999999996 144.00000000000003)"/><use xlink:href="#W" transform="matrix(1,0,0,1,586.8999999999996,628) translate(72.025 144.00000000000003)"/><use xlink:href="#X" transform="matrix(1,0,0,1,586.8999999999996,628) translate(19.225 165.6)"/><use xlink:href="#T" transform="matrix(1,0,0,1,586.8999999999996,628) translate(65.025 165.6)"/><use xlink:href="#Y" transform="matrix(1,0,0,1,586.8999999999996,628) translate(90.025 165.6)"/><use xlink:href="#Z" transform="matrix(1,0,0,1,586.8999999999996,628) translate(111.82499999999999 165.6)"/><use xlink:href="#U" transform="matrix(1,0,0,1,586.8999999999996,628) translate(120.775 165.6)"/><use xlink:href="#aa" transform="matrix(1,0,0,1,586.8999999999996,628) translate(57.05 187.20000000000002)"/><path d="M664.4 524v79.5" stroke="#000" stroke-width="2" fill="none"/><path d="M665.4 524.03h-2V523h2z"/><path d="M664.4 618.76l-4.64-14.26h9.28z" stroke="#000" stroke-width="2"/><path d="M774.4 524v48.5h-110v31" stroke="#000" stroke-width="2" fill="none"/><path d="M775.4 524.03h-2V523h2z"/><path d="M664.4 618.76l-4.64-14.26h9.28z" stroke="#000" stroke-width="2"/><path d="M664.4 219v203.5" stroke="#000" stroke-width="2" fill="none"/><path d="M665.4 219.03h-2V218h2z"/><path d="M664.4 437.76l-4.64-14.26h9.28z" stroke="#000" stroke-width="2"/><path d="M664.4 219v173h110v30.5" stroke="#000" stroke-width="2" fill="none"/><path d="M665.4 219.03h-2V218h2z"/><path d="M774.4 437.76l-4.64-14.26h9.28z" stroke="#000" stroke-width="2"/><path d="M92 1300h60l20 40-20 40H92l-20-40z" stroke="#000" stroke-width="2" fill="#d1bcd2"/><use xlink:href="#l" transform="matrix(1,0,0,1,77,1305) translate(23.05 38.4625)"/><path d="M212 1300h60l20 40-20 40h-60l-20-40z" stroke="#000" stroke-width="2" fill="#d1bcd2"/><use xlink:href="#m" transform="matrix(1,0,0,1,197.00000000000003,1305) translate(20.55 38.4625)"/><path d="M432 1300h60l20 40-20 40h-60l-20-40z" stroke="#000" stroke-width="2" fill="#d1bcd2"/><use xlink:href="#n" transform="matrix(1,0,0,1,416.99999999999994,1305) translate(23.049999999999997 38.4625)"/><path d="M542 1300h60l20 40-20 40h-60l-20-40z" stroke="#000" stroke-width="2" fill="#d1bcd2"/><use xlink:href="#o" transform="matrix(1,0,0,1,527,1305) translate(19.049999999999997 38.4625)"/><path d="M322 1300h60l20 40-20 40h-60l-20-40z" stroke="#000" stroke-width="2" fill="#d1bcd2"/><use xlink:href="#p" transform="matrix(1,0,0,1,307,1305) translate(14.049999999999997 38.4625)"/><path d="M652 1300h60l20 40-20 40h-60l-20-40z" stroke="#000" stroke-width="2" fill="#d1bcd2"/><use xlink:href="#H" transform="matrix(1,0,0,1,636.9999999999999,1305) translate(28 38.4625)"/><path d="M32 1100h180v120H32z" stroke="#000" stroke-width="2" fill="#3aa6dd"/><use xlink:href="#ab" transform="matrix(1,0,0,1,37,1105) translate(2.625 59.0875)"/><path d="M452 1222v38H242v20.5" stroke="#000" stroke-width="2" fill="none"/><path d="M453 1222.03h-2V1221h2z"/><path d="M242 1295.76l-4.64-14.26h9.28z" stroke="#000" stroke-width="2"/><path d="M452 1222v38H352v20.5" stroke="#000" stroke-width="2" fill="none"/><path d="M453 1222.03h-2V1221h2z"/><path d="M352 1295.76l-4.64-14.26h9.28z" stroke="#000" stroke-width="2"/><path d="M452 1222v38h10v20.5" stroke="#000" stroke-width="2" fill="none"/><path d="M453 1222.03h-2V1221h2z"/><path d="M462 1295.76l-4.64-14.26h9.28z" stroke="#000" stroke-width="2"/><path d="M452 1222v38h120v20.5" stroke="#000" stroke-width="2" fill="none"/><path d="M453 1222.03h-2V1221h2z"/><path d="M572 1295.76l-4.64-14.26h9.28z" stroke="#000" stroke-width="2"/><path d="M452 1222v38h230v20.5" stroke="#000" stroke-width="2" fill="none"/><path d="M453 1222.03h-2V1221h2z"/><path d="M682 1295.76l-4.64-14.26h9.28z" stroke="#000" stroke-width="2"/><path d="M370 1160H231.5" stroke="#000" stroke-width="2" fill="none"/><path d="M371 1161h-1.03v-2H371z"/><path d="M216.24 1160l14.26-4.64v9.28z" stroke="#000" stroke-width="2"/><path d="M122 1222v58.5" stroke="#000" stroke-width="2" fill="none"/><path d="M123 1222.03h-2V1221h2z"/><path d="M122 1295.76l-4.64-14.26h9.28z" stroke="#000" stroke-width="2"/><path d="M850.7 1469.7h160v120h-160z" stroke="#000" stroke-width="2" fill="#a3d977"/><use xlink:href="#g" transform="matrix(1,0,0,1,855.699999999977,1474.7047988097415) translate(11.125 38.4625)"/><use xlink:href="#h" transform="matrix(1,0,0,1,855.699999999977,1474.7047988097415) translate(76.025 38.4625)"/><use xlink:href="#i" transform="matrix(1,0,0,1,855.699999999977,1474.7047988097415) translate(40.099999999999994 60.0625)"/><use xlink:href="#j" transform="matrix(1,0,0,1,855.699999999977,1474.7047988097415) translate(105.95 60.0625)"/><use xlink:href="#k" transform="matrix(1,0,0,1,855.699999999977,1474.7047988097415) translate(20.549999999999997 81.66250000000001)"/><path d="M575.35 1669.7h60l20 40-20 40h-60l-20-40z" stroke="#000" stroke-width="2" fill="#d1bcd2"/><use xlink:href="#l" transform="matrix(1,0,0,1,560.3499999999885,1674.7047988097415) translate(23.05 38.4625)"/><path d="M690.7 1669.7h60l20 40-20 40h-60l-20-40z" stroke="#000" stroke-width="2" fill="#d1bcd2"/><use xlink:href="#m" transform="matrix(1,0,0,1,675.6999999999769,1674.7047988097415) translate(20.55 38.4625)"/><path d="M910.7 1669.7h60l20 40-20 40h-60l-20-40z" stroke="#000" stroke-width="2" fill="#d1bcd2"/><use xlink:href="#n" transform="matrix(1,0,0,1,895.6999999999772,1674.7047988097415) translate(23.049999999999997 38.4625)"/><path d="M1020.7 1669.7h60l20 40-20 40h-60l-20-40z" stroke="#000" stroke-width="2" fill="#d1bcd2"/><use xlink:href="#o" transform="matrix(1,0,0,1,1005.6999999999771,1674.7047988097415) translate(19.049999999999997 38.4625)"/><path d="M800.7 1669.7h60l20 40-20 40h-60l-20-40z" stroke="#000" stroke-width="2" fill="#d1bcd2"/><use xlink:href="#p" transform="matrix(1,0,0,1,785.6999999999772,1674.7047988097415) translate(14.049999999999997 38.4625)"/><path d="M1130.7 1669.7h60l20 40-20 40h-60l-20-40z" stroke="#000" stroke-width="2" fill="#d1bcd2"/><g><use xlink:href="#H" transform="matrix(1,0,0,1,1115.699999999977,1674.7047988097415) translate(28 38.4625)"/></g><path d="M520 1469.7h170.7v120H520z" stroke="#000" stroke-width="2" fill="#3aa6dd"/><g><use xlink:href="#ac" transform="matrix(1,0,0,1,525,1474.7047988097415) translate(-1.875 58.6)"/></g><path d="M930.7 1591.7v38h-210v20.5" stroke="#000" stroke-width="2" fill="none"/><path d="M931.7 1591.73h-2v-1.03h2z"/><path d="M720.7 1665.47l-4.64-14.27h9.28z" stroke="#000" stroke-width="2"/><path d="M930.7 1591.7v38h-100v20.5" stroke="#000" stroke-width="2" fill="none"/><path d="M931.7 1591.73h-2v-1.03h2z"/><path d="M830.7 1665.47l-4.64-14.27h9.28z" stroke="#000" stroke-width="2"/><path d="M930.7 1591.7v38h10v20.5" stroke="#000" stroke-width="2" fill="none"/><path d="M931.7 1591.73h-2v-1.03h2z"/><path d="M940.7 1665.47l-4.64-14.27h9.28z" stroke="#000" stroke-width="2"/><path d="M930.7 1591.7v38h120v20.5" stroke="#000" stroke-width="2" fill="none"/><path d="M931.7 1591.73h-2v-1.03h2z"/><path d="M1050.7 1665.47l-4.64-14.27h9.28z" stroke="#000" stroke-width="2"/><path d="M930.7 1591.7v38h230v20.5" stroke="#000" stroke-width="2" fill="none"/><path d="M931.7 1591.73h-2v-1.03h2z"/><path d="M1160.7 1665.47l-4.64-14.27h9.28z" stroke="#000" stroke-width="2"/><path d="M848.7 1529.7H710.2" stroke="#000" stroke-width="2" fill="none"/><path d="M849.7 1530.7h-1.03v-2h1.03z"/><path d="M694.94 1529.7l14.26-4.63v9.27z" stroke="#000" stroke-width="2"/><path d="M605.35 1591.7v58.5" stroke="#000" stroke-width="2" fill="none"/><path d="M606.35 1591.73h-2v-1.03h2z"/><path d="M605.35 1665.47l-4.64-14.27h9.3z" stroke="#000" stroke-width="2"/><path d="M598 980.3h-32v-.3h-14.5" stroke="#000" stroke-width="2" fill="none"/><path d="M599.66 981.3h-1.7v-2h.37z"/><path d="M536.24 980l14.26-4.64v9.28z" stroke="#000" stroke-width="2"/><path d="M682 980.3h248.7v329.9" stroke="#000" stroke-width="2" fill="none"/><path d="M682.03 981.3h-1.7l1.34-2h.36z"/><path d="M930.7 1325.47l-4.64-14.27h9.28z" stroke="#000" stroke-width="2"/><path d="M930.7 1411.7v38.5" stroke="#000" stroke-width="2" fill="none"/><path d="M931.7 1411.73h-2v-1.03h2z"/><path d="M930.7 1465.47l-4.64-14.27h9.28z" stroke="#000" stroke-width="2"/><path d="M554.4 524v48.5h110v31" stroke="#000" stroke-width="2" fill="none"/><path d="M555.4 524.03h-2V523h2z"/><path d="M664.4 618.76l-4.64-14.26h9.28z" stroke="#000" stroke-width="2"/><path d="M70 60h1140.7v820H70z" stroke="#000" stroke-width="2" fill-opacity="0"/><path d="M640.35 882v18H640v.5" stroke="#000" stroke-width="2" fill="none"/><path d="M641.35 882.03h-2V881h2z"/><path d="M640 915.76l-4.64-14.26h9.28z" stroke="#000" stroke-width="2"/><defs><path d="M33 0v-248h34V0H33" id="ad"/><path d="M117-194c89-4 53 116 60 194h-32v-121c0-31-8-49-39-48C34-167 62-67 57 0H25l-1-190h30c1 10-1 24 2 32 11-22 29-35 61-36" id="ae"/><path d="M106-169C34-169 62-67 57 0H25v-261h32l-1 103c12-21 28-36 61-36 89 0 53 116 60 194h-32v-121c2-32-8-49-39-48" id="af"/><path d="M100-194c63 0 86 42 84 106H49c0 40 14 67 53 68 26 1 43-12 49-29l28 8c-11 28-37 45-77 45C44 4 14-33 15-96c1-61 26-98 85-98zm52 81c6-60-76-77-97-28-3 7-6 17-6 28h103" id="ag"/><path d="M114-163C36-179 61-72 57 0H25l-1-190h30c1 12-1 29 2 39 6-27 23-49 58-41v29" id="ah"/><path d="M24-231v-30h32v30H24zM24 0v-190h32V0H24" id="ai"/><path d="M59-47c-2 24 18 29 38 22v24C64 9 27 4 27-40v-127H5v-23h24l9-43h21v43h35v23H59v120" id="aj"/><path d="M141-36C126-15 110 5 73 4 37 3 15-17 15-53c-1-64 63-63 125-63 3-35-9-54-41-54-24 1-41 7-42 31l-33-3c5-37 33-52 76-52 45 0 72 20 72 64v82c-1 20 7 32 28 27v20c-31 9-61-2-59-35zM48-53c0 20 12 33 32 33 41-3 63-29 60-74-43 2-92-5-92 41" id="ak"/><path d="M135-143c-3-34-86-38-87 0 15 53 115 12 119 90S17 21 10-45l28-5c4 36 97 45 98 0-10-56-113-15-118-90-4-57 82-63 122-42 12 7 21 19 24 35" id="al"/><g id="a"><use transform="matrix(0.05,0,0,0.05,0,0)" xlink:href="#ad"/><use transform="matrix(0.05,0,0,0.05,5,0)" xlink:href="#ae"/><use transform="matrix(0.05,0,0,0.05,15,0)" xlink:href="#af"/><use transform="matrix(0.05,0,0,0.05,25,0)" xlink:href="#ag"/><use transform="matrix(0.05,0,0,0.05,35,0)" xlink:href="#ah"/><use transform="matrix(0.05,0,0,0.05,40.95,0)" xlink:href="#ai"/><use transform="matrix(0.05,0,0,0.05,44.900000000000006,0)" xlink:href="#aj"/><use transform="matrix(0.05,0,0,0.05,49.900000000000006,0)" xlink:href="#ak"/><use transform="matrix(0.05,0,0,0.05,59.900000000000006,0)" xlink:href="#ae"/><use transform="matrix(0.05,0,0,0.05,69.9,0)" xlink:href="#al"/></g><path d="M16-82v-28h88v28H16" id="am"/><use transform="matrix(0.05,0,0,0.05,0,0)" xlink:href="#am" id="b"/><path d="M141 0L90-78 38 0H4l68-98-65-92h35l48 74 47-74h35l-64 92 68 98h-35" id="an"/><path d="M85-194c31 0 48 13 60 33l-1-100h32l1 261h-30c-2-10 0-23-3-31C134-8 116 4 85 4 32 4 16-35 15-94c0-66 23-100 70-100zm9 24c-40 0-46 34-46 75 0 40 6 74 45 74 42 0 51-32 51-76 0-42-9-74-50-73" id="ao"/><g id="c"><use transform="matrix(0.05,0,0,0.05,0,0)" xlink:href="#ag"/><use transform="matrix(0.05,0,0,0.05,10,0)" xlink:href="#an"/><use transform="matrix(0.05,0,0,0.05,19,0)" xlink:href="#aj"/><use transform="matrix(0.05,0,0,0.05,24,0)" xlink:href="#ag"/><use transform="matrix(0.05,0,0,0.05,34,0)" xlink:href="#ae"/><use transform="matrix(0.05,0,0,0.05,44,0)" xlink:href="#ao"/><use transform="matrix(0.05,0,0,0.05,54,0)" xlink:href="#al"/></g><path d="M143 4C61 4 22-44 18-125c-5-107 100-154 193-111 17 8 29 25 37 43l-32 9c-13-25-37-40-76-40-61 0-88 39-88 99 0 61 29 100 91 101 35 0 62-11 79-27v-45h-74v-28h105v86C228-13 192 4 143 4" id="ap"/><path d="M100-194c62-1 85 37 85 99 1 63-27 99-86 99S16-35 15-95c0-66 28-99 85-99zM99-20c44 1 53-31 53-75 0-43-8-75-51-75s-53 32-53 75 10 74 51 75" id="aq"/><path d="M24 0v-261h32V0H24" id="ar"/><g id="d"><use transform="matrix(0.05,0,0,0.05,0,0)" xlink:href="#ap"/><use transform="matrix(0.05,0,0,0.05,14,0)" xlink:href="#aq"/><use transform="matrix(0.05,0,0,0.05,24,0)" xlink:href="#ar"/><use transform="matrix(0.05,0,0,0.05,27.950000000000003,0)" xlink:href="#ao"/></g><path d="M96-169c-40 0-48 33-48 73s9 75 48 75c24 0 41-14 43-38l32 2c-6 37-31 61-74 61-59 0-76-41-82-99-10-93 101-131 147-64 4 7 5 14 7 22l-32 3c-4-21-16-35-41-35" id="as"/><g id="e"><use transform="matrix(0.05,0,0,0.05,0,0)" xlink:href="#as"/><use transform="matrix(0.05,0,0,0.05,9,0)" xlink:href="#ar"/><use transform="matrix(0.05,0,0,0.05,12.949999999999998,0)" xlink:href="#ak"/><use transform="matrix(0.05,0,0,0.05,22.95,0)" xlink:href="#al"/><use transform="matrix(0.05,0,0,0.05,31.950000000000003,0)" xlink:href="#al"/></g><path d="M185-189c-5-48-123-54-124 2 14 75 158 14 163 119 3 78-121 87-175 55-17-10-28-26-33-46l33-7c5 56 141 63 141-1 0-78-155-14-162-118-5-82 145-84 179-34 5 7 8 16 11 25" id="at"/><g id="f"><use transform="matrix(0.05,0,0,0.05,0,0)" xlink:href="#at"/><use transform="matrix(0.05,0,0,0.05,12,0)" xlink:href="#aj"/><use transform="matrix(0.05,0,0,0.05,17,0)" xlink:href="#aq"/><use transform="matrix(0.05,0,0,0.05,27,0)" xlink:href="#ae"/><use transform="matrix(0.05,0,0,0.05,37,0)" xlink:href="#ag"/></g><path d="M170 0v-72H74L39 0H4l121-248h212v28H204v79h123v27H204v87h141V0H170zm0-222c-33-8-36 21-46 42L86-99h84v-123" id="au"/><g id="g"><use transform="matrix(0.05,0,0,0.05,0,0)" xlink:href="#au"/><use transform="matrix(0.05,0,0,0.05,18,0)" xlink:href="#ae"/><use transform="matrix(0.05,0,0,0.05,28,0)" xlink:href="#ao"/><use transform="matrix(0.05,0,0,0.05,38,0)" xlink:href="#ah"/><use transform="matrix(0.05,0,0,0.05,43.95,0)" xlink:href="#ag"/><use transform="matrix(0.05,0,0,0.05,53.95,0)" xlink:href="#ah"/></g><path d="M108 0H70L1-190h34L89-25l56-165h34" id="av"/><path d="M115-194c53 0 69 39 70 98 0 66-23 100-70 100C84 3 66-7 56-30L54 0H23l1-261h32v101c10-23 28-34 59-34zm-8 174c40 0 45-34 45-75 0-40-5-75-45-74-42 0-51 32-51 76 0 43 10 73 51 73" id="aw"/><g id="h"><use transform="matrix(0.05,0,0,0.05,0,0)" xlink:href="#av"/><use transform="matrix(0.05,0,0,0.05,9,0)" xlink:href="#ak"/><use transform="matrix(0.05,0,0,0.05,19,0)" xlink:href="#ah"/><use transform="matrix(0.05,0,0,0.05,24.95,0)" xlink:href="#ai"/><use transform="matrix(0.05,0,0,0.05,28.899999999999995,0)" xlink:href="#ak"/><use transform="matrix(0.05,0,0,0.05,38.9,0)" xlink:href="#aw"/><use transform="matrix(0.05,0,0,0.05,48.9,0)" xlink:href="#ag"/><use transform="matrix(0.05,0,0,0.05,58.900000000000006,0)" xlink:href="#ar"/></g><path d="M220-194c63 1 86 42 84 106H170c0 40 13 67 51 68 27 1 43-12 50-29l28 8c-11 29-37 44-78 45-38 0-62-16-74-46-14 27-36 45-76 46-37 0-59-20-59-57-1-64 63-63 126-63 3-35-8-55-41-54-25 0-41 8-44 31l-33-3c1-59 111-68 139-27 13-16 34-24 61-25zM78-20c42-2 63-28 60-74-43 2-94-4-94 41 0 20 13 33 34 33zm193-93c7-60-75-77-95-28-3 7-5 17-5 28h100" id="ax"/><g id="i"><use transform="matrix(0.05,0,0,0.05,0,0)" xlink:href="#av"/><use transform="matrix(0.05,0,0,0.05,9,0)" xlink:href="#ax"/><use transform="matrix(0.05,0,0,0.05,25,0)" xlink:href="#ah"/><use transform="matrix(0.05,0,0,0.05,30.950000000000003,0)" xlink:href="#ao"/><use transform="matrix(0.05,0,0,0.05,40.95,0)" xlink:href="#ai"/><use transform="matrix(0.05,0,0,0.05,44.900000000000006,0)" xlink:href="#ag"/><use transform="matrix(0.05,0,0,0.05,54.900000000000006,0)" xlink:href="#ah"/></g><use transform="matrix(0.05,0,0,0.05,0,0)" xlink:href="#ai" id="j"/><path d="M84 4C-5 8 30-112 23-190h32v120c0 31 7 50 39 49 72-2 45-101 50-169h31l1 190h-30c-1-10 1-25-2-33-11 22-28 36-60 37" id="ay"/><g id="k"><use transform="matrix(0.05,0,0,0.05,0,0)" xlink:href="#as"/><use transform="matrix(0.05,0,0,0.05,9,0)" xlink:href="#aq"/><use transform="matrix(0.05,0,0,0.05,19,0)" xlink:href="#ae"/><use transform="matrix(0.05,0,0,0.05,29,0)" xlink:href="#al"/><use transform="matrix(0.05,0,0,0.05,38,0)" xlink:href="#aj"/><use transform="matrix(0.05,0,0,0.05,43,0)" xlink:href="#ah"/><use transform="matrix(0.05,0,0,0.05,48.95,0)" xlink:href="#ay"/><use transform="matrix(0.05,0,0,0.05,58.95,0)" xlink:href="#as"/><use transform="matrix(0.05,0,0,0.05,67.95,0)" xlink:href="#aj"/><use transform="matrix(0.05,0,0,0.05,72.95,0)" xlink:href="#aq"/><use transform="matrix(0.05,0,0,0.05,82.95,0)" xlink:href="#ah"/><use transform="matrix(0.05,0,0,0.05,88.9,0)" xlink:href="#ag"/><use transform="matrix(0.05,0,0,0.05,98.9,0)" xlink:href="#ae"/></g><path d="M115-194c55 1 70 41 70 98S169 2 115 4C84 4 66-9 55-30l1 105H24l-1-265h31l2 30c10-21 28-34 59-34zm-8 174c40 0 45-34 45-75s-6-73-45-74c-42 0-51 32-51 76 0 43 10 73 51 73" id="az"/><g id="l"><use transform="matrix(0.05,0,0,0.05,0,0)" xlink:href="#al"/><use transform="matrix(0.05,0,0,0.05,9,0)" xlink:href="#az"/><use transform="matrix(0.05,0,0,0.05,19,0)" xlink:href="#ah"/><use transform="matrix(0.05,0,0,0.05,24.95,0)" xlink:href="#ai"/><use transform="matrix(0.05,0,0,0.05,28.899999999999995,0)" xlink:href="#aj"/><use transform="matrix(0.05,0,0,0.05,33.9,0)" xlink:href="#ag"/></g><g id="m"><use transform="matrix(0.05,0,0,0.05,0,0)" xlink:href="#ah"/><use transform="matrix(0.05,0,0,0.05,5.95,0)" xlink:href="#ak"/><use transform="matrix(0.05,0,0,0.05,15.949999999999998,0)" xlink:href="#ao"/><use transform="matrix(0.05,0,0,0.05,25.950000000000003,0)" xlink:href="#ai"/><use transform="matrix(0.05,0,0,0.05,29.899999999999995,0)" xlink:href="#ay"/><use transform="matrix(0.05,0,0,0.05,39.9,0)" xlink:href="#al"/></g><path d="M206 0h-36l-40-164L89 0H53L-1-190h32L70-26l43-164h34l41 164 42-164h31" id="aA"/><g id="n"><use transform="matrix(0.05,0,0,0.05,0,0)" xlink:href="#aA"/><use transform="matrix(0.05,0,0,0.05,12.950000000000001,0)" xlink:href="#aq"/><use transform="matrix(0.05,0,0,0.05,22.950000000000003,0)" xlink:href="#ah"/><use transform="matrix(0.05,0,0,0.05,28.900000000000002,0)" xlink:href="#aj"/><use transform="matrix(0.05,0,0,0.05,33.900000000000006,0)" xlink:href="#af"/></g><path d="M177-190C167-65 218 103 67 71c-23-6-38-20-44-43l32-5c15 47 100 32 89-28v-30C133-14 115 1 83 1 29 1 15-40 15-95c0-56 16-97 71-98 29-1 48 16 59 35 1-10 0-23 2-32h30zM94-22c36 0 50-32 50-73 0-42-14-75-50-75-39 0-46 34-46 75s6 73 46 73" id="aB"/><g id="o"><use transform="matrix(0.05,0,0,0.05,0,0)" xlink:href="#aA"/><use transform="matrix(0.05,0,0,0.05,12.950000000000001,0)" xlink:href="#ag"/><use transform="matrix(0.05,0,0,0.05,22.950000000000003,0)" xlink:href="#ai"/><use transform="matrix(0.05,0,0,0.05,26.900000000000002,0)" xlink:href="#aB"/><use transform="matrix(0.05,0,0,0.05,36.900000000000006,0)" xlink:href="#af"/><use transform="matrix(0.05,0,0,0.05,46.900000000000006,0)" xlink:href="#aj"/></g><g id="p"><use transform="matrix(0.05,0,0,0.05,0,0)" xlink:href="#az"/><use transform="matrix(0.05,0,0,0.05,10,0)" xlink:href="#aq"/><use transform="matrix(0.05,0,0,0.05,20,0)" xlink:href="#al"/><use transform="matrix(0.05,0,0,0.05,29,0)" xlink:href="#ai"/><use transform="matrix(0.05,0,0,0.05,32.95,0)" xlink:href="#aj"/><use transform="matrix(0.05,0,0,0.05,37.95,0)" xlink:href="#ai"/><use transform="matrix(0.05,0,0,0.05,41.900000000000006,0)" xlink:href="#aq"/><use transform="matrix(0.05,0,0,0.05,51.900000000000006,0)" xlink:href="#ae"/></g><path d="M240 0l2-218c-23 76-54 145-80 218h-23L58-218 59 0H30v-248h44l77 211c21-75 51-140 76-211h43V0h-30" id="aC"/><g id="q"><use transform="matrix(0.05,0,0,0.05,0,0)" xlink:href="#aC"/><use transform="matrix(0.05,0,0,0.05,14.950000000000001,0)" xlink:href="#ai"/><use transform="matrix(0.05,0,0,0.05,18.900000000000002,0)" xlink:href="#ae"/><use transform="matrix(0.05,0,0,0.05,28.900000000000002,0)" xlink:href="#ag"/><use transform="matrix(0.05,0,0,0.05,38.900000000000006,0)" xlink:href="#ah"/><use transform="matrix(0.05,0,0,0.05,44.85000000000001,0)" xlink:href="#ak"/><use transform="matrix(0.05,0,0,0.05,54.85,0)" xlink:href="#ar"/></g><path d="M179-190L93 31C79 59 56 82 12 73V49c39 6 53-20 64-50L1-190h34L92-34l54-156h33" id="aD"/><path d="M87 75C49 33 22-17 22-94c0-76 28-126 65-167h31c-38 41-64 92-64 168S80 34 118 75H87" id="aE"/><path d="M33-261c38 41 65 92 65 168S71 34 33 75H2C39 34 66-17 66-93S39-220 2-261h31" id="aF"/><g id="r"><use transform="matrix(0.05,0,0,0.05,0,0)" xlink:href="#ao"/><use transform="matrix(0.05,0,0,0.05,10,0)" xlink:href="#ai"/><use transform="matrix(0.05,0,0,0.05,13.949999999999998,0)" xlink:href="#al"/><use transform="matrix(0.05,0,0,0.05,22.95,0)" xlink:href="#az"/><use transform="matrix(0.05,0,0,0.05,32.95,0)" xlink:href="#ar"/><use transform="matrix(0.05,0,0,0.05,36.900000000000006,0)" xlink:href="#ak"/><use transform="matrix(0.05,0,0,0.05,46.900000000000006,0)" xlink:href="#aD"/><use transform="matrix(0.05,0,0,0.05,55.900000000000006,0)" xlink:href="#aE"/><use transform="matrix(0.05,0,0,0.05,61.85,0)" xlink:href="#aF"/></g><g id="s"><use transform="matrix(0.05,0,0,0.05,0,0)" xlink:href="#av"/><use transform="matrix(0.05,0,0,0.05,9,0)" xlink:href="#ai"/><use transform="matrix(0.05,0,0,0.05,12.949999999999998,0)" xlink:href="#al"/><use transform="matrix(0.05,0,0,0.05,21.95,0)" xlink:href="#ag"/><use transform="matrix(0.05,0,0,0.05,31.950000000000003,0)" xlink:href="#ah"/></g><path d="M24-231v-30h32v30H24zM-9 49c24 4 33-6 33-30v-209h32V24c2 40-23 58-65 49V49" id="aG"/><path d="M143 0L79-87 56-68V0H24v-261h32v163l83-92h37l-77 82L181 0h-38" id="aH"/><g id="t"><use transform="matrix(0.05,0,0,0.05,0,0)" xlink:href="#aq"/><use transform="matrix(0.05,0,0,0.05,10,0)" xlink:href="#aw"/><use transform="matrix(0.05,0,0,0.05,20,0)" xlink:href="#aG"/><use transform="matrix(0.05,0,0,0.05,23.95,0)" xlink:href="#ag"/><use transform="matrix(0.05,0,0,0.05,33.95,0)" xlink:href="#aH"/><use transform="matrix(0.05,0,0,0.05,42.95,0)" xlink:href="#aj"/><use transform="matrix(0.05,0,0,0.05,47.95,0)" xlink:href="#ag"/><use transform="matrix(0.05,0,0,0.05,57.95,0)" xlink:href="#aj"/></g><g id="u"><use transform="matrix(0.05,0,0,0.05,0,0)" xlink:href="#as"/><use transform="matrix(0.05,0,0,0.05,9,0)" xlink:href="#ak"/><use transform="matrix(0.05,0,0,0.05,19,0)" xlink:href="#ay"/><use transform="matrix(0.05,0,0,0.05,29,0)" xlink:href="#aB"/><use transform="matrix(0.05,0,0,0.05,39,0)" xlink:href="#af"/><use transform="matrix(0.05,0,0,0.05,49,0)" xlink:href="#aj"/></g><path d="M212-179c-10-28-35-45-73-45-59 0-87 40-87 99 0 60 29 101 89 101 43 0 62-24 78-52l27 14C228-24 195 4 139 4 59 4 22-46 18-125c-6-104 99-153 187-111 19 9 31 26 39 46" id="aI"/><g id="v"><use transform="matrix(0.05,0,0,0.05,0,0)" xlink:href="#aI"/><use transform="matrix(0.05,0,0,0.05,12.950000000000001,0)" xlink:href="#aq"/><use transform="matrix(0.05,0,0,0.05,22.950000000000003,0)" xlink:href="#ae"/><use transform="matrix(0.05,0,0,0.05,32.95,0)" xlink:href="#al"/><use transform="matrix(0.05,0,0,0.05,41.95,0)" xlink:href="#aj"/><use transform="matrix(0.05,0,0,0.05,46.95,0)" xlink:href="#ah"/><use transform="matrix(0.05,0,0,0.05,52.900000000000006,0)" xlink:href="#ay"/><use transform="matrix(0.05,0,0,0.05,62.900000000000006,0)" xlink:href="#aj"/><use transform="matrix(0.05,0,0,0.05,67.9,0)" xlink:href="#aq"/><use transform="matrix(0.05,0,0,0.05,77.9,0)" xlink:href="#ah"/></g><use transform="matrix(0.05,0,0,0.05,0,0)" xlink:href="#ae" id="w"/><g id="x"><use transform="matrix(0.05,0,0,0.05,0,0)" xlink:href="#an"/><use transform="matrix(0.05,0,0,0.05,9,0)" xlink:href="#az"/><use transform="matrix(0.05,0,0,0.05,19,0)" xlink:href="#aq"/><use transform="matrix(0.05,0,0,0.05,29,0)" xlink:href="#al"/></g><g id="y"><use transform="matrix(0.05,0,0,0.05,0,0)" xlink:href="#aD"/><use transform="matrix(0.05,0,0,0.05,9,0)" xlink:href="#az"/><use transform="matrix(0.05,0,0,0.05,19,0)" xlink:href="#aq"/><use transform="matrix(0.05,0,0,0.05,29,0)" xlink:href="#al"/></g><path d="M210-169c-67 3-38 105-44 169h-31v-121c0-29-5-50-35-48C34-165 62-65 56 0H25l-1-190h30c1 10-1 24 2 32 10-44 99-50 107 0 11-21 27-35 58-36 85-2 47 119 55 194h-31v-121c0-29-5-49-35-48" id="aJ"/><path d="M205 0l-28-72H64L36 0H1l101-248h38L239 0h-34zm-38-99l-47-123c-12 45-31 82-46 123h93" id="aK"/><g id="z"><use transform="matrix(0.05,0,0,0.05,0,0)" xlink:href="#ae"/><use transform="matrix(0.05,0,0,0.05,10,0)" xlink:href="#ay"/><use transform="matrix(0.05,0,0,0.05,20,0)" xlink:href="#aJ"/><use transform="matrix(0.05,0,0,0.05,34.95,0)" xlink:href="#aw"/><use transform="matrix(0.05,0,0,0.05,44.95,0)" xlink:href="#ag"/><use transform="matrix(0.05,0,0,0.05,54.95,0)" xlink:href="#ah"/><use transform="matrix(0.05,0,0,0.05,60.900000000000006,0)" xlink:href="#ad"/><use transform="matrix(0.05,0,0,0.05,65.9,0)" xlink:href="#ae"/><use transform="matrix(0.05,0,0,0.05,75.9,0)" xlink:href="#aK"/><use transform="matrix(0.05,0,0,0.05,87.9,0)" xlink:href="#ah"/><use transform="matrix(0.05,0,0,0.05,93.85000000000001,0)" xlink:href="#ah"/><use transform="matrix(0.05,0,0,0.05,99.80000000000001,0)" xlink:href="#ak"/><use transform="matrix(0.05,0,0,0.05,109.80000000000001,0)" xlink:href="#aD"/></g><g id="A"><use transform="matrix(0.05,0,0,0.05,0,0)" xlink:href="#ak"/><use transform="matrix(0.05,0,0,0.05,10,0)" xlink:href="#ah"/><use transform="matrix(0.05,0,0,0.05,15.949999999999998,0)" xlink:href="#aB"/><use transform="matrix(0.05,0,0,0.05,25.950000000000003,0)" xlink:href="#al"/></g><g id="B"><use transform="matrix(0.05,0,0,0.05,0,0)" xlink:href="#af"/><use transform="matrix(0.05,0,0,0.05,10,0)" xlink:href="#ak"/><use transform="matrix(0.05,0,0,0.05,20,0)" xlink:href="#al"/><use transform="matrix(0.05,0,0,0.05,29,0)" xlink:href="#aI"/><use transform="matrix(0.05,0,0,0.05,41.95,0)" xlink:href="#ak"/><use transform="matrix(0.05,0,0,0.05,51.95,0)" xlink:href="#ay"/><use transform="matrix(0.05,0,0,0.05,61.95,0)" xlink:href="#aB"/><use transform="matrix(0.05,0,0,0.05,71.95,0)" xlink:href="#af"/><use transform="matrix(0.05,0,0,0.05,81.95,0)" xlink:href="#aj"/><use transform="matrix(0.05,0,0,0.05,86.95,0)" xlink:href="#aE"/><use transform="matrix(0.05,0,0,0.05,92.9,0)" xlink:href="#aF"/></g><use transform="matrix(0.05,0,0,0.05,0,0)" xlink:href="#am" id="C"/><g id="D"><use transform="matrix(0.05,0,0,0.05,0,0)" xlink:href="#ax"/><use transform="matrix(0.05,0,0,0.05,16,0)" xlink:href="#ae"/><use transform="matrix(0.05,0,0,0.05,26,0)" xlink:href="#ao"/><use transform="matrix(0.05,0,0,0.05,36,0)" xlink:href="#ah"/><use transform="matrix(0.05,0,0,0.05,41.95,0)" xlink:href="#ag"/><use transform="matrix(0.05,0,0,0.05,51.95,0)" xlink:href="#ah"/></g><g id="E"><use transform="matrix(0.05,0,0,0.05,0,0)" xlink:href="#as"/><use transform="matrix(0.05,0,0,0.05,9,0)" xlink:href="#ak"/><use transform="matrix(0.05,0,0,0.05,19,0)" xlink:href="#ay"/><use transform="matrix(0.05,0,0,0.05,29,0)" xlink:href="#aB"/><use transform="matrix(0.05,0,0,0.05,39,0)" xlink:href="#af"/><use transform="matrix(0.05,0,0,0.05,49,0)" xlink:href="#aj"/></g><g id="F"><use transform="matrix(0.05,0,0,0.05,0,0)" xlink:href="#aj"/><use transform="matrix(0.05,0,0,0.05,5,0)" xlink:href="#ai"/><use transform="matrix(0.05,0,0,0.05,8.95,0)" xlink:href="#ar"/></g><g id="G"><use transform="matrix(0.05,0,0,0.05,0,0)" xlink:href="#aj"/><use transform="matrix(0.05,0,0,0.05,5,0)" xlink:href="#ah"/><use transform="matrix(0.05,0,0,0.05,10.95,0)" xlink:href="#ay"/><use transform="matrix(0.05,0,0,0.05,20.95,0)" xlink:href="#ag"/></g><g id="H"><use transform="matrix(0.05,0,0,0.05,0,0)" xlink:href="#aj"/><use transform="matrix(0.05,0,0,0.05,5,0)" xlink:href="#aD"/><use transform="matrix(0.05,0,0,0.05,14,0)" xlink:href="#az"/><use transform="matrix(0.05,0,0,0.05,24,0)" xlink:href="#ag"/></g><path d="M101-234c-31-9-42 10-38 44h38v23H63V0H32v-167H5v-23h27c-7-52 17-82 69-68v24" id="aL"/><path d="M68-38c1 34 0 65-14 84H32c9-13 17-26 17-46H33v-38h35" id="aM"/><g id="I"><use transform="matrix(0.05,0,0,0.05,0,0)" xlink:href="#aJ"/><use transform="matrix(0.05,0,0,0.05,14.950000000000001,0)" xlink:href="#ai"/><use transform="matrix(0.05,0,0,0.05,18.900000000000002,0)" xlink:href="#ae"/><use transform="matrix(0.05,0,0,0.05,28.900000000000002,0)" xlink:href="#ag"/><use transform="matrix(0.05,0,0,0.05,38.900000000000006,0)" xlink:href="#ah"/><use transform="matrix(0.05,0,0,0.05,44.85000000000001,0)" xlink:href="#ak"/><use transform="matrix(0.05,0,0,0.05,54.85,0)" xlink:href="#ar"/><use transform="matrix(0.05,0,0,0.05,58.80000000000001,0)" xlink:href="#aI"/><use transform="matrix(0.05,0,0,0.05,71.75000000000001,0)" xlink:href="#aq"/><use transform="matrix(0.05,0,0,0.05,81.75000000000001,0)" xlink:href="#ar"/><use transform="matrix(0.05,0,0,0.05,85.70000000000002,0)" xlink:href="#ar"/><use transform="matrix(0.05,0,0,0.05,89.65000000000002,0)" xlink:href="#ai"/><use transform="matrix(0.05,0,0,0.05,93.60000000000002,0)" xlink:href="#al"/><use transform="matrix(0.05,0,0,0.05,102.60000000000002,0)" xlink:href="#ai"/><use transform="matrix(0.05,0,0,0.05,106.55000000000003,0)" xlink:href="#aq"/><use transform="matrix(0.05,0,0,0.05,116.55000000000003,0)" xlink:href="#ae"/><use transform="matrix(0.05,0,0,0.05,126.55000000000003,0)" xlink:href="#aE"/><use transform="matrix(0.05,0,0,0.05,132.50000000000003,0)" xlink:href="#aL"/><use transform="matrix(0.05,0,0,0.05,137.50000000000003,0)" xlink:href="#ar"/><use transform="matrix(0.05,0,0,0.05,141.45000000000002,0)" xlink:href="#aq"/><use transform="matrix(0.05,0,0,0.05,151.45000000000002,0)" xlink:href="#ak"/><use transform="matrix(0.05,0,0,0.05,161.45000000000002,0)" xlink:href="#aj"/><use transform="matrix(0.05,0,0,0.05,166.45000000000002,0)" xlink:href="#aM"/></g><g id="J"><use transform="matrix(0.05,0,0,0.05,0,0)" xlink:href="#aL"/><use transform="matrix(0.05,0,0,0.05,5,0)" xlink:href="#ar"/><use transform="matrix(0.05,0,0,0.05,8.95,0)" xlink:href="#aq"/><use transform="matrix(0.05,0,0,0.05,18.95,0)" xlink:href="#ak"/><use transform="matrix(0.05,0,0,0.05,28.950000000000003,0)" xlink:href="#aj"/><use transform="matrix(0.05,0,0,0.05,33.95,0)" xlink:href="#aF"/></g><use transform="matrix(0.05,0,0,0.05,0,0)" xlink:href="#am" id="K"/><path d="M197 0v-115H63V0H30v-248h33v105h134v-105h34V0h-34" id="aN"/><g id="L"><use transform="matrix(0.05,0,0,0.05,0,0)" xlink:href="#aN"/><use transform="matrix(0.05,0,0,0.05,12.950000000000001,0)" xlink:href="#av"/><use transform="matrix(0.05,0,0,0.05,21.950000000000003,0)" xlink:href="#ai"/><use transform="matrix(0.05,0,0,0.05,25.900000000000002,0)" xlink:href="#al"/></g><g id="M"><use transform="matrix(0.05,0,0,0.05,0,0)" xlink:href="#ao"/><use transform="matrix(0.05,0,0,0.05,10,0)" xlink:href="#ag"/><use transform="matrix(0.05,0,0,0.05,20,0)" xlink:href="#ah"/></g><g id="N"><use transform="matrix(0.05,0,0,0.05,0,0)" xlink:href="#ag"/><use transform="matrix(0.05,0,0,0.05,10,0)" xlink:href="#ah"/></g><g id="O"><use transform="matrix(0.05,0,0,0.05,0,0)" xlink:href="#ag"/><use transform="matrix(0.05,0,0,0.05,10,0)" xlink:href="#ae"/></g><g id="P"><use transform="matrix(0.05,0,0,0.05,0,0)" xlink:href="#aH"/><use transform="matrix(0.05,0,0,0.05,9,0)" xlink:href="#aq"/><use transform="matrix(0.05,0,0,0.05,19,0)" xlink:href="#ar"/><use transform="matrix(0.05,0,0,0.05,22.95,0)" xlink:href="#ar"/><use transform="matrix(0.05,0,0,0.05,26.899999999999995,0)" xlink:href="#ai"/><use transform="matrix(0.05,0,0,0.05,30.849999999999994,0)" xlink:href="#al"/><use transform="matrix(0.05,0,0,0.05,39.849999999999994,0)" xlink:href="#ai"/><use transform="matrix(0.05,0,0,0.05,43.8,0)" xlink:href="#aq"/><use transform="matrix(0.05,0,0,0.05,53.79999999999999,0)" xlink:href="#ae"/></g><g id="Q"><use transform="matrix(0.05,0,0,0.05,0,0)" xlink:href="#aJ"/><use transform="matrix(0.05,0,0,0.05,14.950000000000001,0)" xlink:href="#ag"/><use transform="matrix(0.05,0,0,0.05,24.950000000000003,0)" xlink:href="#ar"/><use transform="matrix(0.05,0,0,0.05,28.900000000000002,0)" xlink:href="#ar"/><use transform="matrix(0.05,0,0,0.05,32.85,0)" xlink:href="#ag"/><use transform="matrix(0.05,0,0,0.05,42.85,0)" xlink:href="#aJ"/></g><g id="R"><use transform="matrix(0.05,0,0,0.05,0,0)" xlink:href="#ao"/><use transform="matrix(0.05,0,0,0.05,10,0)" xlink:href="#ag"/><use transform="matrix(0.05,0,0,0.05,20,0)" xlink:href="#ae"/><use transform="matrix(0.05,0,0,0.05,30,0)" xlink:href="#al"/></g><g id="S"><use transform="matrix(0.05,0,0,0.05,0,0)" xlink:href="#ai"/><use transform="matrix(0.05,0,0,0.05,3.95,0)" xlink:href="#ae"/><use transform="matrix(0.05,0,0,0.05,13.949999999999998,0)" xlink:href="#az"/><use transform="matrix(0.05,0,0,0.05,23.95,0)" xlink:href="#ay"/><use transform="matrix(0.05,0,0,0.05,33.95,0)" xlink:href="#aj"/></g><g id="T"><use transform="matrix(0.05,0,0,0.05,0,0)" xlink:href="#aq"/><use transform="matrix(0.05,0,0,0.05,10,0)" xlink:href="#aB"/></g><g id="U"><use transform="matrix(0.05,0,0,0.05,0,0)" xlink:href="#ag"/><use transform="matrix(0.05,0,0,0.05,10,0)" xlink:href="#aj"/></g><g id="V"><use transform="matrix(0.05,0,0,0.05,0,0)" xlink:href="#aq"/><use transform="matrix(0.05,0,0,0.05,10,0)" xlink:href="#aw"/><use transform="matrix(0.05,0,0,0.05,20,0)" xlink:href="#aG"/><use transform="matrix(0.05,0,0,0.05,23.95,0)" xlink:href="#ag"/><use transform="matrix(0.05,0,0,0.05,33.95,0)" xlink:href="#aH"/><use transform="matrix(0.05,0,0,0.05,42.95,0)" xlink:href="#aj"/><use transform="matrix(0.05,0,0,0.05,47.95,0)" xlink:href="#aM"/></g><g id="W"><use transform="matrix(0.05,0,0,0.05,0,0)" xlink:href="#aB"/><use transform="matrix(0.05,0,0,0.05,10,0)" xlink:href="#ag"/><use transform="matrix(0.05,0,0,0.05,20,0)" xlink:href="#aJ"/><use transform="matrix(0.05,0,0,0.05,34.95,0)" xlink:href="#aJ"/><use transform="matrix(0.05,0,0,0.05,49.900000000000006,0)" xlink:href="#ag"/><use transform="matrix(0.05,0,0,0.05,59.900000000000006,0)" xlink:href="#al"/></g><path d="M47-170H22l-4-78h33" id="aO"/><g id="X"><use transform="matrix(0.05,0,0,0.05,0,0)" xlink:href="#aO"/><use transform="matrix(0.05,0,0,0.05,3.4000000000000004,0)" xlink:href="#aj"/><use transform="matrix(0.05,0,0,0.05,8.4,0)" xlink:href="#aD"/><use transform="matrix(0.05,0,0,0.05,17.4,0)" xlink:href="#az"/><use transform="matrix(0.05,0,0,0.05,27.399999999999995,0)" xlink:href="#ag"/><use transform="matrix(0.05,0,0,0.05,37.4,0)" xlink:href="#aO"/></g><g id="Y"><use transform="matrix(0.05,0,0,0.05,0,0)" xlink:href="#aO"/><use transform="matrix(0.05,0,0,0.05,3.4000000000000004,0)" xlink:href="#ae"/><use transform="matrix(0.05,0,0,0.05,13.4,0)" xlink:href="#aO"/></g><use transform="matrix(0.05,0,0,0.05,0,0)" xlink:href="#ai" id="Z"/><g id="aa"><use transform="matrix(0.05,0,0,0.05,0,0)" xlink:href="#ak"/><use transform="matrix(0.05,0,0,0.05,10,0)" xlink:href="#ah"/><use transform="matrix(0.05,0,0,0.05,15.949999999999998,0)" xlink:href="#ah"/><use transform="matrix(0.05,0,0,0.05,21.9,0)" xlink:href="#ak"/><use transform="matrix(0.05,0,0,0.05,31.899999999999995,0)" xlink:href="#aD"/></g><path d="M33 0v-38h34V0H33" id="aP"/><g id="ab"><use transform="matrix(0.05,0,0,0.05,0,0)" xlink:href="#ar"/><use transform="matrix(0.05,0,0,0.05,3.95,0)" xlink:href="#aq"/><use transform="matrix(0.05,0,0,0.05,13.949999999999998,0)" xlink:href="#ak"/><use transform="matrix(0.05,0,0,0.05,23.95,0)" xlink:href="#ao"/><use transform="matrix(0.05,0,0,0.05,33.95,0)" xlink:href="#ad"/><use transform="matrix(0.05,0,0,0.05,38.95,0)" xlink:href="#aJ"/><use transform="matrix(0.05,0,0,0.05,53.900000000000006,0)" xlink:href="#ak"/><use transform="matrix(0.05,0,0,0.05,63.900000000000006,0)" xlink:href="#aB"/><use transform="matrix(0.05,0,0,0.05,73.9,0)" xlink:href="#ag"/><use transform="matrix(0.05,0,0,0.05,83.9,0)" xlink:href="#aE"/><use transform="matrix(0.05,0,0,0.05,89.85000000000001,0)" xlink:href="#aB"/><use transform="matrix(0.05,0,0,0.05,99.85000000000001,0)" xlink:href="#aq"/><use transform="matrix(0.05,0,0,0.05,109.85000000000001,0)" xlink:href="#ar"/><use transform="matrix(0.05,0,0,0.05,113.80000000000001,0)" xlink:href="#ao"/><use transform="matrix(0.05,0,0,0.05,123.80000000000001,0)" xlink:href="#aP"/><use transform="matrix(0.05,0,0,0.05,128.8,0)" xlink:href="#az"/><use transform="matrix(0.05,0,0,0.05,138.8,0)" xlink:href="#ae"/><use transform="matrix(0.05,0,0,0.05,148.8,0)" xlink:href="#aB"/><use transform="matrix(0.05,0,0,0.05,158.8,0)" xlink:href="#aF"/></g><g id="ac"><use transform="matrix(0.05,0,0,0.05,0,0)" xlink:href="#ar"/><use transform="matrix(0.05,0,0,0.05,3.95,0)" xlink:href="#aq"/><use transform="matrix(0.05,0,0,0.05,13.949999999999998,0)" xlink:href="#ak"/><use transform="matrix(0.05,0,0,0.05,23.95,0)" xlink:href="#ao"/><use transform="matrix(0.05,0,0,0.05,33.95,0)" xlink:href="#ad"/><use transform="matrix(0.05,0,0,0.05,38.95,0)" xlink:href="#aJ"/><use transform="matrix(0.05,0,0,0.05,53.900000000000006,0)" xlink:href="#ak"/><use transform="matrix(0.05,0,0,0.05,63.900000000000006,0)" xlink:href="#aB"/><use transform="matrix(0.05,0,0,0.05,73.9,0)" xlink:href="#ag"/><use transform="matrix(0.05,0,0,0.05,83.9,0)" xlink:href="#aE"/><use transform="matrix(0.05,0,0,0.05,89.85000000000001,0)" xlink:href="#ah"/><use transform="matrix(0.05,0,0,0.05,95.80000000000001,0)" xlink:href="#aq"/><use transform="matrix(0.05,0,0,0.05,105.80000000000001,0)" xlink:href="#as"/><use transform="matrix(0.05,0,0,0.05,114.80000000000001,0)" xlink:href="#aH"/><use transform="matrix(0.05,0,0,0.05,123.80000000000001,0)" xlink:href="#aP"/><use transform="matrix(0.05,0,0,0.05,128.8,0)" xlink:href="#az"/><use transform="matrix(0.05,0,0,0.05,138.8,0)" xlink:href="#ae"/><use transform="matrix(0.05,0,0,0.05,148.8,0)" xlink:href="#aB"/><use transform="matrix(0.05,0,0,0.05,158.8,0)" xlink:href="#aF"/></g></defs></g></svg>