<svg xmlns="http://www.w3.org/2000/svg" xmlns:xlink="http://www.w3.org/1999/xlink" xmlns:lucid="lucid" width="744" height="830"><g transform="translate(-1292 0)" lucid:page-tab-id="0_0"><path d="M1838.3 95c17.67 0 32 17.9 32 40s-14.33 40-32 40h-96c-17.67 0-32-17.9-32-40s14.33-40 32-40z" stroke="#000" stroke-width="2" fill="#99d5ca"/><use xlink:href="#a" transform="matrix(1,0,0,1,1715.2999999999756,100.00000000000006) translate(28.549999999999997 38.4625)"/><use xlink:href="#b" transform="matrix(1,0,0,1,1715.2999999999756,100.00000000000006) translate(80.5 38.4625)"/><path d="M1850.6 323h60l20 40-20 40h-60l-20-40z" stroke="#000" stroke-width="2" fill="#d1bcd2"/><use xlink:href="#c" transform="matrix(1,0,0,1,1835.5999999999758,328) translate(18.025 38.4625)"/><path d="M1630.3 323h60l20 40-20 40h-60l-20-40z" stroke="#000" stroke-width="2" fill="#d1bcd2"/><use xlink:href="#d" transform="matrix(1,0,0,1,1615.2999999999756,328) translate(13.049999999999997 38.4625)"/><path d="M1580.3 481h160v120h-160z" stroke="#000" stroke-width="2" fill="#3aa6dd"/><path d="M1596.3 481v120m128-120v120" stroke="#000" stroke-width="2" fill="none"/><use xlink:href="#e" transform="matrix(1,0,0,1,1605.2999999999756,486) translate(15.624999999999993 47.8)"/><use xlink:href="#f" transform="matrix(1,0,0,1,1605.2999999999756,486) translate(88.42500000000001 47.8)"/><use xlink:href="#g" transform="matrix(1,0,0,1,1605.2999999999756,486) translate(2.075000000000003 69.4)"/><use xlink:href="#h" transform="matrix(1,0,0,1,1605.2999999999756,486) translate(44.975 69.4)"/><path d="M1850.6 680h60l20 40-20 40h-60l-20-40z" stroke="#000" stroke-width="2" fill="#d1bcd2"/><use xlink:href="#i" transform="matrix(1,0,0,1,1835.5999999999758,685) translate(2.0249999999999986 38.4625)"/><path d="M1473.75 40h60l20 40-20 40h-60l-20-40z" stroke="#000" stroke-width="2" fill="#d1bcd2"/><use xlink:href="#j" transform="matrix(1,0,0,1,1458.749999999976,45) translate(26 38.4625)"/><path d="M1473.75 140h60l20 40-20 40h-60l-20-40z" stroke="#000" stroke-width="2" fill="#d1bcd2"/><use xlink:href="#k" transform="matrix(1,0,0,1,1458.749999999976,145) translate(26 38.4625)"/><path d="M1555.87 80h76.2v55h58.73" stroke="#000" stroke-width="2" fill="none"/><path d="M1555.9 81h-1.53l.5-1-.5-1h1.52z"/><path d="M1706.06 135l-14.26 4.64v-9.28z" stroke="#000" stroke-width="2"/><path d="M1555.87 180h76.2v-45h58.73" stroke="#000" stroke-width="2" fill="none"/><path d="M1555.9 181h-1.53l.5-1-.5-1h1.52z"/><path d="M1706.06 135l-14.26 4.64v-9.28z" stroke="#000" stroke-width="2"/><path d="M1790.3 177v72h86.1v54.5" stroke="#000" stroke-width="2" fill="none"/><path d="M1791.3 177.03h-2V176h2z"/><path d="M1876.4 318.76l-4.64-14.26h9.28z" stroke="#000" stroke-width="2"/><path d="M1790.3 177v72h-130v54.5" stroke="#000" stroke-width="2" fill="none"/><path d="M1791.3 177.03h-2V176h2z"/><path d="M1660.3 318.76l-4.64-14.26h9.28z" stroke="#000" stroke-width="2"/><path d="M1340 40h80v180h-80z" fill="none"/><path d="M1420 220c-6.2 0-11.25-5.04-11.25-11.25v-67.5c0-6.2-5.04-11.25-11.25-11.25 6.2 0 11.25-5.04 11.25-11.25v-67.5c0-6.2 5.04-11.25 11.25-11.25" stroke="#000" stroke-width="2" fill="none"/><use xlink:href="#l" transform="matrix(1,0,0,1,1345,45.00000000000003) translate(2.049999999999997 88.60000000000001)"/><path d="M1510 301.5h80v123h-80z" fill="none"/><path d="M1590 424.5c-4.25 0-7.7-3.44-7.7-7.7v-46.1c0-4.26-3.43-7.7-7.68-7.7 4.25 0 7.7-3.44 7.7-7.7v-46.1c0-4.26 3.43-7.7 7.68-7.7" stroke="#000" stroke-width="2" fill="none"/><use xlink:href="#m" transform="matrix(1,0,0,1,1514.9999999999754,306.49999999999994) translate(-45.85000000000001 60.6)"/><path d="M1800.6 478.8h160V640h-160z" stroke="#000" stroke-width="2" fill="#3aa6dd"/><path d="M1816.6 478.8V640m128-161.2V640" stroke="#000" stroke-width="2" fill="none"/><use xlink:href="#n" transform="matrix(1,0,0,1,1825.5999999999758,483.80000000000007) translate(-0.4000000000000057 14.800000000000006)"/><use xlink:href="#o" transform="matrix(1,0,0,1,1825.5999999999758,483.80000000000007) translate(34.575 36.400000000000006)"/><use xlink:href="#p" transform="matrix(1,0,0,1,1825.5999999999758,483.80000000000007) translate(69.475 36.400000000000006)"/><use xlink:href="#q" transform="matrix(1,0,0,1,1825.5999999999758,483.80000000000007) translate(19.049999999999997 58.00000000000001)"/><use xlink:href="#r" transform="matrix(1,0,0,1,1825.5999999999758,483.80000000000007) translate(7.549999999999997 79.60000000000002)"/><use xlink:href="#s" transform="matrix(1,0,0,1,1825.5999999999758,483.80000000000007) translate(52.5 79.60000000000002)"/><use xlink:href="#t" transform="matrix(1,0,0,1,1825.5999999999758,483.80000000000007) translate(23.55 101.20000000000002)"/><use xlink:href="#u" transform="matrix(1,0,0,1,1825.5999999999758,483.80000000000007) translate(54.5 101.20000000000002)"/><use xlink:href="#v" transform="matrix(1,0,0,1,1825.5999999999758,483.80000000000007) translate(16.575000000000003 122.80000000000001)"/><use xlink:href="#w" transform="matrix(1,0,0,1,1825.5999999999758,483.80000000000007) translate(80.525 122.80000000000001)"/><use xlink:href="#x" transform="matrix(1,0,0,1,1825.5999999999758,483.80000000000007) translate(24.625 144.4)"/><path d="M1880.6 642v18.5" stroke="#000" stroke-width="2" fill="none"/><path d="M1881.6 642.03h-2V641h2z"/><path d="M1880.6 675.76l-4.64-14.26h9.28z" stroke="#000" stroke-width="2"/><path d="M1880.6 405v54.3" stroke="#000" stroke-width="2" fill="none"/><path d="M1881.6 405.03h-2V404h2z"/><path d="M1880.6 474.56l-4.64-14.26h9.28z" stroke="#000" stroke-width="2"/><path d="M1660.3 405v56.5" stroke="#000" stroke-width="2" fill="none"/><path d="M1661.3 405.03h-2V404h2z"/><path d="M1660.3 476.76l-4.64-14.26h9.28z" stroke="#000" stroke-width="2"/><path d="M1880.6 405v37h-220.3v19.5" stroke="#000" stroke-width="2" fill="none"/><path d="M1881.6 405.03h-2V404h2z"/><path d="M1660.3 476.76l-4.64-14.26h9.28z" stroke="#000" stroke-width="2"/><defs><path d="M185-189c-5-48-123-54-124 2 14 75 158 14 163 119 3 78-121 87-175 55-17-10-28-26-33-46l33-7c5 56 141 63 141-1 0-78-155-14-162-118-5-82 145-84 179-34 5 7 8 16 11 25" id="y"/><path d="M96-169c-40 0-48 33-48 73s9 75 48 75c24 0 41-14 43-38l32 2c-6 37-31 61-74 61-59 0-76-41-82-99-10-93 101-131 147-64 4 7 5 14 7 22l-32 3c-4-21-16-35-41-35" id="z"/><path d="M100-194c62-1 85 37 85 99 1 63-27 99-86 99S16-35 15-95c0-66 28-99 85-99zM99-20c44 1 53-31 53-75 0-43-8-75-51-75s-53 32-53 75 10 74 51 75" id="A"/><path d="M114-163C36-179 61-72 57 0H25l-1-190h30c1 12-1 29 2 39 6-27 23-49 58-41v29" id="B"/><path d="M100-194c63 0 86 42 84 106H49c0 40 14 67 53 68 26 1 43-12 49-29l28 8c-11 28-37 45-77 45C44 4 14-33 15-96c1-61 26-98 85-98zm52 81c6-60-76-77-97-28-3 7-6 17-6 28h103" id="C"/><g id="a"><use transform="matrix(0.05,0,0,0.05,0,0)" xlink:href="#y"/><use transform="matrix(0.05,0,0,0.05,12,0)" xlink:href="#z"/><use transform="matrix(0.05,0,0,0.05,21,0)" xlink:href="#A"/><use transform="matrix(0.05,0,0,0.05,31,0)" xlink:href="#B"/><use transform="matrix(0.05,0,0,0.05,36.95,0)" xlink:href="#C"/></g><path d="M24 0v-261h32V0H24" id="D"/><path d="M141-36C126-15 110 5 73 4 37 3 15-17 15-53c-1-64 63-63 125-63 3-35-9-54-41-54-24 1-41 7-42 31l-33-3c5-37 33-52 76-52 45 0 72 20 72 64v82c-1 20 7 32 28 27v20c-31 9-61-2-59-35zM48-53c0 20 12 33 32 33 41-3 63-29 60-74-43 2-92-5-92 41" id="E"/><path d="M135-143c-3-34-86-38-87 0 15 53 115 12 119 90S17 21 10-45l28-5c4 36 97 45 98 0-10-56-113-15-118-90-4-57 82-63 122-42 12 7 21 19 24 35" id="F"/><g id="b"><use transform="matrix(0.05,0,0,0.05,0,0)" xlink:href="#z"/><use transform="matrix(0.05,0,0,0.05,9,0)" xlink:href="#D"/><use transform="matrix(0.05,0,0,0.05,12.949999999999998,0)" xlink:href="#E"/><use transform="matrix(0.05,0,0,0.05,22.95,0)" xlink:href="#F"/><use transform="matrix(0.05,0,0,0.05,31.950000000000003,0)" xlink:href="#F"/></g><path d="M210-169c-67 3-38 105-44 169h-31v-121c0-29-5-50-35-48C34-165 62-65 56 0H25l-1-190h30c1 10-1 24 2 32 10-44 99-50 107 0 11-21 27-35 58-36 85-2 47 119 55 194h-31v-121c0-29-5-49-35-48" id="G"/><path d="M117-194c89-4 53 116 60 194h-32v-121c0-31-8-49-39-48C34-167 62-67 57 0H25l-1-190h30c1 10-1 24 2 32 11-22 29-35 61-36" id="H"/><path d="M179-190L93 31C79 59 56 82 12 73V49c39 6 53-20 64-50L1-190h34L92-34l54-156h33" id="I"/><g id="c"><use transform="matrix(0.05,0,0,0.05,0,0)" xlink:href="#G"/><use transform="matrix(0.05,0,0,0.05,14.950000000000001,0)" xlink:href="#A"/><use transform="matrix(0.05,0,0,0.05,24.950000000000003,0)" xlink:href="#H"/><use transform="matrix(0.05,0,0,0.05,34.95,0)" xlink:href="#C"/><use transform="matrix(0.05,0,0,0.05,44.95,0)" xlink:href="#I"/></g><path d="M30-248c87 1 191-15 191 75 0 78-77 80-158 76V0H30v-248zm33 125c57 0 124 11 124-50 0-59-68-47-124-48v98" id="J"/><path d="M24-231v-30h32v30H24zM24 0v-190h32V0H24" id="K"/><path d="M59-47c-2 24 18 29 38 22v24C64 9 27 4 27-40v-127H5v-23h24l9-43h21v43h35v23H59v120" id="L"/><g id="d"><use transform="matrix(0.05,0,0,0.05,0,0)" xlink:href="#J"/><use transform="matrix(0.05,0,0,0.05,12,0)" xlink:href="#A"/><use transform="matrix(0.05,0,0,0.05,22,0)" xlink:href="#F"/><use transform="matrix(0.05,0,0,0.05,31,0)" xlink:href="#K"/><use transform="matrix(0.05,0,0,0.05,34.95,0)" xlink:href="#L"/><use transform="matrix(0.05,0,0,0.05,39.95,0)" xlink:href="#K"/><use transform="matrix(0.05,0,0,0.05,43.900000000000006,0)" xlink:href="#A"/><use transform="matrix(0.05,0,0,0.05,53.900000000000006,0)" xlink:href="#H"/></g><path d="M85-194c31 0 48 13 60 33l-1-100h32l1 261h-30c-2-10 0-23-3-31C134-8 116 4 85 4 32 4 16-35 15-94c0-66 23-100 70-100zm9 24c-40 0-46 34-46 75 0 40 6 74 45 74 42 0 51-32 51-76 0-42-9-74-50-73" id="M"/><path d="M115-194c55 1 70 41 70 98S169 2 115 4C84 4 66-9 55-30l1 105H24l-1-265h31l2 30c10-21 28-34 59-34zm-8 174c40 0 45-34 45-75s-6-73-45-74c-42 0-51 32-51 76 0 43 10 73 51 73" id="N"/><path d="M87 75C49 33 22-17 22-94c0-76 28-126 65-167h31c-38 41-64 92-64 168S80 34 118 75H87" id="O"/><path d="M33-261c38 41 65 92 65 168S71 34 33 75H2C39 34 66-17 66-93S39-220 2-261h31" id="P"/><g id="e"><use transform="matrix(0.05,0,0,0.05,0,0)" xlink:href="#M"/><use transform="matrix(0.05,0,0,0.05,10,0)" xlink:href="#K"/><use transform="matrix(0.05,0,0,0.05,13.949999999999998,0)" xlink:href="#F"/><use transform="matrix(0.05,0,0,0.05,22.95,0)" xlink:href="#N"/><use transform="matrix(0.05,0,0,0.05,32.95,0)" xlink:href="#D"/><use transform="matrix(0.05,0,0,0.05,36.900000000000006,0)" xlink:href="#E"/><use transform="matrix(0.05,0,0,0.05,46.900000000000006,0)" xlink:href="#I"/><use transform="matrix(0.05,0,0,0.05,55.900000000000006,0)" xlink:href="#O"/><use transform="matrix(0.05,0,0,0.05,61.85,0)" xlink:href="#P"/></g><path d="M16-82v-28h88v28H16" id="Q"/><use transform="matrix(0.05,0,0,0.05,0,0)" xlink:href="#Q" id="f"/><path d="M108 0H70L1-190h34L89-25l56-165h34" id="R"/><g id="g"><use transform="matrix(0.05,0,0,0.05,0,0)" xlink:href="#R"/><use transform="matrix(0.05,0,0,0.05,9,0)" xlink:href="#K"/><use transform="matrix(0.05,0,0,0.05,12.949999999999998,0)" xlink:href="#F"/><use transform="matrix(0.05,0,0,0.05,21.95,0)" xlink:href="#C"/><use transform="matrix(0.05,0,0,0.05,31.950000000000003,0)" xlink:href="#B"/></g><path d="M115-194c53 0 69 39 70 98 0 66-23 100-70 100C84 3 66-7 56-30L54 0H23l1-261h32v101c10-23 28-34 59-34zm-8 174c40 0 45-34 45-75 0-40-5-75-45-74-42 0-51 32-51 76 0 43 10 73 51 73" id="S"/><path d="M24-231v-30h32v30H24zM-9 49c24 4 33-6 33-30v-209h32V24c2 40-23 58-65 49V49" id="T"/><path d="M143 0L79-87 56-68V0H24v-261h32v163l83-92h37l-77 82L181 0h-38" id="U"/><g id="h"><use transform="matrix(0.05,0,0,0.05,0,0)" xlink:href="#A"/><use transform="matrix(0.05,0,0,0.05,10,0)" xlink:href="#S"/><use transform="matrix(0.05,0,0,0.05,20,0)" xlink:href="#T"/><use transform="matrix(0.05,0,0,0.05,23.95,0)" xlink:href="#C"/><use transform="matrix(0.05,0,0,0.05,33.95,0)" xlink:href="#U"/><use transform="matrix(0.05,0,0,0.05,42.95,0)" xlink:href="#L"/><use transform="matrix(0.05,0,0,0.05,47.95,0)" xlink:href="#C"/><use transform="matrix(0.05,0,0,0.05,57.95,0)" xlink:href="#L"/></g><path d="M205 0l-28-72H64L36 0H1l101-248h38L239 0h-34zm-38-99l-47-123c-12 45-31 82-46 123h93" id="V"/><g id="i"><use transform="matrix(0.05,0,0,0.05,0,0)" xlink:href="#G"/><use transform="matrix(0.05,0,0,0.05,14.950000000000001,0)" xlink:href="#A"/><use transform="matrix(0.05,0,0,0.05,24.950000000000003,0)" xlink:href="#H"/><use transform="matrix(0.05,0,0,0.05,34.95,0)" xlink:href="#C"/><use transform="matrix(0.05,0,0,0.05,44.95,0)" xlink:href="#I"/><use transform="matrix(0.05,0,0,0.05,53.95,0)" xlink:href="#V"/><use transform="matrix(0.05,0,0,0.05,65.95,0)" xlink:href="#M"/><use transform="matrix(0.05,0,0,0.05,75.95,0)" xlink:href="#M"/></g><path d="M141 0L90-78 38 0H4l68-98-65-92h35l48 74 47-74h35l-64 92 68 98h-35" id="W"/><g id="j"><use transform="matrix(0.05,0,0,0.05,0,0)" xlink:href="#W"/><use transform="matrix(0.05,0,0,0.05,9,0)" xlink:href="#N"/><use transform="matrix(0.05,0,0,0.05,19,0)" xlink:href="#A"/><use transform="matrix(0.05,0,0,0.05,29,0)" xlink:href="#F"/></g><g id="k"><use transform="matrix(0.05,0,0,0.05,0,0)" xlink:href="#I"/><use transform="matrix(0.05,0,0,0.05,9,0)" xlink:href="#N"/><use transform="matrix(0.05,0,0,0.05,19,0)" xlink:href="#A"/><use transform="matrix(0.05,0,0,0.05,29,0)" xlink:href="#F"/></g><path d="M177-190C167-65 218 103 67 71c-23-6-38-20-44-43l32-5c15 47 100 32 89-28v-30C133-14 115 1 83 1 29 1 15-40 15-95c0-56 16-97 71-98 29-1 48 16 59 35 1-10 0-23 2-32h30zM94-22c36 0 50-32 50-73 0-42-14-75-50-75-39 0-46 34-46 75s6 73 46 73" id="X"/><g id="l"><use transform="matrix(0.05,0,0,0.05,0,0)" xlink:href="#E"/><use transform="matrix(0.05,0,0,0.05,10,0)" xlink:href="#B"/><use transform="matrix(0.05,0,0,0.05,15.949999999999998,0)" xlink:href="#X"/><use transform="matrix(0.05,0,0,0.05,25.950000000000003,0)" xlink:href="#F"/></g><path d="M212-179c-10-28-35-45-73-45-59 0-87 40-87 99 0 60 29 101 89 101 43 0 62-24 78-52l27 14C228-24 195 4 139 4 59 4 22-46 18-125c-6-104 99-153 187-111 19 9 31 26 39 46" id="Y"/><path d="M84 4C-5 8 30-112 23-190h32v120c0 31 7 50 39 49 72-2 45-101 50-169h31l1 190h-30c-1-10 1-25-2-33-11 22-28 36-60 37" id="Z"/><g id="m"><use transform="matrix(0.05,0,0,0.05,0,0)" xlink:href="#Y"/><use transform="matrix(0.05,0,0,0.05,12.950000000000001,0)" xlink:href="#A"/><use transform="matrix(0.05,0,0,0.05,22.950000000000003,0)" xlink:href="#H"/><use transform="matrix(0.05,0,0,0.05,32.95,0)" xlink:href="#F"/><use transform="matrix(0.05,0,0,0.05,41.95,0)" xlink:href="#L"/><use transform="matrix(0.05,0,0,0.05,46.95,0)" xlink:href="#B"/><use transform="matrix(0.05,0,0,0.05,52.900000000000006,0)" xlink:href="#Z"/><use transform="matrix(0.05,0,0,0.05,62.900000000000006,0)" xlink:href="#z"/><use transform="matrix(0.05,0,0,0.05,71.9,0)" xlink:href="#L"/><use transform="matrix(0.05,0,0,0.05,76.9,0)" xlink:href="#A"/><use transform="matrix(0.05,0,0,0.05,86.9,0)" xlink:href="#B"/></g><path d="M240 0l2-218c-23 76-54 145-80 218h-23L58-218 59 0H30v-248h44l77 211c21-75 51-140 76-211h43V0h-30" id="aa"/><g id="n"><use transform="matrix(0.05,0,0,0.05,0,0)" xlink:href="#z"/><use transform="matrix(0.05,0,0,0.05,9,0)" xlink:href="#E"/><use transform="matrix(0.05,0,0,0.05,19,0)" xlink:href="#D"/><use transform="matrix(0.05,0,0,0.05,22.95,0)" xlink:href="#z"/><use transform="matrix(0.05,0,0,0.05,31.950000000000003,0)" xlink:href="#aa"/><use transform="matrix(0.05,0,0,0.05,46.9,0)" xlink:href="#A"/><use transform="matrix(0.05,0,0,0.05,56.900000000000006,0)" xlink:href="#H"/><use transform="matrix(0.05,0,0,0.05,66.9,0)" xlink:href="#C"/><use transform="matrix(0.05,0,0,0.05,76.9,0)" xlink:href="#I"/><use transform="matrix(0.05,0,0,0.05,85.9,0)" xlink:href="#O"/><use transform="matrix(0.05,0,0,0.05,91.85000000000001,0)" xlink:href="#K"/><use transform="matrix(0.05,0,0,0.05,95.80000000000001,0)" xlink:href="#H"/><use transform="matrix(0.05,0,0,0.05,105.80000000000001,0)" xlink:href="#L"/></g><path d="M68-38c1 34 0 65-14 84H32c9-13 17-26 17-46H33v-38h35" id="ab"/><g id="o"><use transform="matrix(0.05,0,0,0.05,0,0)" xlink:href="#ab"/><use transform="matrix(0.05,0,0,0.05,5,0)" xlink:href="#K"/><use transform="matrix(0.05,0,0,0.05,8.95,0)" xlink:href="#H"/><use transform="matrix(0.05,0,0,0.05,18.95,0)" xlink:href="#L"/><use transform="matrix(0.05,0,0,0.05,23.95,0)" xlink:href="#P"/></g><use transform="matrix(0.05,0,0,0.05,0,0)" xlink:href="#Q" id="p"/><g id="q"><use transform="matrix(0.05,0,0,0.05,0,0)" xlink:href="#S"/><use transform="matrix(0.05,0,0,0.05,10,0)" xlink:href="#C"/><use transform="matrix(0.05,0,0,0.05,20,0)" xlink:href="#B"/><use transform="matrix(0.05,0,0,0.05,25.950000000000003,0)" xlink:href="#C"/><use transform="matrix(0.05,0,0,0.05,35.95,0)" xlink:href="#X"/><use transform="matrix(0.05,0,0,0.05,45.95,0)" xlink:href="#H"/><use transform="matrix(0.05,0,0,0.05,55.95,0)" xlink:href="#C"/><use transform="matrix(0.05,0,0,0.05,65.95,0)" xlink:href="#B"/></g><path d="M106-169C34-169 62-67 57 0H25v-261h32l-1 103c12-21 28-36 61-36 89 0 53 116 60 194h-32v-121c2-32-8-49-39-48" id="ac"/><g id="r"><use transform="matrix(0.05,0,0,0.05,0,0)" xlink:href="#ac"/><use transform="matrix(0.05,0,0,0.05,10,0)" xlink:href="#R"/><use transform="matrix(0.05,0,0,0.05,19,0)" xlink:href="#A"/><use transform="matrix(0.05,0,0,0.05,29,0)" xlink:href="#B"/></g><g id="s"><use transform="matrix(0.05,0,0,0.05,0,0)" xlink:href="#G"/><use transform="matrix(0.05,0,0,0.05,14.950000000000001,0)" xlink:href="#C"/><use transform="matrix(0.05,0,0,0.05,24.950000000000003,0)" xlink:href="#X"/><use transform="matrix(0.05,0,0,0.05,34.95,0)" xlink:href="#C"/><use transform="matrix(0.05,0,0,0.05,44.95,0)" xlink:href="#L"/></g><g id="t"><use transform="matrix(0.05,0,0,0.05,0,0)" xlink:href="#M"/><use transform="matrix(0.05,0,0,0.05,10,0)" xlink:href="#C"/><use transform="matrix(0.05,0,0,0.05,20,0)" xlink:href="#B"/></g><g id="u"><use transform="matrix(0.05,0,0,0.05,0,0)" xlink:href="#F"/><use transform="matrix(0.05,0,0,0.05,9,0)" xlink:href="#U"/><use transform="matrix(0.05,0,0,0.05,18,0)" xlink:href="#E"/><use transform="matrix(0.05,0,0,0.05,28,0)" xlink:href="#D"/></g><path d="M220-194c63 1 86 42 84 106H170c0 40 13 67 51 68 27 1 43-12 50-29l28 8c-11 29-37 44-78 45-38 0-62-16-74-46-14 27-36 45-76 46-37 0-59-20-59-57-1-64 63-63 126-63 3-35-8-55-41-54-25 0-41 8-44 31l-33-3c1-59 111-68 139-27 13-16 34-24 61-25zM78-20c42-2 63-28 60-74-43 2-94-4-94 41 0 20 13 33 34 33zm193-93c7-60-75-77-95-28-3 7-5 17-5 28h100" id="ad"/><g id="v"><use transform="matrix(0.05,0,0,0.05,0,0)" xlink:href="#D"/><use transform="matrix(0.05,0,0,0.05,3.95,0)" xlink:href="#ad"/><use transform="matrix(0.05,0,0,0.05,19.95,0)" xlink:href="#X"/><use transform="matrix(0.05,0,0,0.05,29.950000000000003,0)" xlink:href="#X"/><use transform="matrix(0.05,0,0,0.05,39.95,0)" xlink:href="#C"/><use transform="matrix(0.05,0,0,0.05,49.95,0)" xlink:href="#F"/></g><g id="w"><use transform="matrix(0.05,0,0,0.05,0,0)" xlink:href="#L"/><use transform="matrix(0.05,0,0,0.05,5,0)" xlink:href="#K"/><use transform="matrix(0.05,0,0,0.05,8.95,0)" xlink:href="#D"/></g><path d="M47-170H22l-4-78h33" id="ae"/><g id="x"><use transform="matrix(0.05,0,0,0.05,0,0)" xlink:href="#ae"/><use transform="matrix(0.05,0,0,0.05,3.4000000000000004,0)" xlink:href="#G"/><use transform="matrix(0.05,0,0,0.05,18.35,0)" xlink:href="#A"/><use transform="matrix(0.05,0,0,0.05,28.35,0)" xlink:href="#H"/><use transform="matrix(0.05,0,0,0.05,38.35,0)" xlink:href="#C"/><use transform="matrix(0.05,0,0,0.05,48.35,0)" xlink:href="#I"/><use transform="matrix(0.05,0,0,0.05,57.35,0)" xlink:href="#ae"/></g></defs></g></svg>