<svg xmlns="http://www.w3.org/2000/svg" xmlns:xlink="http://www.w3.org/1999/xlink" xmlns:lucid="lucid" width="1330" height="1550"><g transform="translate(-2511 0)" lucid:page-tab-id="0_0"><path d="M3207.4 87c17.67 0 32 17.9 32 40s-14.33 40-32 40h-96c-17.67 0-32-17.9-32-40s14.33-40 32-40z" stroke="#000" stroke-width="2" fill="#99d5ca"/><use xlink:href="#a" transform="matrix(1,0,0,1,3084.4000000000924,92.00000000000006) translate(26.574999999999996 38.4625)"/><use xlink:href="#b" transform="matrix(1,0,0,1,3084.4000000000924,92.00000000000006) translate(82.475 38.4625)"/><path d="M2879.6 311h60l20 40-20 40h-60l-20-40z" stroke="#000" stroke-width="2" fill="#d1bcd2"/><use xlink:href="#c" transform="matrix(1,0,0,1,2864.5999999999995,316.00000000000006) translate(-3.4250000000000043 38.6)"/><path d="M3319.6 311h60l20 40-20 40h-60l-20-40z" stroke="#000" stroke-width="2" fill="#d1bcd2"/><use xlink:href="#d" transform="matrix(1,0,0,1,3304.5999999999995,316.00000000000006) translate(26.05 38.4625)"/><path d="M3209.6 311h60l20 40-20 40h-60l-20-40z" stroke="#000" stroke-width="2" fill="#d1bcd2"/><use xlink:href="#e" transform="matrix(1,0,0,1,3194.5999999999995,316.00000000000006) translate(-9.475000000000001 38.6)"/><path d="M3099.6 311h60l20 40-20 40h-60l-20-40z" stroke="#000" stroke-width="2" fill="#d1bcd2"/><use xlink:href="#f" transform="matrix(1,0,0,1,3084.5999999999995,316.00000000000006) translate(25 38.4625)"/><path d="M3049.6 591h160v120h-160z" stroke="#000" stroke-width="2" fill="#3aa6dd"/><path d="M3065.6 591v120m128-120v120" stroke="#000" stroke-width="2" fill="none"/><use xlink:href="#g" transform="matrix(1,0,0,1,3074.5999999999995,596) translate(16.074999999999996 26.19999999999999)"/><use xlink:href="#h" transform="matrix(1,0,0,1,3074.5999999999995,596) translate(87.975 26.19999999999999)"/><use xlink:href="#i" transform="matrix(1,0,0,1,3074.5999999999995,596) translate(16.549999999999997 47.79999999999999)"/><use xlink:href="#j" transform="matrix(1,0,0,1,3074.5999999999995,596) translate(0.5 69.39999999999999)"/><use xlink:href="#k" transform="matrix(1,0,0,1,3074.5999999999995,596) translate(89.5 69.39999999999999)"/><use xlink:href="#l" transform="matrix(1,0,0,1,3074.5999999999995,596) translate(23.525 91)"/><path d="M2789.6 551h160v120h-160z" stroke="#000" stroke-width="2" fill="#3aa6dd"/><path d="M2805.6 551v120m128-120v120" stroke="#000" stroke-width="2" fill="none"/><use xlink:href="#m" transform="matrix(1,0,0,1,2814.5999999999995,556) translate(15.624999999999993 47.8)"/><use xlink:href="#n" transform="matrix(1,0,0,1,2814.5999999999995,556) translate(88.42500000000001 47.8)"/><use xlink:href="#o" transform="matrix(1,0,0,1,2814.5999999999995,556) translate(2.075000000000003 69.4)"/><use xlink:href="#l" transform="matrix(1,0,0,1,2814.5999999999995,556) translate(44.975 69.4)"/><path d="M3419.6 1211h300v269.2h-300z" stroke="#000" stroke-width="2" fill="#3aa6dd"/><path d="M3449.6 1211v269.2m240-269.2v269.2" stroke="#000" stroke-width="2" fill="none"/><use xlink:href="#p" transform="matrix(1,0,0,1,3462.0999999999995,1216) translate(54.15 58.00000000000001)"/><use xlink:href="#q" transform="matrix(1,0,0,1,3462.0999999999995,1216) translate(125 58.00000000000001)"/><use xlink:href="#r" transform="matrix(1,0,0,1,3462.0999999999995,1216) translate(154.9 58.00000000000001)"/><use xlink:href="#s" transform="matrix(1,0,0,1,3462.0999999999995,1216) translate(19.89999999999999 79.60000000000002)"/><use xlink:href="#t" transform="matrix(1,0,0,1,3462.0999999999995,1216) translate(24.89999999999999 79.60000000000002)"/><use xlink:href="#u" transform="matrix(1,0,0,1,3462.0999999999995,1216) translate(81.8 79.60000000000002)"/><use xlink:href="#v" transform="matrix(1,0,0,1,3462.0999999999995,1216) translate(184.60000000000002 79.60000000000002)"/><use xlink:href="#w" transform="matrix(1,0,0,1,3462.0999999999995,1216) translate(7.72499999999998 101.20000000000002)"/><use xlink:href="#x" transform="matrix(1,0,0,1,3462.0999999999995,1216) translate(63.67499999999998 101.20000000000002)"/><use xlink:href="#y" transform="matrix(1,0,0,1,3462.0999999999995,1216) translate(194.375 101.20000000000002)"/><use xlink:href="#z" transform="matrix(1,0,0,1,3462.0999999999995,1216) translate(53.35 122.80000000000003)"/><use xlink:href="#v" transform="matrix(1,0,0,1,3462.0999999999995,1216) translate(151.15 122.80000000000003)"/><use xlink:href="#A" transform="matrix(1,0,0,1,3462.0999999999995,1216) translate(22.39999999999999 144.4)"/><use xlink:href="#B" transform="matrix(1,0,0,1,3462.0999999999995,1216) translate(88.3 144.4)"/><use xlink:href="#C" transform="matrix(1,0,0,1,3462.0999999999995,1216) translate(124.2 144.4)"/><use xlink:href="#v" transform="matrix(1,0,0,1,3462.0999999999995,1216) translate(182.10000000000002 144.4)"/><use xlink:href="#D" transform="matrix(1,0,0,1,3462.0999999999995,1216) translate(12.875 166.00000000000003)"/><use xlink:href="#E" transform="matrix(1,0,0,1,3462.0999999999995,1216) translate(43.825 166.00000000000003)"/><use xlink:href="#F" transform="matrix(1,0,0,1,3462.0999999999995,1216) translate(106.725 166.00000000000003)"/><use xlink:href="#G" transform="matrix(1,0,0,1,3462.0999999999995,1216) translate(144.525 166.00000000000003)"/><use xlink:href="#H" transform="matrix(1,0,0,1,3462.0999999999995,1216) translate(13.675000000000011 187.6)"/><use xlink:href="#I" transform="matrix(1,0,0,1,3462.0999999999995,1216) translate(181.325 187.6)"/><use xlink:href="#J" transform="matrix(1,0,0,1,3462.0999999999995,1216) translate(54.099999999999994 209.20000000000002)"/><use xlink:href="#K" transform="matrix(1,0,0,1,3462.0999999999995,1216) translate(92.05 209.20000000000002)"/><path d="M3379.6 670.2h160v139.6h-160z" stroke="#000" stroke-width="2" fill="#3aa6dd"/><path d="M3395.6 670.2v139.6m128-139.6v139.6" stroke="#000" stroke-width="2" fill="none"/><use xlink:href="#L" transform="matrix(1,0,0,1,3404.5999999999995,675.2) translate(1.624999999999993 14.600000000000003)"/><use xlink:href="#r" transform="matrix(1,0,0,1,3404.5999999999995,675.2) translate(102.42500000000001 14.600000000000003)"/><use xlink:href="#M" transform="matrix(1,0,0,1,3404.5999999999995,675.2) translate(12.574999999999996 36.2)"/><use xlink:href="#N" transform="matrix(1,0,0,1,3404.5999999999995,675.2) translate(10.049999999999997 57.800000000000004)"/><use xlink:href="#O" transform="matrix(1,0,0,1,3404.5999999999995,675.2) translate(79 57.800000000000004)"/><use xlink:href="#P" transform="matrix(1,0,0,1,3404.5999999999995,675.2) translate(6.125 79.40000000000002)"/><use xlink:href="#Q" transform="matrix(1,0,0,1,3404.5999999999995,675.2) translate(90.97500000000001 79.40000000000002)"/><use xlink:href="#R" transform="matrix(1,0,0,1,3404.5999999999995,675.2) translate(12.049999999999997 101.00000000000001)"/><use xlink:href="#S" transform="matrix(1,0,0,1,3404.5999999999995,675.2) translate(82.95 101.00000000000001)"/><use xlink:href="#T" transform="matrix(1,0,0,1,3404.5999999999995,675.2) translate(20.6 122.60000000000001)"/><path d="M2959.6 831h160v120h-160z" stroke="#000" stroke-width="2" fill="#3aa6dd"/><path d="M2975.6 831v120m128-120v120" stroke="#000" stroke-width="2" fill="none"/><use xlink:href="#U" transform="matrix(1,0,0,1,2984.5999999999995,836) translate(9.599999999999994 26.19999999999999)"/><use xlink:href="#V" transform="matrix(1,0,0,1,2984.5999999999995,836) translate(94.45 26.19999999999999)"/><use xlink:href="#W" transform="matrix(1,0,0,1,2984.5999999999995,836) translate(12.574999999999996 47.79999999999999)"/><use xlink:href="#X" transform="matrix(1,0,0,1,2984.5999999999995,836) translate(58.525 47.79999999999999)"/><use xlink:href="#Y" transform="matrix(1,0,0,1,2984.5999999999995,836) translate(18.025 69.39999999999999)"/><use xlink:href="#Z" transform="matrix(1,0,0,1,2984.5999999999995,836) translate(35.525 91)"/><path d="M2759.6 850.92l160-19.92v120h-160z" stroke="#000" stroke-width="2" fill="#de5f85"/><use xlink:href="#aa" transform="matrix(1,0,0,1,2764.5999999999995,856) translate(28.125 48.15)"/><use xlink:href="#ab" transform="matrix(1,0,0,1,2764.5999999999995,856) translate(82.92500000000001 48.15)"/><path d="M2921.6 891h18.5" stroke="#000" stroke-width="2" fill="none"/><path d="M2921.63 892h-1.03v-2h1.03z"/><path d="M2955.36 891l-14.26 4.64v-9.28z" stroke="#000" stroke-width="2"/><path d="M2879.6 32h60l20 40-20 40h-60l-20-40z" stroke="#000" stroke-width="2" fill="#d1bcd2"/><use xlink:href="#ac" transform="matrix(1,0,0,1,2864.5999999999995,37) translate(26 38.4625)"/><path d="M2879.6 132h60l20 40-20 40h-60l-20-40z" stroke="#000" stroke-width="2" fill="#d1bcd2"/><use xlink:href="#ad" transform="matrix(1,0,0,1,2864.5999999999995,137) translate(26 38.4625)"/><path d="M2961.72 72h57.84v55h40.34" stroke="#000" stroke-width="2" fill="none"/><path d="M2961.74 73h-1.52l.5-1-.5-1h1.52z"/><path d="M3075.16 127l-14.26 4.64v-9.28z" stroke="#000" stroke-width="2"/><path d="M2961.72 172h57.84v-45h40.34" stroke="#000" stroke-width="2" fill="none"/><path d="M2961.74 173h-1.52l.5-1-.5-1h1.52z"/><path d="M3075.16 127l-14.26 4.64v-9.28z" stroke="#000" stroke-width="2"/><path d="M2769.6 32h80v180h-80z" fill="none"/><path d="M2849.6 212c-6.2 0-11.25-5.04-11.25-11.25v-67.5c0-6.2-5.04-11.25-11.25-11.25 6.2 0 11.25-5.04 11.25-11.25v-67.5c0-6.2 5.04-11.25 11.25-11.25" stroke="#000" stroke-width="2" fill="none"/><use xlink:href="#ae" transform="matrix(1,0,0,1,2774.5999999999995,37.00000000000006) translate(2.049999999999997 88.60000000000001)"/><path d="M2989.6 311h60l20 40-20 40h-60l-20-40z" stroke="#000" stroke-width="2" fill="#d1bcd2"/><use xlink:href="#af" transform="matrix(1,0,0,1,2974.5999999999995,316.00000000000006) translate(-1.3999999999999986 38.6)"/><path d="M2769.6 311h60l20 40-20 40h-60l-20-40z" stroke="#000" stroke-width="2" fill="#d1bcd2"/><use xlink:href="#ag" transform="matrix(1,0,0,1,2754.5999999999995,316.00000000000006) translate(42.025 38.4625)"/><path d="M3429.6 311h60l20 40-20 40h-60l-20-40z" stroke="#000" stroke-width="2" fill="#d1bcd2"/><use xlink:href="#ah" transform="matrix(1,0,0,1,3414.5999999999995,316.00000000000006) translate(-3.424999999999997 38.6)"/><path d="M3159.4 169v70h-249.8v52.5" stroke="#000" stroke-width="2" fill="none"/><path d="M3160.4 169.03h-2V168h2z"/><path d="M2909.6 306.76l-4.64-14.26h9.28z" stroke="#000" stroke-width="2"/><path d="M3159.4 169v70h-142v52.5" stroke="#000" stroke-width="2" fill="none"/><path d="M3160.4 169.03h-2V168h2z"/><path d="M3017.4 306.76l-4.64-14.26h9.28z" stroke="#000" stroke-width="2"/><path d="M3159.4 169v70h-29.8v52.5" stroke="#000" stroke-width="2" fill="none"/><path d="M3160.4 169.03h-2V168h2z"/><path d="M3129.6 306.76l-4.64-14.26h9.28z" stroke="#000" stroke-width="2"/><path d="M3159.4 169v70h80.2v52.5" stroke="#000" stroke-width="2" fill="none"/><path d="M3160.4 169.03h-2V168h2z"/><path d="M3239.6 306.76l-4.64-14.26h9.28z" stroke="#000" stroke-width="2"/><path d="M3159.4 169v70h190.2v52.5" stroke="#000" stroke-width="2" fill="none"/><path d="M3160.4 169.03h-2V168h2z"/><path d="M3349.6 306.76l-4.64-14.26h9.28z" stroke="#000" stroke-width="2"/><path d="M3159.4 169v70h300.2v52.5" stroke="#000" stroke-width="2" fill="none"/><path d="M3160.4 169.03h-2V168h2z"/><path d="M3459.6 306.76l-4.64-14.26h9.28z" stroke="#000" stroke-width="2"/><path d="M3159.4 169v70h-359.8v52.5" stroke="#000" stroke-width="2" fill="none"/><path d="M3160.4 169.03h-2V168h2z"/><path d="M2799.6 306.76l-4.64-14.26h9.28z" stroke="#000" stroke-width="2"/><path d="M2589.6 454h160v120h-160z" stroke="#000" stroke-width="2" fill="#3aa6dd"/><path d="M2605.6 454v120m128-120v120" stroke="#000" stroke-width="2" fill="none"/><use xlink:href="#ai" transform="matrix(1,0,0,1,2614.5999999999995,459) translate(15.099999999999994 26.19999999999999)"/><use xlink:href="#r" transform="matrix(1,0,0,1,2614.5999999999995,459) translate(88.95 26.19999999999999)"/><use xlink:href="#aj" transform="matrix(1,0,0,1,2614.5999999999995,459) translate(21.525 47.79999999999999)"/><use xlink:href="#S" transform="matrix(1,0,0,1,2614.5999999999995,459) translate(73.475 47.79999999999999)"/><use xlink:href="#ak" transform="matrix(1,0,0,1,2614.5999999999995,459) translate(0.6249999999999929 69.39999999999999)"/><use xlink:href="#al" transform="matrix(1,0,0,1,2614.5999999999995,459) translate(56.525 69.39999999999999)"/><use xlink:href="#am" transform="matrix(1,0,0,1,2614.5999999999995,459) translate(74.42500000000001 69.39999999999999)"/><use xlink:href="#an" transform="matrix(1,0,0,1,2614.5999999999995,459) translate(24.574999999999996 91)"/><path d="M2669.6 452V240.3h111.5" stroke="#000" stroke-width="2" fill="none"/><path d="M2670.6 453h-2v-1.03h2z"/><path d="M2796.36 240.3l-14.26 4.65v-9.27z" stroke="#000" stroke-width="2"/><path d="M2799.6 393v121h-30.5" stroke="#000" stroke-width="2" fill="none"/><path d="M2800.6 393.03h-2V392h2z"/><path d="M2753.84 514l14.26-4.64v9.28z" stroke="#000" stroke-width="2"/><path d="M2909.6 393v121h-140.5" stroke="#000" stroke-width="2" fill="none"/><path d="M2910.6 393.03h-2V392h2z"/><path d="M2753.84 514l14.26-4.64v9.28z" stroke="#000" stroke-width="2"/><path d="M3019.6 393v121h-250.5" stroke="#000" stroke-width="2" fill="none"/><path d="M3020.6 393.03h-2V392h2z"/><path d="M2753.84 514l14.26-4.64v9.28z" stroke="#000" stroke-width="2"/><path d="M3129.6 393v121h-360.5" stroke="#000" stroke-width="2" fill="none"/><path d="M3130.6 393.03h-2V392h2z"/><path d="M2753.84 514l14.26-4.64v9.28z" stroke="#000" stroke-width="2"/><path d="M3239.6 393v121h-470.5" stroke="#000" stroke-width="2" fill="none"/><path d="M3240.6 393.03h-2V392h2z"/><path d="M2753.84 514l14.26-4.64v9.28z" stroke="#000" stroke-width="2"/><path d="M3349.6 393v121h-580.5" stroke="#000" stroke-width="2" fill="none"/><path d="M3350.6 393.03h-2V392h2z"/><path d="M2753.84 514l14.26-4.64v9.28z" stroke="#000" stroke-width="2"/><path d="M3459.6 393v121h-690.5" stroke="#000" stroke-width="2" fill="none"/><path d="M3460.6 393.03h-2V392h2z"/><path d="M2753.84 514l14.26-4.64v9.28z" stroke="#000" stroke-width="2"/><path d="M3529.6 292h80v118h-80z" fill="none"/><path d="M3529.6 410c4.07 0 7.37-3.3 7.37-7.37v-44.25c0-4.08 3.3-7.38 7.38-7.38-4.07 0-7.38-3.3-7.38-7.38v-44.25c0-4.07-3.3-7.37-7.37-7.37" stroke="#000" stroke-width="2" fill="none"/><use xlink:href="#ao" transform="matrix(1,0,0,1,3556.7249999999995,297) translate(0 58.1)"/><path d="M2799.6 393v78h70v60.5" stroke="#c92d39" stroke-width="2" fill="none"/><path d="M2800.6 393.03h-2V392h2z" fill="#c92d39"/><path d="M2869.6 546.76l-4.64-14.26h9.28z" stroke="#c92d39" stroke-width="2" fill="#c92d39"/><path d="M2909.6 393v78h-40v60.5" stroke="#c92d39" stroke-width="2" fill="none"/><path d="M2910.6 393.03h-2V392h2z" fill="#c92d39"/><path d="M2869.6 546.76l-4.64-14.26h9.28z" stroke="#c92d39" stroke-width="2" fill="#c92d39"/><path d="M3019.6 393v78h-150v60.5" stroke="#c92d39" stroke-width="2" fill="none"/><path d="M3020.6 393.03h-2V392h2z" fill="#c92d39"/><path d="M2869.6 546.76l-4.64-14.26h9.28z" stroke="#c92d39" stroke-width="2" fill="#c92d39"/><path d="M2909.6 393v98h220v80.5" stroke="#ef8d22" stroke-width="2" fill="none"/><path d="M2910.6 393.03h-2V392h2z" fill="#ef8d22"/><path d="M3129.6 586.76l-4.64-14.26h9.28z" stroke="#ef8d22" stroke-width="2" fill="#ef8d22"/><path d="M3019.6 393v98h110v80.5" stroke="#ef8d22" stroke-width="2" fill="none"/><path d="M3020.6 393.03h-2V392h2z" fill="#ef8d22"/><path d="M3129.6 586.76l-4.64-14.26h9.28z" stroke="#ef8d22" stroke-width="2" fill="#ef8d22"/><path d="M3129.6 393v178.5" stroke="#ef8d22" stroke-width="2" fill="none"/><path d="M3130.6 393.03h-2V392h2z" fill="#ef8d22"/><path d="M3129.6 586.76l-4.64-14.26h9.28z" stroke="#ef8d22" stroke-width="2" fill="#ef8d22"/><path d="M3239.6 393v98h-110v80.5" stroke="#ef8d22" stroke-width="2" fill="none"/><path d="M3240.6 393.03h-2V392h2z" fill="#ef8d22"/><path d="M3129.6 586.76l-4.64-14.26h9.28z" stroke="#ef8d22" stroke-width="2" fill="#ef8d22"/><path d="M3349.6 393v98h-220v80.5" stroke="#ef8d22" stroke-width="2" fill="none"/><path d="M3350.6 393.03h-2V392h2z" fill="#ef8d22"/><path d="M3129.6 586.76l-4.64-14.26h9.28z" stroke="#ef8d22" stroke-width="2" fill="#ef8d22"/><path d="M3219.6 751h60l20 40-20 40h-60l-20-40z" stroke="#000" stroke-width="2" fill="#d1bcd2"/><use xlink:href="#ap" transform="matrix(1,0,0,1,3204.5999999999995,756) translate(27.05 38.4625)"/><path d="M3219.6 1051h60l20 40-20 40h-60l-20-40z" stroke="#000" stroke-width="2" fill="#d1bcd2"/><use xlink:href="#aq" transform="matrix(1,0,0,1,3204.5999999999995,1056) translate(19.549999999999997 38.4625)"/><path d="M3219.6 951h60l20 40-20 40h-60l-20-40z" stroke="#000" stroke-width="2" fill="#d1bcd2"/><use xlink:href="#ar" transform="matrix(1,0,0,1,3204.5999999999995,956) translate(25.025 38.4625)"/><path d="M3219.6 851h60l20 40-20 40h-60l-20-40z" stroke="#000" stroke-width="2" fill="#d1bcd2"/><use xlink:href="#as" transform="matrix(1,0,0,1,3204.5999999999995,856) translate(15.575 38.4625)"/><path d="M3121.6 891h37.94V791h20.44" stroke="#000" stroke-width="2" fill="none"/><path d="M3121.63 892h-1.03v-2h1.03z"/><path d="M3195.25 791l-14.27 4.64v-9.28z" stroke="#000" stroke-width="2"/><path d="M3121.6 891h58.38" stroke="#000" stroke-width="2" fill="none"/><path d="M3121.63 892h-1.03v-2h1.03z"/><path d="M3195.25 891l-14.27 4.64v-9.28z" stroke="#000" stroke-width="2"/><path d="M3121.6 891h37.94v100h20.44" stroke="#000" stroke-width="2" fill="none"/><path d="M3121.63 892h-1.03v-2h1.03z"/><path d="M3195.25 991l-14.27 4.64v-9.28z" stroke="#000" stroke-width="2"/><path d="M3121.6 891h37.94v200h20.44" stroke="#000" stroke-width="2" fill="none"/><path d="M3121.63 892h-1.03v-2h1.03z"/><path d="M3195.25 1091l-14.27 4.64v-9.28z" stroke="#000" stroke-width="2"/><path d="M3301.72 791h37.94v-51h20.44" stroke="#000" stroke-width="2" fill="none"/><path d="M3301.74 792h-1.52l.5-1-.5-1h1.52z"/><path d="M3375.36 740l-14.26 4.64v-9.28z" stroke="#000" stroke-width="2"/><path d="M3301.72 891h37.94V740h20.44" stroke="#000" stroke-width="2" fill="none"/><path d="M3301.74 892h-1.52l.5-1-.5-1h1.52z"/><path d="M3375.36 740l-14.26 4.64v-9.28z" stroke="#000" stroke-width="2"/><path d="M3301.72 991h37.94V740h20.44" stroke="#000" stroke-width="2" fill="none"/><path d="M3301.74 992h-1.52l.5-1-.5-1h1.52z"/><path d="M3375.36 740l-14.26 4.64v-9.28z" stroke="#000" stroke-width="2"/><path d="M3301.72 1091h37.94V740h20.44" stroke="#000" stroke-width="2" fill="none"/><path d="M3301.74 1092h-1.52l.5-1-.5-1h1.52z"/><path d="M3375.36 740l-14.26 4.64v-9.28z" stroke="#000" stroke-width="2"/><path d="M3349.6 393v137.6h110v120.1" stroke="#de5f85" stroke-width="2" fill="none"/><path d="M3350.6 393.03h-2V392h2z" fill="#de5f85"/><path d="M3459.6 665.96l-4.64-14.26h9.28z" stroke="#de5f85" stroke-width="2" fill="#de5f85"/><path d="M3459.6 393v257.7" stroke="#de5f85" stroke-width="2" fill="none"/><path d="M3460.6 393.03h-2V392h2z" fill="#de5f85"/><path d="M3459.6 665.96l-4.64-14.26h9.28z" stroke="#de5f85" stroke-width="2" fill="#de5f85"/><path d="M3239.6 393v137.6h220v120.1" stroke="#de5f85" stroke-width="2" fill="none"/><path d="M3240.6 393.03h-2V392h2z" fill="#de5f85"/><path d="M3459.6 665.96l-4.64-14.26h9.28z" stroke="#de5f85" stroke-width="2" fill="#de5f85"/><path d="M3459.6 811.8V1151h-790V593.5" stroke="#000" stroke-width="2" fill="none"/><path d="M3460.6 811.83h-2v-1.03h2z"/><path d="M2669.6 578.24l4.64 14.26h-9.28z" stroke="#000" stroke-width="2"/><path d="M3609.6 574h60l20 40-20 40h-60l-20-40z" stroke="#000" stroke-width="2" fill="#d1bcd2"/><g><use xlink:href="#at" transform="matrix(1,0,0,1,3594.5999999999995,579) translate(-50.2 38.6)"/></g><path d="M3609.6 674h60l20 40-20 40h-60l-20-40z" stroke="#000" stroke-width="2" fill="#d1bcd2"/><g><use xlink:href="#au" transform="matrix(1,0,0,1,3594.5999999999995,679) translate(-3.875000000000007 38.6)"/></g><path d="M3729.6 574h80v180h-80z" fill="none"/><path d="M3729.6 754c6.2 0 11.25-5.04 11.25-11.25v-67.5c0-6.2 5.04-11.25 11.25-11.25-6.2 0-11.25-5.04-11.25-11.25v-67.5c0-6.2-5.04-11.25-11.25-11.25" stroke="#000" stroke-width="2" fill="none"/><g><use xlink:href="#ae" transform="matrix(1,0,0,1,3768.3499999999995,579) translate(0 88.60000000000001)"/></g><path d="M3609.6 801h60l20 40-20 40h-60l-20-40z" stroke="#000" stroke-width="2" fill="#d1bcd2"/><g><use xlink:href="#av" transform="matrix(1,0,0,1,3594.5999999999995,806) translate(-5.900000000000006 38.6)"/></g><path d="M3609.6 901h60l20 40-20 40h-60l-20-40z" stroke="#000" stroke-width="2" fill="#d1bcd2"/><g><use xlink:href="#aw" transform="matrix(1,0,0,1,3594.5999999999995,906) translate(-5.900000000000006 38.6)"/></g><path d="M3417.6 1345.6h-748V593.5" stroke="#000" stroke-width="2" fill="none"/><path d="M3418.6 1346.6h-1.03v-2h1.03z"/><path d="M2669.6 578.24l4.64 14.26h-9.28z" stroke="#000" stroke-width="2"/><path d="M3609.6 1001h60l20 40-20 40h-60l-20-40z" stroke="#000" stroke-width="2" fill="#d1bcd2"/><g><use xlink:href="#ax" transform="matrix(1,0,0,1,3594.5999999999995,1006) translate(-3.9000000000000057 38.6)"/></g><path d="M3587.48 1041h-17.88v150.5" stroke="#000" stroke-width="2" fill="none"/><path d="M3588.48 1041l.5 1h-1.52v-2h1.52z"/><path d="M3569.6 1206.76l-4.64-14.26h9.28z" stroke="#000" stroke-width="2"/><path d="M3587.48 941h-17.88v250.5" stroke="#000" stroke-width="2" fill="none"/><path d="M3588.48 941l.5 1h-1.52v-2h1.52z"/><path d="M3569.6 1206.76l-4.64-14.26h9.28z" stroke="#000" stroke-width="2"/><path d="M3587.48 841h-17.88v350.5" stroke="#000" stroke-width="2" fill="none"/><path d="M3588.48 841l.5 1h-1.52v-2h1.52z"/><path d="M3569.6 1206.76l-4.64-14.26h9.28z" stroke="#000" stroke-width="2"/><path d="M3587.48 714h-17.88v477.5" stroke="#000" stroke-width="2" fill="none"/><path d="M3588.48 714l.5 1h-1.52v-2h1.52z"/><path d="M3569.6 1206.76l-4.64-14.26h9.28z" stroke="#000" stroke-width="2"/><path d="M3587.48 614h-17.88v577.5" stroke="#000" stroke-width="2" fill="none"/><path d="M3588.48 614l.5 1h-1.52v-2h1.52z"/><path d="M3569.6 1206.76l-4.64-14.26h9.28z" stroke="#000" stroke-width="2"/><path d="M3019.6 393v48h550v750.5" stroke="#3aa6dd" stroke-width="2" fill="none"/><path d="M3020.6 393.03h-2V392h2z" fill="#3aa6dd"/><path d="M3569.6 1206.76l-4.64-14.26h9.28z" stroke="#3aa6dd" stroke-width="2" fill="#3aa6dd"/><path d="M3349.6 393v48h220v750.5" stroke="#3aa6dd" stroke-width="2" fill="none"/><path d="M3350.6 393.03h-2V392h2z" fill="#3aa6dd"/><path d="M3569.6 1206.76l-4.64-14.26h9.28z" stroke="#3aa6dd" stroke-width="2" fill="#3aa6dd"/><path d="M3459.6 393v48h110v750.5" stroke="#3aa6dd" stroke-width="2" fill="none"/><path d="M3460.6 393.03h-2V392h2z" fill="#3aa6dd"/><path d="M3569.6 1206.76l-4.64-14.26h9.28z" stroke="#3aa6dd" stroke-width="2" fill="#3aa6dd"/><path d="M3609.6 1101h60l20 40-20 40h-60l-20-40z" stroke="#000" stroke-width="2" fill="#d1bcd2"/><g><use xlink:href="#ay" transform="matrix(1,0,0,1,3594.5999999999995,1106) translate(8.099999999999994 38.4625)"/></g><path d="M3587.48 1141h-17.88v50.5" stroke="#000" stroke-width="2" fill="none"/><path d="M3588.48 1141l.5 1h-1.52v-2h1.52z"/><path d="M3569.6 1206.76l-4.64-14.26h9.28z" stroke="#000" stroke-width="2"/><path d="M2909.6 393v48h660v750.5" stroke="#3aa6dd" stroke-width="2" fill="none"/><path d="M2910.6 393.03h-2V392h2z" fill="#3aa6dd"/><path d="M3569.6 1206.76l-4.64-14.26h9.28z" stroke="#3aa6dd" stroke-width="2" fill="#3aa6dd"/><path d="M3129.6 393v48h440v750.5" stroke="#3aa6dd" stroke-width="2" fill="none"/><path d="M3130.6 393.03h-2V392h2z" fill="#3aa6dd"/><path d="M3569.6 1206.76l-4.64-14.26h9.28z" stroke="#3aa6dd" stroke-width="2" fill="#3aa6dd"/><defs><path d="M30-248c87 1 191-15 191 75 0 78-77 80-158 76V0H30v-248zm33 125c57 0 124 11 124-50 0-59-68-47-124-48v98" id="az"/><path d="M24 0v-261h32V0H24" id="aA"/><path d="M141-36C126-15 110 5 73 4 37 3 15-17 15-53c-1-64 63-63 125-63 3-35-9-54-41-54-24 1-41 7-42 31l-33-3c5-37 33-52 76-52 45 0 72 20 72 64v82c-1 20 7 32 28 27v20c-31 9-61-2-59-35zM48-53c0 20 12 33 32 33 41-3 63-29 60-74-43 2-92-5-92 41" id="aB"/><path d="M179-190L93 31C79 59 56 82 12 73V49c39 6 53-20 64-50L1-190h34L92-34l54-156h33" id="aC"/><path d="M100-194c63 0 86 42 84 106H49c0 40 14 67 53 68 26 1 43-12 49-29l28 8c-11 28-37 45-77 45C44 4 14-33 15-96c1-61 26-98 85-98zm52 81c6-60-76-77-97-28-3 7-6 17-6 28h103" id="aD"/><path d="M114-163C36-179 61-72 57 0H25l-1-190h30c1 12-1 29 2 39 6-27 23-49 58-41v29" id="aE"/><g id="a"><use transform="matrix(0.05,0,0,0.05,0,0)" xlink:href="#az"/><use transform="matrix(0.05,0,0,0.05,12,0)" xlink:href="#aA"/><use transform="matrix(0.05,0,0,0.05,15.949999999999998,0)" xlink:href="#aB"/><use transform="matrix(0.05,0,0,0.05,25.950000000000003,0)" xlink:href="#aC"/><use transform="matrix(0.05,0,0,0.05,34.95,0)" xlink:href="#aD"/><use transform="matrix(0.05,0,0,0.05,44.95,0)" xlink:href="#aE"/></g><path d="M96-169c-40 0-48 33-48 73s9 75 48 75c24 0 41-14 43-38l32 2c-6 37-31 61-74 61-59 0-76-41-82-99-10-93 101-131 147-64 4 7 5 14 7 22l-32 3c-4-21-16-35-41-35" id="aF"/><path d="M135-143c-3-34-86-38-87 0 15 53 115 12 119 90S17 21 10-45l28-5c4 36 97 45 98 0-10-56-113-15-118-90-4-57 82-63 122-42 12 7 21 19 24 35" id="aG"/><g id="b"><use transform="matrix(0.05,0,0,0.05,0,0)" xlink:href="#aF"/><use transform="matrix(0.05,0,0,0.05,9,0)" xlink:href="#aA"/><use transform="matrix(0.05,0,0,0.05,12.949999999999998,0)" xlink:href="#aB"/><use transform="matrix(0.05,0,0,0.05,22.95,0)" xlink:href="#aG"/><use transform="matrix(0.05,0,0,0.05,31.950000000000003,0)" xlink:href="#aG"/></g><path d="M59-47c-2 24 18 29 38 22v24C64 9 27 4 27-40v-127H5v-23h24l9-43h21v43h35v23H59v120" id="aH"/><path d="M115-194c55 1 70 41 70 98S169 2 115 4C84 4 66-9 55-30l1 105H24l-1-265h31l2 30c10-21 28-34 59-34zm-8 174c40 0 45-34 45-75s-6-73-45-74c-42 0-51 32-51 76 0 43 10 73 51 73" id="aI"/><path d="M100-194c62-1 85 37 85 99 1 63-27 99-86 99S16-35 15-95c0-66 28-99 85-99zM99-20c44 1 53-31 53-75 0-43-8-75-51-75s-53 32-53 75 10 74 51 75" id="aJ"/><path d="M24-231v-30h32v30H24zM24 0v-190h32V0H24" id="aK"/><path d="M117-194c89-4 53 116 60 194h-32v-121c0-31-8-49-39-48C34-167 62-67 57 0H25l-1-190h30c1 10-1 24 2 32 11-22 29-35 61-36" id="aL"/><g id="c"><use transform="matrix(0.05,0,0,0.05,0,0)" xlink:href="#aG"/><use transform="matrix(0.05,0,0,0.05,9,0)" xlink:href="#aH"/><use transform="matrix(0.05,0,0,0.05,14,0)" xlink:href="#aB"/><use transform="matrix(0.05,0,0,0.05,24,0)" xlink:href="#aE"/><use transform="matrix(0.05,0,0,0.05,29.950000000000003,0)" xlink:href="#aH"/><use transform="matrix(0.05,0,0,0.05,34.95,0)" xlink:href="#aI"/><use transform="matrix(0.05,0,0,0.05,44.95,0)" xlink:href="#aJ"/><use transform="matrix(0.05,0,0,0.05,54.95,0)" xlink:href="#aG"/><use transform="matrix(0.05,0,0,0.05,63.95,0)" xlink:href="#aK"/><use transform="matrix(0.05,0,0,0.05,67.9,0)" xlink:href="#aH"/><use transform="matrix(0.05,0,0,0.05,72.9,0)" xlink:href="#aK"/><use transform="matrix(0.05,0,0,0.05,76.85000000000001,0)" xlink:href="#aJ"/><use transform="matrix(0.05,0,0,0.05,86.85000000000001,0)" xlink:href="#aL"/></g><path d="M30 0v-248h33v221h125V0H30" id="aM"/><g id="d"><use transform="matrix(0.05,0,0,0.05,0,0)" xlink:href="#aA"/><use transform="matrix(0.05,0,0,0.05,3.95,0)" xlink:href="#aK"/><use transform="matrix(0.05,0,0,0.05,7.9,0)" xlink:href="#aL"/><use transform="matrix(0.05,0,0,0.05,17.9,0)" xlink:href="#aD"/><use transform="matrix(0.05,0,0,0.05,27.899999999999995,0)" xlink:href="#aM"/></g><path d="M106-169C34-169 62-67 57 0H25v-261h32l-1 103c12-21 28-36 61-36 89 0 53 116 60 194h-32v-121c2-32-8-49-39-48" id="aN"/><path d="M33 0v-248h34V0H33" id="aO"/><g id="e"><use transform="matrix(0.05,0,0,0.05,0,0)" xlink:href="#aH"/><use transform="matrix(0.05,0,0,0.05,5,0)" xlink:href="#aN"/><use transform="matrix(0.05,0,0,0.05,15,0)" xlink:href="#aD"/><use transform="matrix(0.05,0,0,0.05,25,0)" xlink:href="#aH"/><use transform="matrix(0.05,0,0,0.05,30,0)" xlink:href="#aB"/><use transform="matrix(0.05,0,0,0.05,40,0)" xlink:href="#aO"/><use transform="matrix(0.05,0,0,0.05,45,0)" xlink:href="#aL"/><use transform="matrix(0.05,0,0,0.05,55,0)" xlink:href="#aF"/><use transform="matrix(0.05,0,0,0.05,64,0)" xlink:href="#aE"/><use transform="matrix(0.05,0,0,0.05,69.95,0)" xlink:href="#aD"/><use transform="matrix(0.05,0,0,0.05,79.95,0)" xlink:href="#aB"/><use transform="matrix(0.05,0,0,0.05,89.95,0)" xlink:href="#aG"/><use transform="matrix(0.05,0,0,0.05,98.95,0)" xlink:href="#aD"/></g><g id="f"><use transform="matrix(0.05,0,0,0.05,0,0)" xlink:href="#aH"/><use transform="matrix(0.05,0,0,0.05,5,0)" xlink:href="#aN"/><use transform="matrix(0.05,0,0,0.05,15,0)" xlink:href="#aD"/><use transform="matrix(0.05,0,0,0.05,25,0)" xlink:href="#aH"/><use transform="matrix(0.05,0,0,0.05,30,0)" xlink:href="#aB"/></g><path d="M84 4C-5 8 30-112 23-190h32v120c0 31 7 50 39 49 72-2 45-101 50-169h31l1 190h-30c-1-10 1-25-2-33-11 22-28 36-60 37" id="aP"/><path d="M85-194c31 0 48 13 60 33l-1-100h32l1 261h-30c-2-10 0-23-3-31C134-8 116 4 85 4 32 4 16-35 15-94c0-66 23-100 70-100zm9 24c-40 0-46 34-46 75 0 40 6 74 45 74 42 0 51-32 51-76 0-42-9-74-50-73" id="aQ"/><path d="M87 75C49 33 22-17 22-94c0-76 28-126 65-167h31c-38 41-64 92-64 168S80 34 118 75H87" id="aR"/><path d="M33-261c38 41 65 92 65 168S71 34 33 75H2C39 34 66-17 66-93S39-220 2-261h31" id="aS"/><g id="g"><use transform="matrix(0.05,0,0,0.05,0,0)" xlink:href="#aP"/><use transform="matrix(0.05,0,0,0.05,10,0)" xlink:href="#aI"/><use transform="matrix(0.05,0,0,0.05,20,0)" xlink:href="#aQ"/><use transform="matrix(0.05,0,0,0.05,30,0)" xlink:href="#aB"/><use transform="matrix(0.05,0,0,0.05,40,0)" xlink:href="#aH"/><use transform="matrix(0.05,0,0,0.05,45,0)" xlink:href="#aD"/><use transform="matrix(0.05,0,0,0.05,55,0)" xlink:href="#aR"/><use transform="matrix(0.05,0,0,0.05,60.95,0)" xlink:href="#aS"/></g><path d="M16-82v-28h88v28H16" id="aT"/><use transform="matrix(0.05,0,0,0.05,0,0)" xlink:href="#aT" id="h"/><g id="i"><use transform="matrix(0.05,0,0,0.05,0,0)" xlink:href="#aJ"/><use transform="matrix(0.05,0,0,0.05,10,0)" xlink:href="#aI"/><use transform="matrix(0.05,0,0,0.05,20,0)" xlink:href="#aQ"/><use transform="matrix(0.05,0,0,0.05,30,0)" xlink:href="#aB"/><use transform="matrix(0.05,0,0,0.05,40,0)" xlink:href="#aH"/><use transform="matrix(0.05,0,0,0.05,45,0)" xlink:href="#aD"/><use transform="matrix(0.05,0,0,0.05,55,0)" xlink:href="#aE"/><use transform="matrix(0.05,0,0,0.05,60.95,0)" xlink:href="#aD"/><use transform="matrix(0.05,0,0,0.05,70.95,0)" xlink:href="#aE"/></g><g id="j"><use transform="matrix(0.05,0,0,0.05,0,0)" xlink:href="#aP"/><use transform="matrix(0.05,0,0,0.05,10,0)" xlink:href="#aQ"/><use transform="matrix(0.05,0,0,0.05,20,0)" xlink:href="#aG"/><use transform="matrix(0.05,0,0,0.05,29,0)" xlink:href="#aD"/><use transform="matrix(0.05,0,0,0.05,39,0)" xlink:href="#aD"/><use transform="matrix(0.05,0,0,0.05,49,0)" xlink:href="#aL"/><use transform="matrix(0.05,0,0,0.05,59,0)" xlink:href="#aQ"/><use transform="matrix(0.05,0,0,0.05,69,0)" xlink:href="#aD"/><use transform="matrix(0.05,0,0,0.05,79,0)" xlink:href="#aH"/></g><path d="M141-36C126-15 110 5 73 4 37 3 15-17 15-53c-1-64 63-63 125-63 3-35-9-54-41-54-24 1-41 7-42 31l-33-3c5-37 33-52 76-52 45 0 72 20 72 64v82c-1 20 7 32 28 27v20c-31 9-61-2-59-35zM48-53c0 20 12 33 32 33 41-3 63-29 60-74-43 2-92-5-92 41zm50-237c26 0 42 16 42 42 0 27-18 40-42 43-25-2-43-16-43-43 0-26 17-42 43-42zm-24 42c-2 26 37 32 45 10 6-16-3-33-21-33-16 0-23 10-24 23" id="aU"/><g id="k"><use transform="matrix(0.05,0,0,0.05,0,0)" xlink:href="#aI"/><use transform="matrix(0.05,0,0,0.05,10,0)" xlink:href="#aU"/></g><path d="M115-194c53 0 69 39 70 98 0 66-23 100-70 100C84 3 66-7 56-30L54 0H23l1-261h32v101c10-23 28-34 59-34zm-8 174c40 0 45-34 45-75 0-40-5-75-45-74-42 0-51 32-51 76 0 43 10 73 51 73" id="aV"/><path d="M24-231v-30h32v30H24zM-9 49c24 4 33-6 33-30v-209h32V24c2 40-23 58-65 49V49" id="aW"/><path d="M143 0L79-87 56-68V0H24v-261h32v163l83-92h37l-77 82L181 0h-38" id="aX"/><g id="l"><use transform="matrix(0.05,0,0,0.05,0,0)" xlink:href="#aJ"/><use transform="matrix(0.05,0,0,0.05,10,0)" xlink:href="#aV"/><use transform="matrix(0.05,0,0,0.05,20,0)" xlink:href="#aW"/><use transform="matrix(0.05,0,0,0.05,23.95,0)" xlink:href="#aD"/><use transform="matrix(0.05,0,0,0.05,33.95,0)" xlink:href="#aX"/><use transform="matrix(0.05,0,0,0.05,42.95,0)" xlink:href="#aH"/><use transform="matrix(0.05,0,0,0.05,47.95,0)" xlink:href="#aD"/><use transform="matrix(0.05,0,0,0.05,57.95,0)" xlink:href="#aH"/></g><g id="m"><use transform="matrix(0.05,0,0,0.05,0,0)" xlink:href="#aQ"/><use transform="matrix(0.05,0,0,0.05,10,0)" xlink:href="#aK"/><use transform="matrix(0.05,0,0,0.05,13.949999999999998,0)" xlink:href="#aG"/><use transform="matrix(0.05,0,0,0.05,22.95,0)" xlink:href="#aI"/><use transform="matrix(0.05,0,0,0.05,32.95,0)" xlink:href="#aA"/><use transform="matrix(0.05,0,0,0.05,36.900000000000006,0)" xlink:href="#aB"/><use transform="matrix(0.05,0,0,0.05,46.900000000000006,0)" xlink:href="#aC"/><use transform="matrix(0.05,0,0,0.05,55.900000000000006,0)" xlink:href="#aR"/><use transform="matrix(0.05,0,0,0.05,61.85,0)" xlink:href="#aS"/></g><use transform="matrix(0.05,0,0,0.05,0,0)" xlink:href="#aT" id="n"/><path d="M108 0H70L1-190h34L89-25l56-165h34" id="aY"/><g id="o"><use transform="matrix(0.05,0,0,0.05,0,0)" xlink:href="#aY"/><use transform="matrix(0.05,0,0,0.05,9,0)" xlink:href="#aK"/><use transform="matrix(0.05,0,0,0.05,12.949999999999998,0)" xlink:href="#aG"/><use transform="matrix(0.05,0,0,0.05,21.95,0)" xlink:href="#aD"/><use transform="matrix(0.05,0,0,0.05,31.950000000000003,0)" xlink:href="#aE"/></g><path d="M177-190C167-65 218 103 67 71c-23-6-38-20-44-43l32-5c15 47 100 32 89-28v-30C133-14 115 1 83 1 29 1 15-40 15-95c0-56 16-97 71-98 29-1 48 16 59 35 1-10 0-23 2-32h30zM94-22c36 0 50-32 50-73 0-42-14-75-50-75-39 0-46 34-46 75s6 73 46 73" id="aZ"/><path d="M68-38c1 34 0 65-14 84H32c9-13 17-26 17-46H33v-38h35" id="ba"/><g id="p"><use transform="matrix(0.05,0,0,0.05,0,0)" xlink:href="#aZ"/><use transform="matrix(0.05,0,0,0.05,10,0)" xlink:href="#aE"/><use transform="matrix(0.05,0,0,0.05,15.949999999999998,0)" xlink:href="#aB"/><use transform="matrix(0.05,0,0,0.05,25.950000000000003,0)" xlink:href="#aI"/><use transform="matrix(0.05,0,0,0.05,35.95,0)" xlink:href="#aR"/><use transform="matrix(0.05,0,0,0.05,41.900000000000006,0)" xlink:href="#aK"/><use transform="matrix(0.05,0,0,0.05,45.85000000000001,0)" xlink:href="#aL"/><use transform="matrix(0.05,0,0,0.05,55.85,0)" xlink:href="#aH"/><use transform="matrix(0.05,0,0,0.05,60.85,0)" xlink:href="#ba"/></g><g id="q"><use transform="matrix(0.05,0,0,0.05,0,0)" xlink:href="#aK"/><use transform="matrix(0.05,0,0,0.05,3.95,0)" xlink:href="#aL"/><use transform="matrix(0.05,0,0,0.05,13.949999999999998,0)" xlink:href="#aH"/><use transform="matrix(0.05,0,0,0.05,18.95,0)" xlink:href="#aS"/></g><use transform="matrix(0.05,0,0,0.05,0,0)" xlink:href="#aT" id="r"/><path d="M194 0L95-120 63-95V0H30v-248h33v124l119-124h40L117-140 236 0h-42" id="bb"/><g id="t"><use transform="matrix(0.05,0,0,0.05,0,0)" xlink:href="#bb"/><use transform="matrix(0.05,0,0,0.05,12,0)" xlink:href="#aB"/><use transform="matrix(0.05,0,0,0.05,22,0)" xlink:href="#aA"/><use transform="matrix(0.05,0,0,0.05,25.950000000000003,0)" xlink:href="#aQ"/><use transform="matrix(0.05,0,0,0.05,35.95,0)" xlink:href="#aD"/><use transform="matrix(0.05,0,0,0.05,45.95,0)" xlink:href="#aE"/></g><path d="M240 0l2-218c-23 76-54 145-80 218h-23L58-218 59 0H30v-248h44l77 211c21-75 51-140 76-211h43V0h-30" id="bc"/><g id="u"><use transform="matrix(0.05,0,0,0.05,0,0)" xlink:href="#aF"/><use transform="matrix(0.05,0,0,0.05,9,0)" xlink:href="#aB"/><use transform="matrix(0.05,0,0,0.05,19,0)" xlink:href="#aA"/><use transform="matrix(0.05,0,0,0.05,22.95,0)" xlink:href="#aF"/><use transform="matrix(0.05,0,0,0.05,31.950000000000003,0)" xlink:href="#bc"/><use transform="matrix(0.05,0,0,0.05,46.9,0)" xlink:href="#aJ"/><use transform="matrix(0.05,0,0,0.05,56.900000000000006,0)" xlink:href="#aL"/><use transform="matrix(0.05,0,0,0.05,66.9,0)" xlink:href="#aD"/><use transform="matrix(0.05,0,0,0.05,76.9,0)" xlink:href="#aC"/><use transform="matrix(0.05,0,0,0.05,85.9,0)" xlink:href="#aR"/><use transform="matrix(0.05,0,0,0.05,91.85000000000001,0)" xlink:href="#aS"/></g><path d="M18-27v-27l151-64-151-65v-27l175 74v36" id="bd"/><use transform="matrix(0.05,0,0,0.05,0,0)" xlink:href="#bd" id="v"/><path d="M220-194c63 1 86 42 84 106H170c0 40 13 67 51 68 27 1 43-12 50-29l28 8c-11 29-37 44-78 45-38 0-62-16-74-46-14 27-36 45-76 46-37 0-59-20-59-57-1-64 63-63 126-63 3-35-8-55-41-54-25 0-41 8-44 31l-33-3c1-59 111-68 139-27 13-16 34-24 61-25zM78-20c42-2 63-28 60-74-43 2-94-4-94 41 0 20 13 33 34 33zm193-93c7-60-75-77-95-28-3 7-5 17-5 28h100" id="be"/><g id="w"><use transform="matrix(0.05,0,0,0.05,0,0)" xlink:href="#aG"/><use transform="matrix(0.05,0,0,0.05,9,0)" xlink:href="#be"/><use transform="matrix(0.05,0,0,0.05,25,0)" xlink:href="#aH"/><use transform="matrix(0.05,0,0,0.05,30,0)" xlink:href="#aH"/><use transform="matrix(0.05,0,0,0.05,35,0)" xlink:href="#aD"/><use transform="matrix(0.05,0,0,0.05,45,0)" xlink:href="#aE"/></g><path d="M33 0v-38h34V0H33" id="bf"/><g id="x"><use transform="matrix(0.05,0,0,0.05,0,0)" xlink:href="#bc"/><use transform="matrix(0.05,0,0,0.05,14.950000000000001,0)" xlink:href="#aK"/><use transform="matrix(0.05,0,0,0.05,18.900000000000002,0)" xlink:href="#aL"/><use transform="matrix(0.05,0,0,0.05,28.900000000000002,0)" xlink:href="#aD"/><use transform="matrix(0.05,0,0,0.05,38.900000000000006,0)" xlink:href="#aE"/><use transform="matrix(0.05,0,0,0.05,44.85000000000001,0)" xlink:href="#aB"/><use transform="matrix(0.05,0,0,0.05,54.85,0)" xlink:href="#aA"/><use transform="matrix(0.05,0,0,0.05,58.80000000000001,0)" xlink:href="#bf"/><use transform="matrix(0.05,0,0,0.05,63.80000000000001,0)" xlink:href="#aI"/><use transform="matrix(0.05,0,0,0.05,73.80000000000001,0)" xlink:href="#aJ"/><use transform="matrix(0.05,0,0,0.05,83.80000000000001,0)" xlink:href="#aG"/><use transform="matrix(0.05,0,0,0.05,92.80000000000001,0)" xlink:href="#aK"/><use transform="matrix(0.05,0,0,0.05,96.75000000000001,0)" xlink:href="#aH"/><use transform="matrix(0.05,0,0,0.05,101.75000000000001,0)" xlink:href="#aK"/><use transform="matrix(0.05,0,0,0.05,105.7,0)" xlink:href="#aJ"/><use transform="matrix(0.05,0,0,0.05,115.7,0)" xlink:href="#aL"/></g><g id="y"><use transform="matrix(0.05,0,0,0.05,0,0)" xlink:href="#aH"/><use transform="matrix(0.05,0,0,0.05,5,0)" xlink:href="#aK"/><use transform="matrix(0.05,0,0,0.05,8.95,0)" xlink:href="#aA"/></g><path d="M210-169c-67 3-38 105-44 169h-31v-121c0-29-5-50-35-48C34-165 62-65 56 0H25l-1-190h30c1 10-1 24 2 32 10-44 99-50 107 0 11-21 27-35 58-36 85-2 47 119 55 194h-31v-121c0-29-5-49-35-48" id="bg"/><g id="z"><use transform="matrix(0.05,0,0,0.05,0,0)" xlink:href="#aB"/><use transform="matrix(0.05,0,0,0.05,10,0)" xlink:href="#aE"/><use transform="matrix(0.05,0,0,0.05,15.949999999999998,0)" xlink:href="#bg"/><use transform="matrix(0.05,0,0,0.05,30.899999999999995,0)" xlink:href="#aI"/><use transform="matrix(0.05,0,0,0.05,40.9,0)" xlink:href="#aJ"/><use transform="matrix(0.05,0,0,0.05,50.9,0)" xlink:href="#aG"/><use transform="matrix(0.05,0,0,0.05,59.900000000000006,0)" xlink:href="#aK"/><use transform="matrix(0.05,0,0,0.05,63.85,0)" xlink:href="#aH"/><use transform="matrix(0.05,0,0,0.05,68.85,0)" xlink:href="#aK"/><use transform="matrix(0.05,0,0,0.05,72.8,0)" xlink:href="#aJ"/><use transform="matrix(0.05,0,0,0.05,82.8,0)" xlink:href="#aL"/></g><g id="A"><use transform="matrix(0.05,0,0,0.05,0,0)" xlink:href="#aH"/><use transform="matrix(0.05,0,0,0.05,5,0)" xlink:href="#aE"/><use transform="matrix(0.05,0,0,0.05,10.95,0)" xlink:href="#be"/><use transform="matrix(0.05,0,0,0.05,26.950000000000003,0)" xlink:href="#aX"/><use transform="matrix(0.05,0,0,0.05,35.95,0)" xlink:href="#aX"/><use transform="matrix(0.05,0,0,0.05,44.95,0)" xlink:href="#aD"/><use transform="matrix(0.05,0,0,0.05,54.95,0)" xlink:href="#aE"/></g><g id="B"><use transform="matrix(0.05,0,0,0.05,0,0)" xlink:href="#aB"/><use transform="matrix(0.05,0,0,0.05,10,0)" xlink:href="#aE"/><use transform="matrix(0.05,0,0,0.05,15.949999999999998,0)" xlink:href="#bg"/></g><g id="C"><use transform="matrix(0.05,0,0,0.05,0,0)" xlink:href="#aH"/><use transform="matrix(0.05,0,0,0.05,5,0)" xlink:href="#aK"/><use transform="matrix(0.05,0,0,0.05,8.95,0)" xlink:href="#aA"/><use transform="matrix(0.05,0,0,0.05,12.899999999999999,0)" xlink:href="#aV"/><use transform="matrix(0.05,0,0,0.05,22.9,0)" xlink:href="#aB"/><use transform="matrix(0.05,0,0,0.05,32.9,0)" xlink:href="#aZ"/><use transform="matrix(0.05,0,0,0.05,42.9,0)" xlink:href="#aD"/></g><g id="D"><use transform="matrix(0.05,0,0,0.05,0,0)" xlink:href="#aL"/><use transform="matrix(0.05,0,0,0.05,10,0)" xlink:href="#aU"/><use transform="matrix(0.05,0,0,0.05,20,0)" xlink:href="#aE"/></g><path d="M68-36c1 33-1 63-14 82H32c9-13 17-26 17-46H33v-36h35zM33-154v-36h35v36H33" id="bh"/><g id="E"><use transform="matrix(0.05,0,0,0.05,0,0)" xlink:href="#aH"/><use transform="matrix(0.05,0,0,0.05,5,0)" xlink:href="#aK"/><use transform="matrix(0.05,0,0,0.05,8.95,0)" xlink:href="#aA"/><use transform="matrix(0.05,0,0,0.05,12.899999999999999,0)" xlink:href="#aV"/><use transform="matrix(0.05,0,0,0.05,22.9,0)" xlink:href="#aB"/><use transform="matrix(0.05,0,0,0.05,32.9,0)" xlink:href="#aZ"/><use transform="matrix(0.05,0,0,0.05,42.9,0)" xlink:href="#aD"/><use transform="matrix(0.05,0,0,0.05,52.900000000000006,0)" xlink:href="#bh"/></g><path d="M101-234c-31-9-42 10-38 44h38v23H63V0H32v-167H5v-23h27c-7-52 17-82 69-68v24" id="bi"/><path d="M181-161c11 16 11 39 14 66 9 87-81 123-140 81L37 7H8l32-38C30-47 27-69 25-95c-8-91 81-121 141-83l16-18h30zM109-20c57 4 58-63 49-114L73-35c7 11 20 15 36 15zm2-150c-56-3-57 65-48 113l85-99c-8-10-20-13-37-14" id="bj"/><g id="F"><use transform="matrix(0.05,0,0,0.05,0,0)" xlink:href="#aH"/><use transform="matrix(0.05,0,0,0.05,5,0)" xlink:href="#aK"/><use transform="matrix(0.05,0,0,0.05,8.95,0)" xlink:href="#aA"/><use transform="matrix(0.05,0,0,0.05,12.899999999999999,0)" xlink:href="#bi"/><use transform="matrix(0.05,0,0,0.05,17.9,0)" xlink:href="#bj"/><use transform="matrix(0.05,0,0,0.05,28.85,0)" xlink:href="#aW"/></g><g id="G"><use transform="matrix(0.05,0,0,0.05,0,0)" xlink:href="#bg"/><use transform="matrix(0.05,0,0,0.05,14.950000000000001,0)" xlink:href="#aJ"/><use transform="matrix(0.05,0,0,0.05,24.950000000000003,0)" xlink:href="#aL"/><use transform="matrix(0.05,0,0,0.05,34.95,0)" xlink:href="#aD"/><use transform="matrix(0.05,0,0,0.05,44.95,0)" xlink:href="#aC"/><use transform="matrix(0.05,0,0,0.05,52.6,0)" xlink:href="#ba"/></g><path d="M212-179c-10-28-35-45-73-45-59 0-87 40-87 99 0 60 29 101 89 101 43 0 62-24 78-52l27 14C228-24 195 4 139 4 59 4 22-46 18-125c-6-104 99-153 187-111 19 9 31 26 39 46" id="bk"/><g id="H"><use transform="matrix(0.05,0,0,0.05,0,0)" xlink:href="#bc"/><use transform="matrix(0.05,0,0,0.05,14.950000000000001,0)" xlink:href="#aK"/><use transform="matrix(0.05,0,0,0.05,18.900000000000002,0)" xlink:href="#aL"/><use transform="matrix(0.05,0,0,0.05,28.900000000000002,0)" xlink:href="#aD"/><use transform="matrix(0.05,0,0,0.05,38.900000000000006,0)" xlink:href="#aE"/><use transform="matrix(0.05,0,0,0.05,44.85000000000001,0)" xlink:href="#aB"/><use transform="matrix(0.05,0,0,0.05,54.85,0)" xlink:href="#aA"/><use transform="matrix(0.05,0,0,0.05,58.80000000000001,0)" xlink:href="#bf"/><use transform="matrix(0.05,0,0,0.05,63.80000000000001,0)" xlink:href="#aN"/><use transform="matrix(0.05,0,0,0.05,73.80000000000001,0)" xlink:href="#aB"/><use transform="matrix(0.05,0,0,0.05,83.80000000000001,0)" xlink:href="#aG"/><use transform="matrix(0.05,0,0,0.05,92.80000000000001,0)" xlink:href="#bk"/><use transform="matrix(0.05,0,0,0.05,105.75,0)" xlink:href="#aB"/><use transform="matrix(0.05,0,0,0.05,115.75,0)" xlink:href="#aP"/><use transform="matrix(0.05,0,0,0.05,125.75,0)" xlink:href="#aZ"/><use transform="matrix(0.05,0,0,0.05,135.75,0)" xlink:href="#aN"/><use transform="matrix(0.05,0,0,0.05,145.75,0)" xlink:href="#aH"/><use transform="matrix(0.05,0,0,0.05,150.75,0)" xlink:href="#aR"/><use transform="matrix(0.05,0,0,0.05,156.7,0)" xlink:href="#aS"/></g><g id="I"><use transform="matrix(0.05,0,0,0.05,0,0)" xlink:href="#aJ"/><use transform="matrix(0.05,0,0,0.05,10,0)" xlink:href="#aZ"/></g><g id="J"><use transform="matrix(0.05,0,0,0.05,0,0)" xlink:href="#aX"/><use transform="matrix(0.05,0,0,0.05,9,0)" xlink:href="#aB"/><use transform="matrix(0.05,0,0,0.05,19,0)" xlink:href="#aA"/><use transform="matrix(0.05,0,0,0.05,22.95,0)" xlink:href="#aQ"/></g><path d="M233-177c-1 41-23 64-60 70L243 0h-38l-65-103H63V0H30v-248c88 3 205-21 203 71zM63-129c60-2 137 13 137-47 0-61-80-42-137-45v92" id="bl"/><g id="K"><use transform="matrix(0.05,0,0,0.05,0,0)" xlink:href="#aI"/><use transform="matrix(0.05,0,0,0.05,10,0)" xlink:href="#bl"/><use transform="matrix(0.05,0,0,0.05,22.950000000000003,0)" xlink:href="#aD"/><use transform="matrix(0.05,0,0,0.05,32.95,0)" xlink:href="#aG"/><use transform="matrix(0.05,0,0,0.05,41.95,0)" xlink:href="#aD"/><use transform="matrix(0.05,0,0,0.05,51.95,0)" xlink:href="#aH"/><use transform="matrix(0.05,0,0,0.05,56.95,0)" xlink:href="#aR"/><use transform="matrix(0.05,0,0,0.05,62.900000000000006,0)" xlink:href="#aS"/></g><g id="L"><use transform="matrix(0.05,0,0,0.05,0,0)" xlink:href="#bg"/><use transform="matrix(0.05,0,0,0.05,14.950000000000001,0)" xlink:href="#aJ"/><use transform="matrix(0.05,0,0,0.05,24.950000000000003,0)" xlink:href="#aY"/><use transform="matrix(0.05,0,0,0.05,33.95,0)" xlink:href="#aD"/><use transform="matrix(0.05,0,0,0.05,43.95,0)" xlink:href="#bg"/><use transform="matrix(0.05,0,0,0.05,58.900000000000006,0)" xlink:href="#aD"/><use transform="matrix(0.05,0,0,0.05,68.9,0)" xlink:href="#aL"/><use transform="matrix(0.05,0,0,0.05,78.9,0)" xlink:href="#aH"/><use transform="matrix(0.05,0,0,0.05,83.9,0)" xlink:href="#aR"/><use transform="matrix(0.05,0,0,0.05,89.85000000000001,0)" xlink:href="#aS"/></g><g id="M"><use transform="matrix(0.05,0,0,0.05,0,0)" xlink:href="#aH"/><use transform="matrix(0.05,0,0,0.05,5,0)" xlink:href="#aE"/><use transform="matrix(0.05,0,0,0.05,10.95,0)" xlink:href="#aB"/><use transform="matrix(0.05,0,0,0.05,20.95,0)" xlink:href="#aL"/><use transform="matrix(0.05,0,0,0.05,30.950000000000003,0)" xlink:href="#aG"/><use transform="matrix(0.05,0,0,0.05,39.95,0)" xlink:href="#aA"/><use transform="matrix(0.05,0,0,0.05,43.900000000000006,0)" xlink:href="#aB"/><use transform="matrix(0.05,0,0,0.05,53.900000000000006,0)" xlink:href="#aH"/><use transform="matrix(0.05,0,0,0.05,58.900000000000006,0)" xlink:href="#aD"/><use transform="matrix(0.05,0,0,0.05,68.9,0)" xlink:href="#aE"/><use transform="matrix(0.05,0,0,0.05,74.85000000000001,0)" xlink:href="#aD"/></g><g id="N"><use transform="matrix(0.05,0,0,0.05,0,0)" xlink:href="#aV"/><use transform="matrix(0.05,0,0,0.05,10,0)" xlink:href="#aJ"/><use transform="matrix(0.05,0,0,0.05,20,0)" xlink:href="#aJ"/><use transform="matrix(0.05,0,0,0.05,30,0)" xlink:href="#aA"/><use transform="matrix(0.05,0,0,0.05,33.95,0)" xlink:href="#aD"/><use transform="matrix(0.05,0,0,0.05,43.95,0)" xlink:href="#aB"/><use transform="matrix(0.05,0,0,0.05,53.95,0)" xlink:href="#aL"/></g><g id="O"><use transform="matrix(0.05,0,0,0.05,0,0)" xlink:href="#bi"/><use transform="matrix(0.05,0,0,0.05,5,0)" xlink:href="#aE"/><use transform="matrix(0.05,0,0,0.05,10.95,0)" xlink:href="#aB"/></g><g id="P"><use transform="matrix(0.05,0,0,0.05,0,0)" xlink:href="#aG"/><use transform="matrix(0.05,0,0,0.05,9,0)" xlink:href="#aD"/><use transform="matrix(0.05,0,0,0.05,19,0)" xlink:href="#aH"/><use transform="matrix(0.05,0,0,0.05,24,0)" xlink:href="#bg"/><use transform="matrix(0.05,0,0,0.05,38.95,0)" xlink:href="#aJ"/><use transform="matrix(0.05,0,0,0.05,48.95,0)" xlink:href="#aY"/><use transform="matrix(0.05,0,0,0.05,57.95,0)" xlink:href="#aD"/><use transform="matrix(0.05,0,0,0.05,67.95,0)" xlink:href="#aR"/><use transform="matrix(0.05,0,0,0.05,73.9,0)" xlink:href="#aS"/></g><g id="Q"><use transform="matrix(0.05,0,0,0.05,0,0)" xlink:href="#aH"/><use transform="matrix(0.05,0,0,0.05,5,0)" xlink:href="#aK"/><use transform="matrix(0.05,0,0,0.05,8.95,0)" xlink:href="#aA"/></g><g id="R"><use transform="matrix(0.05,0,0,0.05,0,0)" xlink:href="#be"/><use transform="matrix(0.05,0,0,0.05,16,0)" xlink:href="#aL"/><use transform="matrix(0.05,0,0,0.05,26,0)" xlink:href="#aQ"/><use transform="matrix(0.05,0,0,0.05,36,0)" xlink:href="#aE"/><use transform="matrix(0.05,0,0,0.05,41.95,0)" xlink:href="#aK"/><use transform="matrix(0.05,0,0,0.05,45.900000000000006,0)" xlink:href="#aL"/><use transform="matrix(0.05,0,0,0.05,55.900000000000006,0)" xlink:href="#aZ"/></g><g id="S"><use transform="matrix(0.05,0,0,0.05,0,0)" xlink:href="#aB"/><use transform="matrix(0.05,0,0,0.05,10,0)" xlink:href="#bi"/></g><g id="T"><use transform="matrix(0.05,0,0,0.05,0,0)" xlink:href="#aY"/><use transform="matrix(0.05,0,0,0.05,9,0)" xlink:href="#aB"/><use transform="matrix(0.05,0,0,0.05,19,0)" xlink:href="#aE"/><use transform="matrix(0.05,0,0,0.05,24.95,0)" xlink:href="#aK"/><use transform="matrix(0.05,0,0,0.05,28.899999999999995,0)" xlink:href="#aB"/><use transform="matrix(0.05,0,0,0.05,38.9,0)" xlink:href="#aV"/><use transform="matrix(0.05,0,0,0.05,48.9,0)" xlink:href="#aA"/><use transform="matrix(0.05,0,0,0.05,52.85,0)" xlink:href="#aD"/><use transform="matrix(0.05,0,0,0.05,62.85,0)" xlink:href="#aE"/></g><g id="U"><use transform="matrix(0.05,0,0,0.05,0,0)" xlink:href="#aG"/><use transform="matrix(0.05,0,0,0.05,9,0)" xlink:href="#aD"/><use transform="matrix(0.05,0,0,0.05,19,0)" xlink:href="#aH"/><use transform="matrix(0.05,0,0,0.05,24,0)" xlink:href="#bc"/><use transform="matrix(0.05,0,0,0.05,38.95,0)" xlink:href="#aJ"/><use transform="matrix(0.05,0,0,0.05,48.95,0)" xlink:href="#aY"/><use transform="matrix(0.05,0,0,0.05,57.95,0)" xlink:href="#aD"/><use transform="matrix(0.05,0,0,0.05,67.95,0)" xlink:href="#aR"/><use transform="matrix(0.05,0,0,0.05,73.9,0)" xlink:href="#aS"/></g><use transform="matrix(0.05,0,0,0.05,0,0)" xlink:href="#aT" id="V"/><g id="W"><use transform="matrix(0.05,0,0,0.05,0,0)" xlink:href="#aH"/><use transform="matrix(0.05,0,0,0.05,5,0)" xlink:href="#aB"/><use transform="matrix(0.05,0,0,0.05,15,0)" xlink:href="#aZ"/><use transform="matrix(0.05,0,0,0.05,25,0)" xlink:href="#aD"/><use transform="matrix(0.05,0,0,0.05,35,0)" xlink:href="#aE"/></g><g id="X"><use transform="matrix(0.05,0,0,0.05,0,0)" xlink:href="#aK"/><use transform="matrix(0.05,0,0,0.05,3.95,0)" xlink:href="#bg"/><use transform="matrix(0.05,0,0,0.05,18.900000000000002,0)" xlink:href="#aJ"/><use transform="matrix(0.05,0,0,0.05,28.900000000000002,0)" xlink:href="#aQ"/></g><g id="Y"><use transform="matrix(0.05,0,0,0.05,0,0)" xlink:href="#aX"/><use transform="matrix(0.05,0,0,0.05,9,0)" xlink:href="#aD"/><use transform="matrix(0.05,0,0,0.05,19,0)" xlink:href="#aC"/><use transform="matrix(0.05,0,0,0.05,28,0)" xlink:href="#aV"/><use transform="matrix(0.05,0,0,0.05,38,0)" xlink:href="#aJ"/><use transform="matrix(0.05,0,0,0.05,48,0)" xlink:href="#aB"/><use transform="matrix(0.05,0,0,0.05,58,0)" xlink:href="#aE"/><use transform="matrix(0.05,0,0,0.05,63.95,0)" xlink:href="#aQ"/></g><g id="Z"><use transform="matrix(0.05,0,0,0.05,0,0)" xlink:href="#aK"/><use transform="matrix(0.05,0,0,0.05,3.95,0)" xlink:href="#aL"/><use transform="matrix(0.05,0,0,0.05,13.949999999999998,0)" xlink:href="#aI"/><use transform="matrix(0.05,0,0,0.05,23.95,0)" xlink:href="#aP"/><use transform="matrix(0.05,0,0,0.05,33.95,0)" xlink:href="#aH"/></g><path d="M185-189c-5-48-123-54-124 2 14 75 158 14 163 119 3 78-121 87-175 55-17-10-28-26-33-46l33-7c5 56 141 63 141-1 0-78-155-14-162-118-5-82 145-84 179-34 5 7 8 16 11 25" id="bm"/><g id="aa"><use transform="matrix(0.05,0,0,0.05,0,0)" xlink:href="#bm"/><use transform="matrix(0.05,0,0,0.05,12,0)" xlink:href="#aI"/><use transform="matrix(0.05,0,0,0.05,22,0)" xlink:href="#aK"/><use transform="matrix(0.05,0,0,0.05,25.950000000000003,0)" xlink:href="#aA"/><use transform="matrix(0.05,0,0,0.05,29.899999999999995,0)" xlink:href="#aA"/><use transform="matrix(0.05,0,0,0.05,33.85,0)" xlink:href="#aD"/><use transform="matrix(0.05,0,0,0.05,43.85,0)" xlink:href="#aE"/></g><g id="ab"><use transform="matrix(0.05,0,0,0.05,0,0)" xlink:href="#aK"/><use transform="matrix(0.05,0,0,0.05,3.95,0)" xlink:href="#aL"/><use transform="matrix(0.05,0,0,0.05,13.949999999999998,0)" xlink:href="#aI"/><use transform="matrix(0.05,0,0,0.05,23.95,0)" xlink:href="#aP"/><use transform="matrix(0.05,0,0,0.05,33.95,0)" xlink:href="#aH"/></g><path d="M141 0L90-78 38 0H4l68-98-65-92h35l48 74 47-74h35l-64 92 68 98h-35" id="bn"/><g id="ac"><use transform="matrix(0.05,0,0,0.05,0,0)" xlink:href="#bn"/><use transform="matrix(0.05,0,0,0.05,9,0)" xlink:href="#aI"/><use transform="matrix(0.05,0,0,0.05,19,0)" xlink:href="#aJ"/><use transform="matrix(0.05,0,0,0.05,29,0)" xlink:href="#aG"/></g><g id="ad"><use transform="matrix(0.05,0,0,0.05,0,0)" xlink:href="#aC"/><use transform="matrix(0.05,0,0,0.05,9,0)" xlink:href="#aI"/><use transform="matrix(0.05,0,0,0.05,19,0)" xlink:href="#aJ"/><use transform="matrix(0.05,0,0,0.05,29,0)" xlink:href="#aG"/></g><g id="ae"><use transform="matrix(0.05,0,0,0.05,0,0)" xlink:href="#aB"/><use transform="matrix(0.05,0,0,0.05,10,0)" xlink:href="#aE"/><use transform="matrix(0.05,0,0,0.05,15.949999999999998,0)" xlink:href="#aZ"/><use transform="matrix(0.05,0,0,0.05,25.950000000000003,0)" xlink:href="#aG"/></g><g id="af"><use transform="matrix(0.05,0,0,0.05,0,0)" xlink:href="#aB"/><use transform="matrix(0.05,0,0,0.05,10,0)" xlink:href="#aE"/><use transform="matrix(0.05,0,0,0.05,15.949999999999998,0)" xlink:href="#bg"/><use transform="matrix(0.05,0,0,0.05,30.899999999999995,0)" xlink:href="#aI"/><use transform="matrix(0.05,0,0,0.05,40.9,0)" xlink:href="#aJ"/><use transform="matrix(0.05,0,0,0.05,50.9,0)" xlink:href="#aG"/><use transform="matrix(0.05,0,0,0.05,59.900000000000006,0)" xlink:href="#aK"/><use transform="matrix(0.05,0,0,0.05,63.85,0)" xlink:href="#aH"/><use transform="matrix(0.05,0,0,0.05,68.85,0)" xlink:href="#aK"/><use transform="matrix(0.05,0,0,0.05,72.8,0)" xlink:href="#aJ"/><use transform="matrix(0.05,0,0,0.05,82.8,0)" xlink:href="#aL"/></g><use transform="matrix(0.05,0,0,0.05,0,0)" xlink:href="#aE" id="ag"/><g id="ah"><use transform="matrix(0.05,0,0,0.05,0,0)" xlink:href="#aA"/><use transform="matrix(0.05,0,0,0.05,3.95,0)" xlink:href="#aK"/><use transform="matrix(0.05,0,0,0.05,7.9,0)" xlink:href="#aL"/><use transform="matrix(0.05,0,0,0.05,17.9,0)" xlink:href="#aD"/><use transform="matrix(0.05,0,0,0.05,27.899999999999995,0)" xlink:href="#aO"/><use transform="matrix(0.05,0,0,0.05,32.9,0)" xlink:href="#aL"/><use transform="matrix(0.05,0,0,0.05,42.9,0)" xlink:href="#aF"/><use transform="matrix(0.05,0,0,0.05,51.900000000000006,0)" xlink:href="#aE"/><use transform="matrix(0.05,0,0,0.05,57.85,0)" xlink:href="#aD"/><use transform="matrix(0.05,0,0,0.05,67.85,0)" xlink:href="#aB"/><use transform="matrix(0.05,0,0,0.05,77.85,0)" xlink:href="#aG"/><use transform="matrix(0.05,0,0,0.05,86.85,0)" xlink:href="#aD"/></g><g id="ai"><use transform="matrix(0.05,0,0,0.05,0,0)" xlink:href="#aI"/><use transform="matrix(0.05,0,0,0.05,10,0)" xlink:href="#bl"/><use transform="matrix(0.05,0,0,0.05,22.950000000000003,0)" xlink:href="#aD"/><use transform="matrix(0.05,0,0,0.05,32.95,0)" xlink:href="#aG"/><use transform="matrix(0.05,0,0,0.05,41.95,0)" xlink:href="#aD"/><use transform="matrix(0.05,0,0,0.05,51.95,0)" xlink:href="#aH"/><use transform="matrix(0.05,0,0,0.05,56.95,0)" xlink:href="#aR"/><use transform="matrix(0.05,0,0,0.05,62.900000000000006,0)" xlink:href="#aS"/></g><g id="aj"><use transform="matrix(0.05,0,0,0.05,0,0)" xlink:href="#bl"/><use transform="matrix(0.05,0,0,0.05,12.950000000000001,0)" xlink:href="#aD"/><use transform="matrix(0.05,0,0,0.05,22.950000000000003,0)" xlink:href="#aG"/><use transform="matrix(0.05,0,0,0.05,31.950000000000003,0)" xlink:href="#aD"/><use transform="matrix(0.05,0,0,0.05,41.95,0)" xlink:href="#aH"/></g><g id="ak"><use transform="matrix(0.05,0,0,0.05,0,0)" xlink:href="#az"/><use transform="matrix(0.05,0,0,0.05,12,0)" xlink:href="#aA"/><use transform="matrix(0.05,0,0,0.05,15.949999999999998,0)" xlink:href="#aB"/><use transform="matrix(0.05,0,0,0.05,25.950000000000003,0)" xlink:href="#aC"/><use transform="matrix(0.05,0,0,0.05,34.95,0)" xlink:href="#aD"/><use transform="matrix(0.05,0,0,0.05,44.95,0)" xlink:href="#aE"/></g><g id="al"><use transform="matrix(0.05,0,0,0.05,0,0)" xlink:href="#aH"/><use transform="matrix(0.05,0,0,0.05,5,0)" xlink:href="#aK"/><use transform="matrix(0.05,0,0,0.05,8.95,0)" xlink:href="#aA"/></g><g id="am"><use transform="matrix(0.05,0,0,0.05,0,0)" xlink:href="#aG"/><use transform="matrix(0.05,0,0,0.05,9,0)" xlink:href="#aH"/><use transform="matrix(0.05,0,0,0.05,14,0)" xlink:href="#aB"/><use transform="matrix(0.05,0,0,0.05,24,0)" xlink:href="#aE"/><use transform="matrix(0.05,0,0,0.05,29.950000000000003,0)" xlink:href="#aH"/></g><g id="an"><use transform="matrix(0.05,0,0,0.05,0,0)" xlink:href="#aY"/><use transform="matrix(0.05,0,0,0.05,9,0)" xlink:href="#be"/><use transform="matrix(0.05,0,0,0.05,25,0)" xlink:href="#aE"/><use transform="matrix(0.05,0,0,0.05,30.950000000000003,0)" xlink:href="#aQ"/><use transform="matrix(0.05,0,0,0.05,40.95,0)" xlink:href="#aK"/><use transform="matrix(0.05,0,0,0.05,44.900000000000006,0)" xlink:href="#aD"/><use transform="matrix(0.05,0,0,0.05,54.900000000000006,0)" xlink:href="#aE"/></g><g id="ao"><use transform="matrix(0.05,0,0,0.05,0,0)" xlink:href="#bk"/><use transform="matrix(0.05,0,0,0.05,12.950000000000001,0)" xlink:href="#aJ"/><use transform="matrix(0.05,0,0,0.05,22.950000000000003,0)" xlink:href="#aL"/><use transform="matrix(0.05,0,0,0.05,32.95,0)" xlink:href="#aG"/><use transform="matrix(0.05,0,0,0.05,41.95,0)" xlink:href="#aH"/><use transform="matrix(0.05,0,0,0.05,46.95,0)" xlink:href="#aE"/><use transform="matrix(0.05,0,0,0.05,52.900000000000006,0)" xlink:href="#aP"/><use transform="matrix(0.05,0,0,0.05,62.900000000000006,0)" xlink:href="#aF"/><use transform="matrix(0.05,0,0,0.05,71.9,0)" xlink:href="#aH"/><use transform="matrix(0.05,0,0,0.05,76.9,0)" xlink:href="#aJ"/><use transform="matrix(0.05,0,0,0.05,86.9,0)" xlink:href="#aE"/></g><path d="M232-93c-1 65-40 97-104 97C67 4 28-28 28-90v-158h33c8 89-33 224 67 224 102 0 64-133 71-224h33v155" id="bo"/><g id="ap"><use transform="matrix(0.05,0,0,0.05,0,0)" xlink:href="#aK"/><use transform="matrix(0.05,0,0,0.05,3.95,0)" xlink:href="#aG"/><use transform="matrix(0.05,0,0,0.05,12.949999999999998,0)" xlink:href="#bo"/><use transform="matrix(0.05,0,0,0.05,25.899999999999995,0)" xlink:href="#aI"/></g><g id="aq"><use transform="matrix(0.05,0,0,0.05,0,0)" xlink:href="#aE"/><use transform="matrix(0.05,0,0,0.05,5.95,0)" xlink:href="#aD"/><use transform="matrix(0.05,0,0,0.05,15.949999999999998,0)" xlink:href="#aG"/><use transform="matrix(0.05,0,0,0.05,24.95,0)" xlink:href="#aH"/><use transform="matrix(0.05,0,0,0.05,29.950000000000003,0)" xlink:href="#aB"/><use transform="matrix(0.05,0,0,0.05,39.95,0)" xlink:href="#aE"/><use transform="matrix(0.05,0,0,0.05,45.900000000000006,0)" xlink:href="#aH"/></g><g id="ar"><use transform="matrix(0.05,0,0,0.05,0,0)" xlink:href="#aE"/><use transform="matrix(0.05,0,0,0.05,5.95,0)" xlink:href="#aD"/><use transform="matrix(0.05,0,0,0.05,15.949999999999998,0)" xlink:href="#aG"/><use transform="matrix(0.05,0,0,0.05,24.95,0)" xlink:href="#aD"/><use transform="matrix(0.05,0,0,0.05,34.95,0)" xlink:href="#aH"/></g><path d="M30-248c118-7 216 8 213 122C240-48 200 0 122 0H30v-248zM63-27c89 8 146-16 146-99s-60-101-146-95v194" id="bp"/><path d="M206 0h-36l-40-164L89 0H53L-1-190h32L70-26l43-164h34l41 164 42-164h31" id="bq"/><g id="as"><use transform="matrix(0.05,0,0,0.05,0,0)" xlink:href="#aK"/><use transform="matrix(0.05,0,0,0.05,3.95,0)" xlink:href="#aG"/><use transform="matrix(0.05,0,0,0.05,12.949999999999998,0)" xlink:href="#bp"/><use transform="matrix(0.05,0,0,0.05,25.899999999999995,0)" xlink:href="#aJ"/><use transform="matrix(0.05,0,0,0.05,35.9,0)" xlink:href="#bq"/><use transform="matrix(0.05,0,0,0.05,48.85,0)" xlink:href="#aL"/></g><path d="M190 0L58-211 59 0H30v-248h39L202-35l-2-213h31V0h-41" id="br"/><g id="at"><use transform="matrix(0.05,0,0,0.05,0,0)" xlink:href="#bg"/><use transform="matrix(0.05,0,0,0.05,14.950000000000001,0)" xlink:href="#aK"/><use transform="matrix(0.05,0,0,0.05,18.900000000000002,0)" xlink:href="#aL"/><use transform="matrix(0.05,0,0,0.05,28.900000000000002,0)" xlink:href="#aD"/><use transform="matrix(0.05,0,0,0.05,38.900000000000006,0)" xlink:href="#aE"/><use transform="matrix(0.05,0,0,0.05,44.85000000000001,0)" xlink:href="#aB"/><use transform="matrix(0.05,0,0,0.05,54.85,0)" xlink:href="#aA"/><use transform="matrix(0.05,0,0,0.05,58.80000000000001,0)" xlink:href="#bk"/><use transform="matrix(0.05,0,0,0.05,71.75000000000001,0)" xlink:href="#aJ"/><use transform="matrix(0.05,0,0,0.05,81.75000000000001,0)" xlink:href="#aA"/><use transform="matrix(0.05,0,0,0.05,85.70000000000002,0)" xlink:href="#aA"/><use transform="matrix(0.05,0,0,0.05,89.65000000000002,0)" xlink:href="#aK"/><use transform="matrix(0.05,0,0,0.05,93.60000000000002,0)" xlink:href="#aG"/><use transform="matrix(0.05,0,0,0.05,102.60000000000002,0)" xlink:href="#aK"/><use transform="matrix(0.05,0,0,0.05,106.55000000000003,0)" xlink:href="#aJ"/><use transform="matrix(0.05,0,0,0.05,116.55000000000003,0)" xlink:href="#aL"/><use transform="matrix(0.05,0,0,0.05,126.55000000000003,0)" xlink:href="#br"/><use transform="matrix(0.05,0,0,0.05,139.50000000000003,0)" xlink:href="#aP"/><use transform="matrix(0.05,0,0,0.05,149.50000000000003,0)" xlink:href="#bg"/><use transform="matrix(0.05,0,0,0.05,164.45000000000002,0)" xlink:href="#aV"/><use transform="matrix(0.05,0,0,0.05,174.45000000000002,0)" xlink:href="#aD"/><use transform="matrix(0.05,0,0,0.05,184.45000000000002,0)" xlink:href="#aE"/></g><path d="M127-220V0H93v-220H8v-28h204v28h-85" id="bs"/><g id="au"><use transform="matrix(0.05,0,0,0.05,0,0)" xlink:href="#bg"/><use transform="matrix(0.05,0,0,0.05,14.950000000000001,0)" xlink:href="#aK"/><use transform="matrix(0.05,0,0,0.05,18.900000000000002,0)" xlink:href="#aL"/><use transform="matrix(0.05,0,0,0.05,28.900000000000002,0)" xlink:href="#aD"/><use transform="matrix(0.05,0,0,0.05,38.900000000000006,0)" xlink:href="#aE"/><use transform="matrix(0.05,0,0,0.05,44.85000000000001,0)" xlink:href="#aB"/><use transform="matrix(0.05,0,0,0.05,54.85,0)" xlink:href="#aA"/><use transform="matrix(0.05,0,0,0.05,58.80000000000001,0)" xlink:href="#bs"/><use transform="matrix(0.05,0,0,0.05,68.75000000000001,0)" xlink:href="#aC"/><use transform="matrix(0.05,0,0,0.05,77.75000000000001,0)" xlink:href="#aI"/><use transform="matrix(0.05,0,0,0.05,87.75000000000001,0)" xlink:href="#aD"/></g><g id="av"><use transform="matrix(0.05,0,0,0.05,0,0)" xlink:href="#bc"/><use transform="matrix(0.05,0,0,0.05,14.950000000000001,0)" xlink:href="#aK"/><use transform="matrix(0.05,0,0,0.05,18.900000000000002,0)" xlink:href="#aL"/><use transform="matrix(0.05,0,0,0.05,28.900000000000002,0)" xlink:href="#aD"/><use transform="matrix(0.05,0,0,0.05,38.900000000000006,0)" xlink:href="#aE"/><use transform="matrix(0.05,0,0,0.05,44.85000000000001,0)" xlink:href="#aB"/><use transform="matrix(0.05,0,0,0.05,54.85,0)" xlink:href="#aA"/><use transform="matrix(0.05,0,0,0.05,58.80000000000001,0)" xlink:href="#bf"/><use transform="matrix(0.05,0,0,0.05,63.80000000000001,0)" xlink:href="#bn"/><use transform="matrix(0.05,0,0,0.05,72.80000000000001,0)" xlink:href="#aI"/><use transform="matrix(0.05,0,0,0.05,82.80000000000001,0)" xlink:href="#aJ"/><use transform="matrix(0.05,0,0,0.05,92.80000000000001,0)" xlink:href="#aG"/></g><g id="aw"><use transform="matrix(0.05,0,0,0.05,0,0)" xlink:href="#bc"/><use transform="matrix(0.05,0,0,0.05,14.950000000000001,0)" xlink:href="#aK"/><use transform="matrix(0.05,0,0,0.05,18.900000000000002,0)" xlink:href="#aL"/><use transform="matrix(0.05,0,0,0.05,28.900000000000002,0)" xlink:href="#aD"/><use transform="matrix(0.05,0,0,0.05,38.900000000000006,0)" xlink:href="#aE"/><use transform="matrix(0.05,0,0,0.05,44.85000000000001,0)" xlink:href="#aB"/><use transform="matrix(0.05,0,0,0.05,54.85,0)" xlink:href="#aA"/><use transform="matrix(0.05,0,0,0.05,58.80000000000001,0)" xlink:href="#bf"/><use transform="matrix(0.05,0,0,0.05,63.80000000000001,0)" xlink:href="#aC"/><use transform="matrix(0.05,0,0,0.05,72.80000000000001,0)" xlink:href="#aI"/><use transform="matrix(0.05,0,0,0.05,82.80000000000001,0)" xlink:href="#aJ"/><use transform="matrix(0.05,0,0,0.05,92.80000000000001,0)" xlink:href="#aG"/></g><g id="ax"><use transform="matrix(0.05,0,0,0.05,0,0)" xlink:href="#bc"/><use transform="matrix(0.05,0,0,0.05,14.950000000000001,0)" xlink:href="#aK"/><use transform="matrix(0.05,0,0,0.05,18.900000000000002,0)" xlink:href="#aL"/><use transform="matrix(0.05,0,0,0.05,28.900000000000002,0)" xlink:href="#aD"/><use transform="matrix(0.05,0,0,0.05,38.900000000000006,0)" xlink:href="#aE"/><use transform="matrix(0.05,0,0,0.05,44.85000000000001,0)" xlink:href="#aB"/><use transform="matrix(0.05,0,0,0.05,54.85,0)" xlink:href="#aA"/><use transform="matrix(0.05,0,0,0.05,58.80000000000001,0)" xlink:href="#bf"/><use transform="matrix(0.05,0,0,0.05,63.80000000000001,0)" xlink:href="#aH"/><use transform="matrix(0.05,0,0,0.05,68.80000000000001,0)" xlink:href="#aC"/><use transform="matrix(0.05,0,0,0.05,77.80000000000001,0)" xlink:href="#aI"/><use transform="matrix(0.05,0,0,0.05,87.80000000000001,0)" xlink:href="#aD"/></g><g id="ay"><use transform="matrix(0.05,0,0,0.05,0,0)" xlink:href="#bc"/><use transform="matrix(0.05,0,0,0.05,14.950000000000001,0)" xlink:href="#aK"/><use transform="matrix(0.05,0,0,0.05,18.900000000000002,0)" xlink:href="#aL"/><use transform="matrix(0.05,0,0,0.05,28.900000000000002,0)" xlink:href="#aD"/><use transform="matrix(0.05,0,0,0.05,38.900000000000006,0)" xlink:href="#aE"/><use transform="matrix(0.05,0,0,0.05,44.85000000000001,0)" xlink:href="#aB"/><use transform="matrix(0.05,0,0,0.05,54.85,0)" xlink:href="#aA"/><use transform="matrix(0.05,0,0,0.05,58.80000000000001,0)" xlink:href="#bf"/><use transform="matrix(0.05,0,0,0.05,63.80000000000001,0)" xlink:href="#aL"/></g></defs></g></svg>