<svg xmlns="http://www.w3.org/2000/svg" xmlns:xlink="http://www.w3.org/1999/xlink" xmlns:lucid="lucid" width="1128" height="331"><g transform="translate(-1378 -1412)" lucid:page-tab-id="0_0"><path d="M1598.3 1543.2h99.4v100h-99.4z" stroke="#000" stroke-width="2" fill="#a3d977"/><use xlink:href="#a" transform="matrix(1,0,0,1,1603.2999999999527,1548.1999999999998) translate(10.574999999999996 48.15)"/><path d="M1742.85 1544.4h99.4v100h-99.4z" stroke="#000" stroke-width="2" fill="#3aa6dd"/><use xlink:href="#b" transform="matrix(1,0,0,1,1747.8499999999294,1549.3999999999533) translate(9.549999999999997 36.9)"/><use xlink:href="#c" transform="matrix(1,0,0,1,1747.8499999999294,1549.3999999999533) translate(13.524999999999999 58.5)"/><path d="M1887.4 1544.4h99.4v100h-99.4z" stroke="#000" stroke-width="2" fill="#de5f85"/><use xlink:href="#d" transform="matrix(1,0,0,1,1892.3999999999062,1549.3999999999533) translate(20.099999999999998 36.9)"/><use xlink:href="#e" transform="matrix(1,0,0,1,1892.3999999999062,1549.3999999999533) translate(25.525 58.5)"/><path d="M2031.95 1544.4h99.4v100h-99.4z" stroke="#000" stroke-width="2" fill="#d1bcd2"/><use xlink:href="#f" transform="matrix(1,0,0,1,2036.949999999883,1549.3999999999533) translate(10.600000000000001 48.15)"/><path d="M2176.5 1544.4h99.4v100h-99.4z" stroke="#000" stroke-width="2" fill="#ffc374"/><use xlink:href="#g" transform="matrix(1,0,0,1,2181.49999999986,1549.3999999999533) translate(-2.3999999999999986 48.6)"/><path d="M2321.05 1543.2h99.4v100h-99.4z" stroke="#000" stroke-width="2" fill="#c92d39"/><use xlink:href="#h" transform="matrix(1,0,0,1,2326.0499999998365,1548.1999999999998) translate(3.549999999999997 48.15)"/><path d="M1453.75 1544.4h99.4v100h-99.4z" stroke="#000" stroke-width="2" fill="#99d5ca"/><use xlink:href="#i" transform="matrix(1,0,0,1,1458.749999999976,1549.3999999999533) translate(22.549999999999997 48.15)"/><path d="M1813.45 1460h240v60h-240z" stroke="#000" stroke-opacity="0" stroke-width="2" fill="#fff" fill-opacity="0"/><g><use xlink:href="#j" transform="matrix(1,0,0,1,1818.4499999999875,1465) translate(17.444444444444443 35.125)"/></g><defs><path d="M30-248c87 1 191-15 191 75 0 78-77 80-158 76V0H30v-248zm33 125c57 0 124 11 124-50 0-59-68-47-124-48v98" id="k"/><path d="M114-163C36-179 61-72 57 0H25l-1-190h30c1 12-1 29 2 39 6-27 23-49 58-41v29" id="l"/><path d="M100-194c62-1 85 37 85 99 1 63-27 99-86 99S16-35 15-95c0-66 28-99 85-99zM99-20c44 1 53-31 53-75 0-43-8-75-51-75s-53 32-53 75 10 74 51 75" id="m"/><path d="M177-190C167-65 218 103 67 71c-23-6-38-20-44-43l32-5c15 47 100 32 89-28v-30C133-14 115 1 83 1 29 1 15-40 15-95c0-56 16-97 71-98 29-1 48 16 59 35 1-10 0-23 2-32h30zM94-22c36 0 50-32 50-73 0-42-14-75-50-75-39 0-46 34-46 75s6 73 46 73" id="n"/><path d="M141-36C126-15 110 5 73 4 37 3 15-17 15-53c-1-64 63-63 125-63 3-35-9-54-41-54-24 1-41 7-42 31l-33-3c5-37 33-52 76-52 45 0 72 20 72 64v82c-1 20 7 32 28 27v20c-31 9-61-2-59-35zM48-53c0 20 12 33 32 33 41-3 63-29 60-74-43 2-92-5-92 41" id="o"/><path d="M210-169c-67 3-38 105-44 169h-31v-121c0-29-5-50-35-48C34-165 62-65 56 0H25l-1-190h30c1 10-1 24 2 32 10-44 99-50 107 0 11-21 27-35 58-36 85-2 47 119 55 194h-31v-121c0-29-5-49-35-48" id="p"/><g id="a"><use transform="matrix(0.05,0,0,0.05,0,0)" xlink:href="#k"/><use transform="matrix(0.05,0,0,0.05,12,0)" xlink:href="#l"/><use transform="matrix(0.05,0,0,0.05,17.95,0)" xlink:href="#m"/><use transform="matrix(0.05,0,0,0.05,27.950000000000003,0)" xlink:href="#n"/><use transform="matrix(0.05,0,0,0.05,37.95,0)" xlink:href="#l"/><use transform="matrix(0.05,0,0,0.05,43.900000000000006,0)" xlink:href="#o"/><use transform="matrix(0.05,0,0,0.05,53.900000000000006,0)" xlink:href="#p"/></g><path d="M240 0l2-218c-23 76-54 145-80 218h-23L58-218 59 0H30v-248h44l77 211c21-75 51-140 76-211h43V0h-30" id="q"/><path d="M100-194c63 0 86 42 84 106H49c0 40 14 67 53 68 26 1 43-12 49-29l28 8c-11 28-37 45-77 45C44 4 14-33 15-96c1-61 26-98 85-98zm52 81c6-60-76-77-97-28-3 7-6 17-6 28h103" id="r"/><path d="M59-47c-2 24 18 29 38 22v24C64 9 27 4 27-40v-127H5v-23h24l9-43h21v43h35v23H59v120" id="s"/><path d="M85-194c31 0 48 13 60 33l-1-100h32l1 261h-30c-2-10 0-23-3-31C134-8 116 4 85 4 32 4 16-35 15-94c0-66 23-100 70-100zm9 24c-40 0-46 34-46 75 0 40 6 74 45 74 42 0 51-32 51-76 0-42-9-74-50-73" id="t"/><path d="M0 4l72-265h28L28 4H0" id="u"/><g id="b"><use transform="matrix(0.05,0,0,0.05,0,0)" xlink:href="#q"/><use transform="matrix(0.05,0,0,0.05,14.950000000000001,0)" xlink:href="#r"/><use transform="matrix(0.05,0,0,0.05,24.950000000000003,0)" xlink:href="#s"/><use transform="matrix(0.05,0,0,0.05,29.950000000000003,0)" xlink:href="#m"/><use transform="matrix(0.05,0,0,0.05,39.95,0)" xlink:href="#t"/><use transform="matrix(0.05,0,0,0.05,49.95,0)" xlink:href="#r"/><use transform="matrix(0.05,0,0,0.05,59.95,0)" xlink:href="#l"/><use transform="matrix(0.05,0,0,0.05,65.9,0)" xlink:href="#u"/></g><path d="M101-234c-31-9-42 10-38 44h38v23H63V0H32v-167H5v-23h27c-7-52 17-82 69-68v24" id="v"/><path d="M84 4C-5 8 30-112 23-190h32v120c0 31 7 50 39 49 72-2 45-101 50-169h31l1 190h-30c-1-10 1-25-2-33-11 22-28 36-60 37" id="w"/><path d="M117-194c89-4 53 116 60 194h-32v-121c0-31-8-49-39-48C34-167 62-67 57 0H25l-1-190h30c1 10-1 24 2 32 11-22 29-35 61-36" id="x"/><path d="M143 0L79-87 56-68V0H24v-261h32v163l83-92h37l-77 82L181 0h-38" id="y"/><path d="M24-231v-30h32v30H24zM24 0v-190h32V0H24" id="z"/><g id="c"><use transform="matrix(0.05,0,0,0.05,0,0)" xlink:href="#v"/><use transform="matrix(0.05,0,0,0.05,5,0)" xlink:href="#w"/><use transform="matrix(0.05,0,0,0.05,15,0)" xlink:href="#x"/><use transform="matrix(0.05,0,0,0.05,25,0)" xlink:href="#y"/><use transform="matrix(0.05,0,0,0.05,34,0)" xlink:href="#s"/><use transform="matrix(0.05,0,0,0.05,39,0)" xlink:href="#z"/><use transform="matrix(0.05,0,0,0.05,42.95,0)" xlink:href="#m"/><use transform="matrix(0.05,0,0,0.05,52.95,0)" xlink:href="#x"/></g><path d="M185-189c-5-48-123-54-124 2 14 75 158 14 163 119 3 78-121 87-175 55-17-10-28-26-33-46l33-7c5 56 141 63 141-1 0-78-155-14-162-118-5-82 145-84 179-34 5 7 8 16 11 25" id="A"/><path d="M115-194c55 1 70 41 70 98S169 2 115 4C84 4 66-9 55-30l1 105H24l-1-265h31l2 30c10-21 28-34 59-34zm-8 174c40 0 45-34 45-75s-6-73-45-74c-42 0-51 32-51 76 0 43 10 73 51 73" id="B"/><path d="M24 0v-261h32V0H24" id="C"/><g id="d"><use transform="matrix(0.05,0,0,0.05,0,0)" xlink:href="#A"/><use transform="matrix(0.05,0,0,0.05,12,0)" xlink:href="#B"/><use transform="matrix(0.05,0,0,0.05,22,0)" xlink:href="#z"/><use transform="matrix(0.05,0,0,0.05,25.950000000000003,0)" xlink:href="#C"/><use transform="matrix(0.05,0,0,0.05,29.899999999999995,0)" xlink:href="#C"/><use transform="matrix(0.05,0,0,0.05,33.85,0)" xlink:href="#r"/><use transform="matrix(0.05,0,0,0.05,43.85,0)" xlink:href="#l"/></g><g id="e"><use transform="matrix(0.05,0,0,0.05,0,0)" xlink:href="#z"/><use transform="matrix(0.05,0,0,0.05,3.95,0)" xlink:href="#x"/><use transform="matrix(0.05,0,0,0.05,13.949999999999998,0)" xlink:href="#B"/><use transform="matrix(0.05,0,0,0.05,23.95,0)" xlink:href="#w"/><use transform="matrix(0.05,0,0,0.05,33.95,0)" xlink:href="#s"/></g><path d="M108 0H70L1-190h34L89-25l56-165h34" id="D"/><path d="M115-194c53 0 69 39 70 98 0 66-23 100-70 100C84 3 66-7 56-30L54 0H23l1-261h32v101c10-23 28-34 59-34zm-8 174c40 0 45-34 45-75 0-40-5-75-45-74-42 0-51 32-51 76 0 43 10 73 51 73" id="E"/><g id="f"><use transform="matrix(0.05,0,0,0.05,0,0)" xlink:href="#D"/><use transform="matrix(0.05,0,0,0.05,9,0)" xlink:href="#o"/><use transform="matrix(0.05,0,0,0.05,19,0)" xlink:href="#l"/><use transform="matrix(0.05,0,0,0.05,24.95,0)" xlink:href="#z"/><use transform="matrix(0.05,0,0,0.05,28.899999999999995,0)" xlink:href="#o"/><use transform="matrix(0.05,0,0,0.05,38.9,0)" xlink:href="#E"/><use transform="matrix(0.05,0,0,0.05,48.9,0)" xlink:href="#C"/><use transform="matrix(0.05,0,0,0.05,52.85,0)" xlink:href="#r"/><use transform="matrix(0.05,0,0,0.05,62.85,0)" xlink:href="#l"/></g><path d="M16-82v-28h88v28H16" id="F"/><path d="M135-143c-3-34-86-38-87 0 15 53 115 12 119 90S17 21 10-45l28-5c4 36 97 45 98 0-10-56-113-15-118-90-4-57 82-63 122-42 12 7 21 19 24 35" id="G"/><path d="M220-194c63 1 86 42 84 106H170c0 40 13 67 51 68 27 1 43-12 50-29l28 8c-11 29-37 44-78 45-38 0-62-16-74-46-14 27-36 45-76 46-37 0-59-20-59-57-1-64 63-63 126-63 3-35-8-55-41-54-25 0-41 8-44 31l-33-3c1-59 111-68 139-27 13-16 34-24 61-25zM78-20c42-2 63-28 60-74-43 2-94-4-94 41 0 20 13 33 34 33zm193-93c7-60-75-77-95-28-3 7-5 17-5 28h100" id="H"/><g id="g"><use transform="matrix(0.05,0,0,0.05,0,0)" xlink:href="#z"/><use transform="matrix(0.05,0,0,0.05,3.95,0)" xlink:href="#v"/><use transform="matrix(0.05,0,0,0.05,8.95,0)" xlink:href="#F"/><use transform="matrix(0.05,0,0,0.05,14.899999999999999,0)" xlink:href="#G"/><use transform="matrix(0.05,0,0,0.05,23.9,0)" xlink:href="#H"/><use transform="matrix(0.05,0,0,0.05,39.9,0)" xlink:href="#s"/><use transform="matrix(0.05,0,0,0.05,44.9,0)" xlink:href="#x"/><use transform="matrix(0.05,0,0,0.05,54.900000000000006,0)" xlink:href="#z"/><use transform="matrix(0.05,0,0,0.05,58.85,0)" xlink:href="#x"/><use transform="matrix(0.05,0,0,0.05,68.85,0)" xlink:href="#n"/><use transform="matrix(0.05,0,0,0.05,78.85,0)" xlink:href="#r"/><use transform="matrix(0.05,0,0,0.05,88.85,0)" xlink:href="#l"/></g><path d="M143 4C61 4 22-44 18-125c-5-107 100-154 193-111 17 8 29 25 37 43l-32 9c-13-25-37-40-76-40-61 0-88 39-88 99 0 61 29 100 91 101 35 0 62-11 79-27v-45h-74v-28h105v86C228-13 192 4 143 4" id="I"/><g id="h"><use transform="matrix(0.05,0,0,0.05,0,0)" xlink:href="#I"/><use transform="matrix(0.05,0,0,0.05,14,0)" xlink:href="#o"/><use transform="matrix(0.05,0,0,0.05,24,0)" xlink:href="#p"/><use transform="matrix(0.05,0,0,0.05,38.95,0)" xlink:href="#r"/><use transform="matrix(0.05,0,0,0.05,48.95,0)" xlink:href="#C"/><use transform="matrix(0.05,0,0,0.05,52.900000000000006,0)" xlink:href="#m"/><use transform="matrix(0.05,0,0,0.05,62.900000000000006,0)" xlink:href="#m"/><use transform="matrix(0.05,0,0,0.05,72.9,0)" xlink:href="#B"/></g><path d="M212-179c-10-28-35-45-73-45-59 0-87 40-87 99 0 60 29 101 89 101 43 0 62-24 78-52l27 14C228-24 195 4 139 4 59 4 22-46 18-125c-6-104 99-153 187-111 19 9 31 26 39 46" id="J"/><g id="i"><use transform="matrix(0.05,0,0,0.05,0,0)" xlink:href="#J"/><use transform="matrix(0.05,0,0,0.05,12.950000000000001,0)" xlink:href="#C"/><use transform="matrix(0.05,0,0,0.05,16.900000000000002,0)" xlink:href="#o"/><use transform="matrix(0.05,0,0,0.05,26.900000000000002,0)" xlink:href="#G"/><use transform="matrix(0.05,0,0,0.05,35.900000000000006,0)" xlink:href="#G"/></g><path d="M76-208v77h127v40H76V0H24v-248h183v40H76" id="K"/><path d="M110-194c64 0 96 36 96 99 0 64-35 99-97 99-61 0-95-36-95-99 0-62 34-99 96-99zm-1 164c35 0 45-28 45-65 0-40-10-65-43-65-34 0-45 26-45 65 0 36 10 65 43 65" id="L"/><path d="M135-150c-39-12-60 13-60 57V0H25l-1-190h47c2 13-1 29 3 40 6-28 27-53 61-41v41" id="M"/><path d="M147 0L96-86 75-71V0H25v-261h50v150l67-79h53l-66 74L201 0h-54" id="N"/><path d="M25 0v-261h50V0H25" id="O"/><path d="M133-34C117-15 103 5 69 4 32 3 11-16 11-54c-1-60 55-63 116-61 1-26-3-47-28-47-18 1-26 9-28 27l-52-2c7-38 36-58 82-57s74 22 75 68l1 82c-1 14 12 18 25 15v27c-30 8-71 5-69-32zm-48 3c29 0 43-24 42-57-32 0-66-3-65 30 0 17 8 27 23 27" id="P"/><path d="M25-224v-37h50v37H25zM25 0v-190h50V0H25" id="Q"/><path d="M135-194c87-1 58 113 63 194h-50c-7-57 23-157-34-157-59 0-34 97-39 157H25l-1-190h47c2 12-1 28 3 38 12-26 28-41 61-42" id="R"/><path d="M195-6C206 82 75 100 31 46c-4-6-6-13-8-21l49-6c3 16 16 24 34 25 40 0 42-37 40-79-11 22-30 35-61 35-53 0-70-43-70-97 0-56 18-96 73-97 30 0 46 14 59 34l2-30h47zm-90-29c32 0 41-27 41-63 0-35-9-62-40-62-32 0-39 29-40 63 0 36 9 62 39 62" id="S"/><g id="j"><use transform="matrix(0.1111111111111111,0,0,0.1111111111111111,0,0)" xlink:href="#K"/><use transform="matrix(0.1111111111111111,0,0,0.1111111111111111,24.333333333333332,0)" xlink:href="#L"/><use transform="matrix(0.1111111111111111,0,0,0.1111111111111111,48.666666666666664,0)" xlink:href="#M"/><use transform="matrix(0.1111111111111111,0,0,0.1111111111111111,64.22222222222221,0)" xlink:href="#N"/><use transform="matrix(0.1111111111111111,0,0,0.1111111111111111,86.44444444444443,0)" xlink:href="#O"/><use transform="matrix(0.1111111111111111,0,0,0.1111111111111111,97.55555555555554,0)" xlink:href="#P"/><use transform="matrix(0.1111111111111111,0,0,0.1111111111111111,119.77777777777777,0)" xlink:href="#M"/><use transform="matrix(0.1111111111111111,0,0,0.1111111111111111,135.33333333333331,0)" xlink:href="#Q"/><use transform="matrix(0.1111111111111111,0,0,0.1111111111111111,146.44444444444443,0)" xlink:href="#R"/><use transform="matrix(0.1111111111111111,0,0,0.1111111111111111,170.77777777777777,0)" xlink:href="#S"/></g></defs></g></svg>